SplineFontDB: 3.0
FontName: Abel-Bold
FullName: Abel Bold
FamilyName: Abel
Weight: Bold
Copyright: Copyright (c) 2011, Matthew Desmond (http://www.madtype.com | mattdesmond@gmail.com), with Reserved Font Name Abel.
Version: 1.002
ItalicAngle: 0
UnderlinePosition: -328
UnderlineWidth: 82
Ascent: 1638
Descent: 410
sfntRevision: 0x00010083
LayerCount: 2
Layer: 0 1 "Back"  1
Layer: 1 1 "Fore"  0
NeedsXUIDChange: 1
XUID: [1021 588 1133928653 15156351]
FSType: 0
OS2Version: 3
OS2_WeightWidthSlopeOnly: 0
OS2_UseTypoMetrics: 1
CreationTime: 1311873540
ModificationTime: 1359132231
PfmFamily: 17
TTFWeight: 400
TTFWidth: 5
LineGap: 0
VLineGap: 0
Panose: 2 0 5 6 3 0 0 2 0 4
OS2TypoAscent: 368
OS2TypoAOffset: 1
OS2TypoDescent: -194
OS2TypoDOffset: 1
OS2TypoLinegap: 0
OS2WinAscent: 1
OS2WinAOffset: 1
OS2WinDescent: 0
OS2WinDOffset: 1
HheadAscent: 1
HheadAOffset: 1
HheadDescent: 0
HheadDOffset: 1
OS2SubXSize: 1434
OS2SubYSize: 1331
OS2SubXOff: 0
OS2SubYOff: 287
OS2SupXSize: 1434
OS2SupYSize: 1331
OS2SupXOff: 0
OS2SupYOff: 977
OS2StrikeYSize: 102
OS2StrikeYPos: 512
OS2Vendor: 'MADT'
OS2CodePages: 00000001.00000000
OS2UnicodeRanges: 00000001.00000000.00000000.00000000
Lookup: 258 0 0 "'kern' Horizontal Kerning in Latin lookup 0"  {"'kern' Horizontal Kerning in Latin lookup 0 subtable"  } ['kern' ('DFLT' <'dflt' > 'latn' <'dflt' > ) ]
MarkAttachClasses: 1
DEI: 91125
TtTable: prep
PUSHW_1
 511
SCANCTRL
PUSHB_1
 4
SCANTYPE
EndTTInstrs
ShortTable: maxp 16
  1
  0
  259
  135
  5
  0
  0
  2
  0
  1
  1
  0
  64
  0
  0
  0
EndShort
LangName: 1033 "" "" "" "" "" "" "" "" "Matthew Desmond" "" "Abel is a modern interpretation of the condensed flat-sided sans serif. Originally used for newspaper headlines and posters, this style can also be used for text on the web. Its angled terminals and spiked stems give it enough style to be unique at display sizes, while its mono-weight still works well at smaller text sizes." "" "" "" "" "" "" "" "Abel" "" "Abel-Bold" 
GaspTable: 1 65535 3

StartChar: exclam
Encoding: 33 33 4
Width: 428
Flags: HW
LayerCount: 2
Fore
SplineSet
298.272 383 m 1
 129.728 383 l 1
 69.1179 1485 l 1
 358.882 1485 l 1
 298.272 383 l 1
86 -51 m 1
 86 205 l 1
 342 205 l 1
 342 -51 l 1
 86 -51 l 1
EndSplineSet
EndChar

StartChar: quotedbl
Encoding: 34 34 5
Width: 645
Flags: HW
LayerCount: 2
Fore
SplineSet
516.442 942 m 1
 374.558 942 l 1
 322.5 1392.15 l 1
 270.442 942 l 1
 128.558 942 l 1
 65.7621 1485 l 1
 311.762 1485 l 1
 333.238 1485 l 1
 579.238 1485 l 1
 516.442 942 l 1
EndSplineSet
EndChar

StartChar: numbersign
Encoding: 35 35 6
Width: 1311
Flags: HW
LayerCount: 2
Fore
SplineSet
113 1120 m 1
 352.148 1120 l 1
 383.148 1485 l 1
 606.515 1485 l 1
 575.515 1120 l 1
 805.148 1120 l 1
 836.148 1485 l 1
 1059.52 1485 l 1
 1028.52 1120 l 1
 1239 1120 l 1
 1239 916 l 1
 1009.99 916 l 1
 977.353 518 l 1
 1198 518 l 1
 1198 314 l 1
 957.98 314 l 1
 927.98 -51 l 1
 704.485 -51 l 1
 735.485 314 l 1
 505.852 314 l 1
 474.852 -51 l 1
 251.485 -51 l 1
 282.485 314 l 1
 72 314 l 1
 72 518 l 1
 301.011 518 l 1
 333.647 916 l 1
 113 916 l 1
 113 1120 l 1
524.353 518 m 1
 754.011 518 l 1
 786.647 916 l 1
 556.989 916 l 1
 524.353 518 l 1
EndSplineSet
EndChar

StartChar: dollar
Encoding: 36 36 7
Width: 1267
Flags: HW
LayerCount: 2
Fore
SplineSet
771.066 -246 m 1,0,-1
 517.224 -246 l 1,1,-1
 517.224 -28.1309 l 1,2,3
 448.556 -21.002 448.556 -21.002 386.866 -0.641602 c 0,4,5
 313.735 29.1689 313.735 29.1689 259.747 80.9287 c 128,-1,6
 205.954 132.502 205.954 132.502 174.643 201.631 c 0,7,8
 143 271.49 143 271.49 143 350.695 c 2,9,-1
 143 445.909 l 1,10,-1
 374 481.582 l 1,11,-1
 374 350.695 l 2,12,13
 374 315.74 374 315.74 387.111 285.745 c 0,14,15
 403.24 255.351 403.24 255.351 432.172 232.558 c 128,-1,16
 461.277 209.631 461.277 209.631 500.311 195.866 c 0,17,18
 508.482 192.985 508.482 192.985 517.224 190.567 c 1,19,-1
 517.224 651.078 l 1,20,21
 454.178 669.639 454.178 669.639 394.459 690.4 c 0,22,23
 323.729 720.513 323.729 720.513 268.926 767.199 c 0,24,25
 212.216 815.508 212.216 815.508 177.821 885.115 c 0,26,27
 143 955.586 143 955.586 143 1055.54 c 2,28,-1
 143 1081.15 l 2,29,30
 143 1159.48 143 1159.48 174.7 1228.92 c 0,31,32
 205.958 1297.38 205.958 1297.38 259.56 1349.31 c 0,33,34
 313.484 1401.55 313.484 1401.55 386.559 1431.88 c 0,35,36
 448.913 1452.86 448.913 1452.86 517.224 1459.93 c 1,37,-1
 517.224 1638 l 1,38,-1
 771.066 1638 l 1,39,-1
 771.066 1459.8 l 1,40,41
 838.649 1452.49 838.649 1452.49 900.501 1431.17 c 0,42,43
 973.602 1400.45 973.602 1400.45 1027.25 1349.02 c 128,-1,44
 1080.99 1297.5 1080.99 1297.5 1112.3 1228.92 c 0,45,46
 1144 1159.48 1144 1159.48 1144 1081.15 c 2,47,-1
 1144 1004.91 l 1,48,-1
 913 969.233 l 1,49,-1
 913 1081.15 l 2,50,51
 913 1115.15 913 1115.15 897.848 1145.15 c 0,52,53
 881.208 1175.75 881.208 1175.75 853.241 1198.17 c 128,-1,54
 825.276 1220.59 825.276 1220.59 786.145 1234.76 c 0,55,56
 778.827 1237.41 778.827 1237.41 771.066 1239.69 c 1,57,-1
 771.066 804.803 l 1,58,59
 833.83 785.404 833.83 785.404 895.058 763.522 c 0,60,61
 968.382 732.068 968.382 732.068 1024.43 684.688 c 0,62,63
 1082.67 635.46 1082.67 635.46 1118.1 564.439 c 0,64,65
 1154 492.479 1154 492.479 1154 391.486 c 2,66,-1
 1154 350.695 l 2,67,68
 1154 271.492 1154 271.492 1122.36 201.631 c 0,69,70
 1090.99 132.383 1090.99 132.383 1036.06 80.2734 c 128,-1,71
 981.138 28.1689 981.138 28.1689 908.108 -1.58984 c 0,72,73
 842.848 -22.9688 842.848 -22.9688 771.066 -29.1406 c 1,74,-1
 771.066 -246 l 1,0,-1
923 332 m 2,75,-1
 923 375 l 2,76,77
 923 421.647 923 421.647 909.038 454.61 c 0,78,79
 891.448 488.355 891.448 488.355 861.728 513.023 c 0,80,81
 830.347 539.07 830.347 539.07 786.965 558.393 c 0,82,83
 779.115 561.89 779.115 561.89 771.066 565.299 c 1,84,-1
 771.066 160.432 l 1,85,86
 782.061 163.158 782.061 163.158 792.476 166.788 c 0,87,88
 832.547 180.756 832.547 180.756 861.728 204.977 c 0,89,90
 891.648 229.81 891.648 229.81 909.212 262.794 c 0,91,92
 923 294.586 923 294.586 923 332 c 2,75,-1
374 1102 m 2,93,-1
 374 1075 l 2,94,95
 374 1032.51 374 1032.51 386.846 1002.66 c 0,96,97
 402.721 972.146 402.721 972.146 431.443 949.062 c 0,98,99
 462.825 923.843 462.825 923.843 505.306 904.212 c 0,100,101
 511.118 901.527 511.118 901.527 517.224 898.802 c 1,102,-1
 517.224 1269.49 l 1,103,104
 508.938 1267 508.938 1267 500.901 1263.93 c 0,105,106
 461.271 1248.8 461.271 1248.8 431.813 1224.74 c 0,107,108
 403.139 1201.31 403.139 1201.31 387.111 1169.47 c 0,109,110
 374 1137.85 374 1137.85 374 1102 c 2,93,-1
EndSplineSet
EndChar

StartChar: percent
Encoding: 37 37 8
Width: 1586
Flags: HW
LayerCount: 2
Fore
SplineSet
664.83 1226.59 m 2,0,-1
 664.83 900.181 l 2,1,2
 664.83 856.998 664.83 856.998 644.916 817.815 c 128,-1,3
 625.026 778.68 625.026 778.68 589.372 749.541 c 0,4,5
 554.278 720.858 554.278 720.858 507.225 703.7 c 0,6,7
 458.685 686 458.685 686 402.767 686 c 2,8,-1
 373 686 l 2,9,10
 324.137 686 324.137 686 281.721 703.7 c 0,11,12
 240.606 720.857 240.606 720.857 209.938 749.541 c 0,13,14
 179.028 778.449 179.028 778.449 161.161 817.242 c 0,15,16
 143 856.673 143 856.673 143 900.181 c 2,17,-1
 143 1226.59 l 2,18,19
 143 1270.1 143 1270.1 161.161 1309.53 c 0,20,21
 179.024 1348.32 179.024 1348.32 209.938 1377.23 c 0,22,23
 240.601 1405.92 240.601 1405.92 281.721 1423.08 c 0,24,25
 324.136 1442 324.136 1442 373 1442 c 2,26,-1
 402.767 1442 l 2,27,28
 458.685 1442 458.685 1442 507.225 1423.08 c 0,29,30
 554.282 1405.92 554.282 1405.92 589.372 1377.23 c 0,31,32
 625.026 1348.09 625.026 1348.09 644.916 1308.96 c 128,-1,33
 664.83 1269.78 664.83 1269.78 664.83 1226.59 c 2,0,-1
435.954 911.269 m 2,34,-1
 435.954 1216.86 l 2,35,36
 435.954 1222.48 435.954 1222.48 433.328 1227.12 c 0,37,38
 430.578 1231.98 430.578 1231.98 425.939 1235.37 c 0,39,40
 420.326 1239.48 420.326 1239.48 412.748 1241.99 c 0,41,42
 406.686 1244 406.686 1244 398.19 1244 c 2,43,-1
 377 1244 l 2,44,45
 369.575 1244 369.575 1244 364.278 1241.99 c 0,46,47
 357.656 1239.48 357.656 1239.48 352.752 1235.37 c 0,48,49
 348.698 1231.98 348.698 1231.98 346.295 1227.12 c 0,50,51
 344 1222.48 344 1222.48 344 1216.86 c 2,52,-1
 344 911.269 l 2,53,54
 344 900.542 344 900.542 352.804 893.148 c 0,55,56
 362.506 885 362.506 885 377 885 c 2,57,-1
 398.19 885 l 2,58,59
 414.776 885 414.776 885 425.879 893.148 c 0,60,61
 435.954 900.542 435.954 900.542 435.954 911.269 c 2,34,-1
1443 532.839 m 2,62,-1
 1443 207.388 l 2,63,64
 1443 164.202 1443 164.202 1425.6 125.03 c 128,-1,65
 1408.21 85.8896 1408.21 85.8896 1377.06 56.7617 c 0,66,67
 1346.39 28.0791 1346.39 28.0791 1305.28 10.9248 c 0,68,69
 1262.86 -8 1262.86 -8 1214 -8 c 2,70,-1
 1183.15 -8 l 2,71,72
 1128.05 -8 1128.05 -8 1079.22 10.9248 c 0,73,74
 1031.89 28.0811 1031.89 28.0811 996.583 56.7617 c 0,75,76
 960.999 85.6699 960.999 85.6699 940.431 124.457 c 0,77,78
 919.524 163.884 919.524 163.884 919.524 207.388 c 2,79,-1
 921.17 532.839 l 2,80,81
 921.17 576.343 921.17 576.343 941.953 615.77 c 0,82,83
 962.4 654.559 962.4 654.559 997.772 683.465 c 0,84,85
 1032.87 712.144 1032.87 712.144 1079.92 729.301 c 0,86,87
 1128.46 747 1128.46 747 1183.23 747 c 2,88,-1
 1214 747 l 2,89,90
 1262.87 747 1262.87 747 1305.28 729.301 c 0,91,92
 1346.39 712.146 1346.39 712.146 1377.06 683.465 c 0,93,94
 1408.21 654.337 1408.21 654.337 1425.6 615.196 c 128,-1,95
 1443 576.022 1443 576.022 1443 532.839 c 2,62,-1
1243 217.144 m 2,96,-1
 1243 521.856 l 2,97,98
 1243 527.482 1243 527.482 1240.71 532.12 c 0,99,100
 1238.3 536.976 1238.3 536.976 1234.25 540.371 c 0,101,102
 1229.34 544.478 1229.34 544.478 1222.72 546.99 c 0,103,104
 1217.42 549 1217.42 549 1210 549 c 2,105,-1
 1187.81 549 l 2,106,107
 1179.31 549 1179.31 549 1173.25 546.99 c 0,108,109
 1165.67 544.478 1165.67 544.478 1160.06 540.371 c 0,110,111
 1155.42 536.976 1155.42 536.976 1152.67 532.12 c 0,112,113
 1150.05 527.481 1150.05 527.481 1150.05 521.856 c 2,114,-1
 1149.76 217.144 l 2,115,116
 1149.76 211.519 1149.76 211.519 1152.41 206.88 c 0,117,118
 1155.17 202.024 1155.17 202.024 1159.84 198.629 c 0,119,120
 1165.48 194.522 1165.48 194.522 1173.11 192.01 c 0,121,122
 1179.21 190 1179.21 190 1187.75 190 c 2,123,-1
 1210 190 l 2,124,125
 1217.42 190 1217.42 190 1222.72 192.01 c 0,126,127
 1229.34 194.522 1229.34 194.522 1234.25 198.629 c 0,128,129
 1238.3 202.024 1238.3 202.024 1240.71 206.88 c 0,130,131
 1243 211.519 1243 211.519 1243 217.144 c 2,96,-1
420.64 0 m 1,132,-1
 188.247 0 l 1,133,-1
 1160.76 1434 l 1,134,-1
 1397.75 1434 l 1,135,-1
 420.64 0 l 1,132,-1
EndSplineSet
EndChar

StartChar: ampersand
Encoding: 38 38 9
Width: 1272
Flags: HW
LayerCount: 2
Fore
SplineSet
1092 -71 m 2
 991.412 -71 991.412 -71 915.123 -27.2381 c 0
 868.712 -0.61491 868.712 -0.61491 833.773 37.6836 c 1
 791.05 -1.63058 791.05 -1.63058 738.057 -28.4905 c 0
 654.187 -71 654.187 -71 557 -71 c 2
 496 -71 l 2
 412.583 -71 412.583 -71 338.498 -39.4139 c 0
 264.918 -8.0432 264.918 -8.0432 209.938 46.9375 c 0
 155.01 101.866 155.01 101.866 123.643 174.866 c 0
 92 248.508 92 248.508 92 332 c 2
 92 410 l 2
 92 468.254 92 468.254 107.522 521.719 c 0
 122.997 575.021 122.997 575.021 151.752 621.03 c 0
 180.138 666.448 180.138 666.448 218.76 703.367 c 0
 228.343 712.527 228.343 712.527 238.522 721 c 1
 228.344 729.473 228.344 729.473 218.76 738.633 c 0
 180.137 775.552 180.137 775.552 151.752 820.97 c 0
 122.997 866.979 122.997 866.979 107.522 920.281 c 0
 92 973.746 92 973.746 92 1032 c 2
 92 1102 l 2
 92 1185.49 92 1185.49 123.643 1259.13 c 0
 155.004 1332.13 155.004 1332.13 209.938 1387.06 c 0
 264.91 1442.04 264.91 1442.04 338.498 1473.41 c 0
 412.58 1505 412.58 1505 496 1505 c 2
 557 1505 l 2
 640.492 1505 640.492 1505 714.134 1473.36 c 0
 787.143 1441.99 787.143 1441.99 842.062 1387.06 c 0
 896.998 1332.12 896.998 1332.12 928.357 1259.13 c 0
 960 1185.49 960 1185.49 960 1102 c 2
 960 1048.63 l 1
 729 1011.03 l 1
 729 1102 l 2
 729 1139.41 729 1139.41 715.212 1171.21 c 0
 701.079 1203.79 701.079 1203.79 676.938 1227.94 c 0
 652.807 1252.07 652.807 1252.07 620.206 1266.21 c 0
 588.419 1280 588.419 1280 551 1280 c 2
 502 1280 l 2
 464.581 1280 464.581 1280 432.794 1266.21 c 0
 400.004 1251.99 400.004 1251.99 375.273 1227.65 c 0
 350.841 1203.61 350.841 1203.61 336.788 1171.21 c 0
 323 1139.41 323 1139.41 323 1102 c 2
 323 1012 l 2
 323 974.584 323 974.584 336.788 942.794 c 0
 350.926 910.199 350.926 910.199 375.562 885.562 c 0
 400.201 860.924 400.201 860.924 432.794 846.788 c 0
 464.586 833 464.586 833 502 833 c 2
 729 833 l 1
 729 956.369 l 1
 960 993.974 l 1
 960 835 l 1
 1159 835 l 1
 1159 611 l 1
 960 611 l 1
 960 318.156 l 1
 961.901 279.993 961.901 279.993 971.745 247.998 c 0
 980.904 218.229 980.904 218.229 998.39 196.277 c 0
 1014.49 176.067 1014.49 176.067 1038.75 164.631 c 0
 1063.42 153 1063.42 153 1098 153 c 2
 1187.08 153 l 1
 1154.03 -71 l 1
 1092 -71 l 2
618.466 166.111 m 0
 650.304 179.311 650.304 179.311 673.737 202.359 c 0
 697.802 226.029 697.802 226.029 712.933 257.882 c 0
 727.17 287.855 727.17 287.855 729 323.156 c 1
 729 608 l 1
 502 608 l 2
 464.586 608 464.586 608 432.794 594.212 c 0
 400.007 579.992 400.007 579.992 375.273 555.65 c 0
 350.842 531.608 350.842 531.608 336.788 499.206 c 0
 323 467.416 323 467.416 323 430 c 2
 323 332 l 2
 323 294.584 323 294.584 336.788 262.794 c 0
 350.926 230.2 350.926 230.2 375.562 205.562 c 0
 400.198 180.927 400.198 180.927 432.794 166.788 c 0
 464.584 153 464.584 153 502 153 c 2
 551 153 l 2
 586.845 153 586.845 153 618.466 166.111 c 0
EndSplineSet
EndChar

StartChar: quotesingle
Encoding: 39 39 10
Width: 399
Flags: HW
LayerCount: 2
Fore
SplineSet
235.55 942 m 1
 92 942 l 1
 92 1485 l 1
 361.142 1485 l 1
 235.55 942 l 1
EndSplineSet
EndChar

StartChar: parenleft
Encoding: 40 40 11
Width: 684
Flags: HW
LayerCount: 2
Fore
SplineSet
72 598 m 0
 72 770.6 72 770.6 105.214 920.063 c 0
 138.388 1069.34 138.388 1069.34 197.629 1198.73 c 0
 256.834 1328.04 256.834 1328.04 338.447 1438.76 c 0
 419.401 1548.59 419.401 1548.59 515.332 1642.45 c 2
 551.39 1677.74 l 1
 694.483 1534.64 l 1
 659.704 1498.59 l 2
 580.764 1416.76 580.764 1416.76 513.776 1317.47 c 0
 447.047 1218.57 447.047 1218.57 398.988 1104.67 c 0
 350.877 990.646 350.877 990.646 323.89 863.417 c 0
 297 736.644 297 736.644 297 598 c 0
 297 459.36 297 459.36 323.89 332.583 c 0
 350.877 205.346 350.877 205.346 398.988 91.3264 c 0
 447.058 -22.5962 447.058 -22.5962 513.776 -121.474 c 0
 580.782 -220.779 580.782 -220.779 659.704 -302.591 c 2
 694.483 -338.642 l 1
 551.39 -481.735 l 1
 515.332 -446.452 l 2
 419.379 -352.561 419.379 -352.561 338.447 -242.76 c 0
 256.798 -131.986 256.798 -131.986 197.597 -2.15987 c 0
 138.377 127.708 138.377 127.708 105.214 276.937 c 0
 72 426.4 72 426.4 72 598 c 0
EndSplineSet
EndChar

StartChar: parenright
Encoding: 41 41 12
Width: 684
Flags: HW
LayerCount: 2
Fore
SplineSet
612 598 m 0
 612 426.411 612 426.411 578.786 276.937 c 0
 545.63 127.728 545.63 127.728 486.403 -2.15988 c 0
 427.208 -131.978 427.208 -131.978 345.553 -242.76 c 0
 264.61 -352.575 264.61 -352.575 168.668 -446.452 c 2
 132.61 -481.735 l 1
 -10.6981 -338.427 l 1
 24.5108 -302.369 l 2
 104.239 -220.719 104.239 -220.719 170.629 -121.615 c 0
 236.906 -22.6804 236.906 -22.6804 285.012 91.3263 c 0
 333.123 205.346 333.123 205.346 360.11 332.583 c 0
 387 459.36 387 459.36 387 598 c 0
 387 736.644 387 736.644 360.11 863.417 c 0
 333.123 990.646 333.123 990.646 285.012 1104.67 c 0
 236.912 1218.67 236.912 1218.67 170.629 1317.62 c 0
 104.232 1416.73 104.232 1416.73 24.5108 1498.37 c 2
 -10.6982 1534.43 l 1
 132.61 1677.74 l 1
 168.668 1642.45 l 2
 264.589 1548.6 264.589 1548.6 345.553 1438.76 c 0
 427.16 1328.05 427.16 1328.05 486.371 1198.73 c 0
 545.614 1069.34 545.614 1069.34 578.786 920.063 c 0
 612 770.589 612 770.589 612 598 c 0
EndSplineSet
EndChar

StartChar: asterisk
Encoding: 42 42 13
Width: 993
Flags: HW
LayerCount: 2
Fore
SplineSet
497.744 873.362 m 1
 341.175 612.109 l 1
 131.523 763.622 l 1
 332.802 991.312 l 1
 36.0579 1058.67 l 1
 115.872 1301.66 l 1
 396.271 1182.4 l 1
 368.016 1485 l 1
 624.816 1485 l 1
 597.473 1182.4 l 1
 877.108 1301.72 l 1
 956.942 1058.67 l 1
 660.198 991.312 l 1
 861.327 763.791 l 1
 652.707 611.747 l 1
 497.744 873.362 l 1
EndSplineSet
EndChar

StartChar: plus
Encoding: 43 43 14
Width: 1188
Flags: HW
LayerCount: 2
Fore
SplineSet
31 833 m 1
 477 833 l 1
 477 1280 l 1
 708 1280 l 1
 708 833 l 1
 1157 833 l 1
 1157 602 l 1
 708 602 l 1
 708 154 l 1
 477 154 l 1
 477 602 l 1
 31 602 l 1
 31 833 l 1
EndSplineSet
EndChar

StartChar: comma
Encoding: 44 44 15
Width: 440
Flags: HW
LayerCount: 2
Fore
SplineSet
235.55 -338 m 1
 92 -338 l 1
 92 205 l 1
 361.142 205 l 1
 235.55 -338 l 1
EndSplineSet
EndChar

StartChar: hyphen
Encoding: 45 45 16
Width: 588
Flags: HW
LayerCount: 2
Fore
SplineSet
51 576 m 1
 51 794 l 1
 536 794 l 1
 536 576 l 1
 51 576 l 1
EndSplineSet
EndChar

StartChar: period
Encoding: 46 46 17
Width: 440
Flags: HW
LayerCount: 2
Fore
SplineSet
92 -51 m 1
 92 205 l 1
 348 205 l 1
 348 -51 l 1
 92 -51 l 1
EndSplineSet
EndChar

StartChar: slash
Encoding: 47 47 18
Width: 782
Flags: HW
LayerCount: 2
Fore
SplineSet
-30.2128 -174 m 1
 575.476 1607 l 1
 812.213 1607 l 1
 206.524 -174 l 1
 -30.2128 -174 l 1
EndSplineSet
EndChar

StartChar: zero
Encoding: 48 48 19
Width: 1257
Flags: HW
LayerCount: 2
Fore
SplineSet
1113 1076.04 m 2,0,-1
 1113 357.96 l 2,1,2
 1113 280.099 1113 280.099 1081.36 211.421 c 0,3,4
 1049.99 143.346 1049.99 143.346 995.062 92.1191 c 128,-1,5
 940.138 40.8965 940.138 40.8965 867.105 11.6426 c 0,6,7
 773.514 -20 773.514 -20 667.399 -20 c 2,8,-1
 589.872 -20 l 2,9,10
 483.855 -20 483.855 -20 389.698 11.5859 c 0,11,12
 315.918 40.8418 315.918 40.8418 260.938 92.1152 c 128,-1,13
 206.01 143.34 206.01 143.34 174.643 211.418 c 0,14,15
 143 280.095 143 280.095 143 357.958 c 2,16,-1
 143 1076.04 l 2,17,18
 143 1153.9 143 1153.9 174.643 1222.58 c 0,19,20
 206.004 1290.65 206.004 1290.65 260.938 1341.88 c 128,-1,21
 315.91 1393.15 315.91 1393.15 389.698 1422.41 c 0,22,23
 483.851 1454 483.851 1454 589.872 1454 c 2,24,-1
 667.399 1454 l 2,25,26
 773.512 1454 773.512 1454 867.105 1422.36 c 0,27,28
 940.143 1393.1 940.143 1393.1 995.062 1341.88 c 128,-1,29
 1050 1290.65 1050 1290.65 1081.36 1222.58 c 0,30,31
 1113 1153.9 1113 1153.9 1113 1076.04 c 2,0,-1
882 366.8 m 2,32,-1
 882 1067.11 l 2,33,34
 882 1101.14 882 1101.14 868.212 1130.05 c 0,35,36
 850.513 1159.69 850.513 1159.69 819.831 1181.65 c 128,-1,37
 789.162 1203.6 789.162 1203.6 747.729 1216.46 c 0,38,39
 707.33 1229 707.33 1229 659.773 1229 c 2,40,-1
 597.498 1229 l 2,41,42
 549.941 1229 549.941 1229 509.542 1216.46 c 0,43,44
 467.868 1203.52 467.868 1203.52 436.436 1181.39 c 0,45,46
 405.385 1159.52 405.385 1159.52 387.788 1130.05 c 0,47,48
 374 1101.14 374 1101.14 374 1067.11 c 2,49,-1
 374 366.8 l 2,50,51
 374 332.77 374 332.77 387.788 303.856 c 0,52,53
 405.493 274.213 405.493 274.213 436.804 251.806 c 128,-1,54
 468.115 229.399 468.115 229.399 509.542 216.541 c 0,55,56
 549.945 204 549.945 204 597.498 204 c 2,57,-1
 659.773 204 l 2,58,59
 707.326 204 707.326 204 747.729 216.541 c 0,60,61
 788.909 229.322 788.909 229.322 819.466 251.542 c 0,62,63
 850.403 274.038 850.403 274.038 868.212 303.856 c 0,64,65
 882 332.771 882 332.771 882 366.8 c 2,32,-1
EndSplineSet
EndChar

StartChar: one
Encoding: 49 49 20
Width: 1263
Flags: HW
LayerCount: 2
Fore
SplineSet
1181 0 m 1,0,-1
 164 0 l 1,1,-1
 164 225 l 1,2,-1
 529.18 225 l 1,3,-1
 529.18 1202.7 l 1,4,-1
 164 1069.91 l 1,5,-1
 164 1285.4 l 1,6,-1
 579.685 1434 l 1,7,-1
 815.82 1434 l 1,8,-1
 815.82 225 l 1,9,-1
 1181 225 l 1,10,-1
 1181 0 l 1,0,-1
EndSplineSet
EndChar

StartChar: two
Encoding: 50 50 21
Width: 1216
Flags: HW
LayerCount: 2
Fore
SplineSet
630.429 1229 m 2,0,-1
 569.457 1229 l 2,1,2
 522.896 1229 522.896 1229 483.343 1215.21 c 0,3,4
 442.777 1201.07 442.777 1201.07 412.75 1176.94 c 128,-1,5
 382.713 1152.8 382.713 1152.8 365.125 1120.21 c 0,6,7
 347.968 1088.41 347.968 1088.41 347.968 1051 c 2,8,-1
 347.968 933.026 l 1,9,-1
 113 970.631 l 1,10,-1
 113 1051 l 2,11,12
 113 1134.49 113 1134.49 144.643 1208.13 c 0,13,14
 176.004 1281.13 176.004 1281.13 230.938 1336.06 c 128,-1,15
 285.859 1390.99 285.859 1390.99 366.466 1422.36 c 0,16,17
 458.1 1454 458.1 1454 561.991 1454 c 2,18,-1
 637.895 1454 l 2,19,20
 741.048 1454 741.048 1454 832.716 1424.3 c 0,21,22
 909.97 1396.66 909.97 1396.66 965.433 1344.48 c 0,23,24
 1020.54 1292.63 1020.54 1292.63 1051.83 1220.81 c 0,25,26
 1083 1149.25 1083 1149.25 1083 1060.91 c 0,27,28
 1083 975.74 1083 975.74 1055.4 889.948 c 0,29,30
 1028.62 806.717 1028.62 806.717 985.116 726.537 c 0,31,32
 942.048 647.152 942.048 647.152 886.558 572.591 c 0,33,34
 828.142 499.136 828.142 499.136 756.826 434.057 c 0,35,36
 638.883 326.701 638.883 326.701 498.566 225 c 1,37,-1
 1093 225 l 1,38,-1
 1093 0 l 1,39,-1
 82 0 l 1,40,-1
 82 163.499 l 1,41,-1
 100.579 177.626 l 2,42,43
 284.564 317.533 284.564 317.533 453.6 467.124 c 0,44,45
 530.205 531.189 530.205 531.189 603.303 603.512 c 0,46,47
 675.361 674.807 675.361 674.807 731.755 750.041 c 0,48,49
 787.254 824.084 787.254 824.084 820.82 900.554 c 0,50,51
 852 974.239 852 974.239 852 1045.25 c 0,52,53
 852 1094.27 852 1094.27 834.147 1129.17 c 0,54,55
 815.536 1163.33 815.536 1163.33 785.366 1185.02 c 128,-1,56
 755.07 1206.8 755.07 1206.8 715.86 1217.66 c 0,57,58
 674.956 1229 674.956 1229 630.429 1229 c 2,0,-1
EndSplineSet
EndChar

StartChar: three
Encoding: 51 51 22
Width: 1257
Flags: HW
LayerCount: 2
Fore
SplineSet
1113 449.352 m 2,0,-1
 1113 357.96 l 2,1,2
 1113 280.099 1113 280.099 1081.36 211.421 c 0,3,4
 1049.99 143.346 1049.99 143.346 995.062 92.1191 c 128,-1,5
 940.138 40.8965 940.138 40.8965 867.105 11.6426 c 0,6,7
 773.514 -20 773.514 -20 667.399 -20 c 2,8,-1
 589.872 -20 l 2,9,10
 483.855 -20 483.855 -20 389.698 11.5859 c 0,11,12
 315.918 42.957 315.918 42.957 260.938 97.9375 c 128,-1,13
 206.01 152.865 206.01 152.865 174.643 225.866 c 0,14,15
 143 299.508 143 299.508 143 383 c 2,16,-1
 143 463.702 l 1,17,-1
 374 499.517 l 1,18,-1
 374 383 l 2,19,20
 374 345.584 374 345.584 387.788 313.794 c 0,21,22
 405.493 281.199 405.493 281.199 436.804 256.562 c 128,-1,23
 468.115 231.927 468.115 231.927 509.542 217.788 c 0,24,25
 549.945 204 549.945 204 597.498 204 c 2,26,-1
 659.773 204 l 2,27,28
 707.326 204 707.326 204 747.729 216.312 c 0,29,30
 788.909 228.859 788.909 228.859 819.466 250.672 c 0,31,32
 850.403 272.757 850.403 272.757 868.212 302.03 c 0,33,34
 882 330.416 882 330.416 882 363.821 c 2,35,-1
 882 470.071 l 2,36,37
 882 503.477 882 503.477 868.212 531.862 c 0,38,39
 850.51 560.964 850.51 560.964 819.831 582.516 c 128,-1,40
 789.154 604.067 789.154 604.067 747.729 616.688 c 0,41,42
 707.324 629 707.324 629 659.773 629 c 2,43,-1
 472.946 629 l 1,44,-1
 472.946 854 l 1,45,-1
 659.773 854 l 2,46,47
 707.324 854 707.324 854 747.729 866.138 c 0,48,49
 789.154 878.581 789.154 878.581 819.831 899.83 c 128,-1,50
 850.51 921.078 850.51 921.078 868.212 949.77 c 0,51,52
 882 977.756 882 977.756 882 1010.69 c 2,53,-1
 882 1072.31 l 2,54,55
 882 1105.24 882 1105.24 868.212 1133.23 c 0,56,57
 850.513 1161.92 850.513 1161.92 819.831 1183.17 c 128,-1,58
 789.162 1204.41 789.162 1204.41 747.729 1216.86 c 0,59,60
 707.33 1229 707.33 1229 659.773 1229 c 2,61,-1
 597.498 1229 l 2,62,63
 549.941 1229 549.941 1229 509.542 1215.21 c 0,64,65
 467.868 1200.99 467.868 1200.99 436.436 1176.65 c 0,66,67
 405.385 1152.61 405.385 1152.61 387.788 1120.21 c 0,68,69
 374 1088.41 374 1088.41 374 1051 c 2,70,-1
 374 933.026 l 1,71,-1
 143 970.631 l 1,72,-1
 143 1051 l 2,73,74
 143 1134.49 143 1134.49 174.643 1208.13 c 0,75,76
 206.004 1281.13 206.004 1281.13 260.938 1336.06 c 128,-1,77
 315.91 1391.04 315.91 1391.04 389.698 1422.41 c 0,78,79
 483.851 1454 483.851 1454 589.872 1454 c 2,80,-1
 667.399 1454 l 2,81,82
 773.512 1454 773.512 1454 867.105 1422.36 c 0,83,84
 940.143 1393.1 940.143 1393.1 995.062 1341.88 c 128,-1,85
 1050 1290.65 1050 1290.65 1081.36 1222.58 c 0,86,87
 1113 1153.9 1113 1153.9 1113 1076.04 c 2,88,-1
 1113 1030.34 l 2,89,90
 1113 976.018 1113 976.018 1097.48 926.158 c 0,91,92
 1082.07 876.657 1082.07 876.657 1053.99 833.909 c 128,-1,93
 1026.03 791.332 1026.03 791.332 987.24 756.759 c 0,94,95
 977.727 748.278 977.727 748.278 966.916 739.818 c 1,96,97
 977.654 731.48 977.654 731.48 987.24 722.938 c 0,98,99
 1026.03 688.363 1026.03 688.363 1053.99 645.787 c 128,-1,100
 1082.07 603.039 1082.07 603.039 1097.48 553.538 c 0,101,102
 1113 503.679 1113 503.679 1113 449.352 c 2,0,-1
EndSplineSet
EndChar

StartChar: four
Encoding: 52 52 23
Width: 1236
Flags: HW
LayerCount: 2
Fore
SplineSet
1093 197 m 1,0,-1
 970 197 l 1,1,-1
 970 0 l 1,2,-1
 739 0 l 1,3,-1
 739 197 l 1,4,-1
 61 197 l 1,5,-1
 61 317.47 l 1,6,-1
 815.228 1434 l 1,7,-1
 970 1434 l 1,8,-1
 970 422 l 1,9,-1
 1093 422 l 1,10,-1
 1093 197 l 1,0,-1
739 422 m 1,11,-1
 713.821 884.427 l 1,12,-1
 402.274 422 l 1,13,-1
 739 422 l 1,11,-1
EndSplineSet
EndChar

StartChar: five
Encoding: 53 53 24
Width: 1257
Flags: HW
LayerCount: 2
Fore
SplineSet
1118.33 629.561 m 2,0,-1
 1118.33 365.021 l 2,1,2
 1118.33 285.571 1118.33 285.571 1086.68 215.494 c 0,3,4
 1055.32 146.031 1055.32 146.031 1000.39 93.7598 c 128,-1,5
 945.465 41.4932 945.465 41.4932 872.433 11.6426 c 0,6,7
 779.12 -20 779.12 -20 673.32 -20 c 2,8,-1
 596.024 -20 l 2,9,10
 490.322 -20 490.322 -20 396.446 11.5859 c 0,11,12
 321.245 42.957 321.245 42.957 266.265 97.9375 c 128,-1,13
 211.337 152.865 211.337 152.865 179.97 225.866 c 0,14,15
 148.327 299.508 148.327 299.508 148.327 383 c 2,16,-1
 148.327 456 l 1,17,-1
 379.327 456 l 1,18,-1
 379.327 383 l 2,19,20
 379.327 345.584 379.327 345.584 394.279 313.794 c 0,21,22
 412.193 281.199 412.193 281.199 443.412 256.562 c 128,-1,23
 474.629 231.927 474.629 231.927 515.933 217.788 c 0,24,25
 556.215 204 556.215 204 603.627 204 c 2,26,-1
 665.717 204 l 2,27,28
 713.129 204 713.129 204 753.412 216.683 c 0,29,30
 794.469 229.609 794.469 229.609 824.935 252.081 c 0,31,32
 855.78 274.832 855.78 274.832 873.539 304.989 c 0,33,34
 887.327 334.232 887.327 334.232 887.327 368.646 c 2,35,-1
 887.327 624.354 l 2,36,37
 887.327 658.768 887.327 658.768 873.539 688.011 c 0,38,39
 855.781 718.166 855.781 718.166 824.935 740.919 c 0,40,41
 794.469 763.392 794.469 763.392 753.412 776.317 c 0,42,43
 713.127 789 713.127 789 665.717 789 c 2,44,-1
 603.627 789 l 2,45,46
 556.218 789 556.218 789 515.933 775.212 c 0,47,48
 474.631 761.076 474.631 761.076 443.412 736.438 c 128,-1,49
 412.193 711.801 412.193 711.801 394.279 679.206 c 0,50,51
 379.327 647.416 379.327 647.416 379.327 610 c 2,52,-1
 379.327 559 l 1,53,-1
 143 559 l 1,54,-1
 235.15 1434 l 1,55,-1
 1047.33 1434 l 1,56,-1
 1047.33 1209 l 1,57,-1
 464.055 1209 l 1,58,-1
 425.503 974.53 l 1,59,60
 441.479 980.622 441.479 980.622 457.895 985.825 c 0,61,62
 546.788 1014 546.788 1014 647.977 1014 c 2,63,-1
 673.32 1014 l 2,64,65
 779.118 1014 779.118 1014 872.433 983.89 c 0,66,67
 945.462 954.041 945.462 954.041 1000.39 901.772 c 128,-1,68
 1055.37 849.458 1055.37 849.458 1086.74 779.437 c 0,69,70
 1118.33 708.944 1118.33 708.944 1118.33 629.561 c 2,0,-1
EndSplineSet
EndChar

StartChar: six
Encoding: 54 54 25
Width: 1257
Flags: HW
LayerCount: 2
Fore
SplineSet
1134 533.536 m 2,0,-1
 1134 363.155 l 2,1,2
 1134 284.126 1134 284.126 1102.36 214.418 c 0,3,4
 1070.99 145.322 1070.99 145.322 1016.06 93.3262 c 128,-1,5
 961.138 41.3359 961.138 41.3359 888.105 11.6426 c 0,6,7
 794.514 -20 794.514 -20 688.399 -20 c 2,8,-1
 609.601 -20 l 2,9,10
 503.486 -20 503.486 -20 409.895 11.6426 c 0,11,12
 336.864 40.8955 336.864 40.8955 281.938 92.1191 c 128,-1,13
 227.011 143.342 227.011 143.342 195.643 211.421 c 0,14,15
 164 280.096 164 280.096 164 357.96 c 2,16,-1
 164 1076.04 l 2,17,18
 164 1153.9 164 1153.9 195.643 1222.58 c 0,19,20
 227.005 1290.65 227.005 1290.65 281.938 1341.88 c 128,-1,21
 336.859 1393.1 336.859 1393.1 409.895 1422.36 c 0,22,23
 503.488 1454 503.488 1454 609.601 1454 c 2,24,-1
 688.399 1454 l 2,25,26
 794.512 1454 794.512 1454 888.105 1422.36 c 0,27,28
 961.143 1390.99 961.143 1390.99 1016.06 1336.06 c 128,-1,29
 1071 1281.12 1071 1281.12 1102.36 1208.13 c 0,30,31
 1134 1134.49 1134 1134.49 1134 1051 c 2,32,-1
 1134 970.631 l 1,33,-1
 903 933.026 l 1,34,-1
 903 1051 l 2,35,36
 903 1088.41 903 1088.41 889.212 1120.21 c 0,37,38
 871.616 1152.61 871.616 1152.61 840.564 1176.65 c 0,39,40
 809.13 1200.99 809.13 1200.99 767.458 1215.21 c 0,41,42
 727.059 1229 727.059 1229 679.502 1229 c 2,43,-1
 617.227 1229 l 2,44,45
 569.67 1229 569.67 1229 529.271 1217.14 c 0,46,47
 487.838 1204.97 487.838 1204.97 457.169 1184.21 c 128,-1,48
 426.489 1163.44 426.489 1163.44 408.788 1135.41 c 0,49,50
 395 1108.06 395 1108.06 395 1075.87 c 2,51,-1
 395 853.236 l 1,52,53
 418.562 866.687 418.562 866.687 447.734 877.577 c 0,54,55
 547.981 915 547.981 915 661.709 915 c 2,56,-1
 688.399 915 l 2,57,58
 794.512 915 794.512 915 888.105 885.049 c 0,59,60
 961.135 855.357 961.135 855.357 1016.06 803.365 c 128,-1,61
 1070.99 751.372 1070.99 751.372 1102.36 682.272 c 0,62,63
 1134 612.566 1134 612.566 1134 533.536 c 2,0,-1
903 366 m 2,64,-1
 903 528.905 l 2,65,66
 903 562.766 903 562.766 889.212 591.539 c 0,67,68
 871.615 620.863 871.615 620.863 840.564 642.622 c 0,69,70
 809.125 664.652 809.125 664.652 767.458 677.521 c 0,71,72
 727.053 690 727.053 690 679.502 690 c 2,73,-1
 617.227 690 l 2,74,75
 569.676 690 569.676 690 529.271 677.521 c 0,76,77
 487.846 664.728 487.846 664.728 457.169 642.882 c 128,-1,78
 426.493 621.038 426.493 621.038 408.788 591.539 c 0,79,80
 395 562.768 395 562.768 395 528.905 c 2,81,-1
 395 366 l 2,82,83
 395 332.138 395 332.138 408.788 303.366 c 0,84,85
 426.6 273.692 426.6 273.692 457.534 251.309 c 0,86,87
 488.091 229.198 488.091 229.198 529.271 216.479 c 0,88,89
 569.674 204 569.674 204 617.227 204 c 2,90,-1
 679.502 204 l 2,91,92
 727.055 204 727.055 204 767.458 216.479 c 0,93,94
 808.887 229.274 808.887 229.274 840.196 251.57 c 128,-1,95
 871.51 273.869 871.51 273.869 889.212 303.366 c 0,96,97
 903 332.14 903 332.14 903 366 c 2,64,-1
EndSplineSet
EndChar

StartChar: seven
Encoding: 55 55 26
Width: 1257
Flags: HW
LayerCount: 2
Fore
SplineSet
1154 1319.15 m 1,0,-1
 474.245 0 l 1,1,-1
 228.997 0 l 1,2,-1
 857.644 1209 l 1,3,-1
 395 1209 l 1,4,-1
 395 1018 l 1,5,-1
 164 1018 l 1,6,-1
 164 1434 l 1,7,-1
 1154 1434 l 1,8,-1
 1154 1319.15 l 1,0,-1
EndSplineSet
EndChar

StartChar: eight
Encoding: 56 56 27
Width: 1257
Flags: HW
LayerCount: 2
Fore
SplineSet
1113 468.936 m 2,0,-1
 1113 357.96 l 2,1,2
 1113 280.099 1113 280.099 1081.36 211.421 c 0,3,4
 1049.99 143.346 1049.99 143.346 995.062 92.1191 c 128,-1,5
 940.138 40.8965 940.138 40.8965 867.105 11.6426 c 0,6,7
 773.514 -20 773.514 -20 667.399 -20 c 2,8,-1
 589.872 -20 l 2,9,10
 483.855 -20 483.855 -20 389.698 11.5859 c 0,11,12
 315.918 40.8418 315.918 40.8418 260.938 92.1152 c 128,-1,13
 206.01 143.34 206.01 143.34 174.643 211.418 c 0,14,15
 143 280.095 143 280.095 143 357.958 c 2,16,-1
 143 468.935 l 2,17,18
 143 566.269 143 566.269 192.058 647.539 c 0,19,20
 223.39 699.445 223.39 699.445 267.842 739.409 c 1,21,22
 223.129 779.875 223.129 779.875 191.987 831.808 c 0,23,24
 143 913.502 143 913.502 143 1010.76 c 2,25,-1
 143 1076.04 l 2,26,27
 143 1153.9 143 1153.9 174.643 1222.58 c 0,28,29
 206.004 1290.65 206.004 1290.65 260.938 1341.88 c 128,-1,30
 315.91 1393.15 315.91 1393.15 389.698 1422.41 c 0,31,32
 483.851 1454 483.851 1454 589.872 1454 c 2,33,-1
 667.399 1454 l 2,34,35
 773.512 1454 773.512 1454 867.105 1422.36 c 0,36,37
 940.143 1393.1 940.143 1393.1 995.062 1341.88 c 128,-1,38
 1050 1290.65 1050 1290.65 1081.36 1222.58 c 0,39,40
 1113 1153.9 1113 1153.9 1113 1076.04 c 2,41,-1
 1113 1010.76 l 2,42,43
 1113 913.626 1113 913.626 1064.64 832.016 c 0,44,45
 1033.53 779.516 1033.53 779.516 989.097 739.41 c 1,46,47
 1033.55 699.324 1033.55 699.324 1064.57 647.33 c 0,48,49
 1113 566.139 1113 566.139 1113 468.936 c 2,0,-1
882 1010.69 m 2,50,-1
 882 1072.31 l 2,51,52
 882 1105.24 882 1105.24 868.212 1133.23 c 0,53,54
 850.513 1161.92 850.513 1161.92 819.831 1183.17 c 128,-1,55
 789.162 1204.41 789.162 1204.41 747.729 1216.86 c 0,56,57
 707.33 1229 707.33 1229 659.773 1229 c 2,58,-1
 597.498 1229 l 2,59,60
 549.941 1229 549.941 1229 509.542 1216.86 c 0,61,62
 467.868 1204.34 467.868 1204.34 436.436 1182.92 c 0,63,64
 405.385 1161.75 405.385 1161.75 387.788 1133.23 c 0,65,66
 374 1105.25 374 1105.25 374 1072.31 c 2,67,-1
 374 1010.69 l 2,68,69
 374 977.753 374 977.753 387.788 949.77 c 0,70,71
 405.386 921.247 405.386 921.247 436.436 900.083 c 0,72,73
 467.873 878.655 467.873 878.655 509.542 866.138 c 0,74,75
 549.947 854 549.947 854 597.498 854 c 2,76,-1
 659.773 854 l 2,77,78
 707.324 854 707.324 854 747.729 866.138 c 0,79,80
 789.154 878.581 789.154 878.581 819.831 899.83 c 128,-1,81
 850.51 921.078 850.51 921.078 868.212 949.77 c 0,82,83
 882 977.756 882 977.756 882 1010.69 c 2,50,-1
882 363.821 m 2,84,-1
 882 470.071 l 2,85,86
 882 503.477 882 503.477 868.212 531.862 c 0,87,88
 850.51 560.964 850.51 560.964 819.831 582.516 c 128,-1,89
 789.154 604.067 789.154 604.067 747.729 616.688 c 0,90,91
 707.324 629 707.324 629 659.773 629 c 2,92,-1
 597.498 629 l 2,93,94
 549.947 629 549.947 629 509.542 616.688 c 0,95,96
 467.873 603.993 467.873 603.993 436.436 582.259 c 0,97,98
 405.386 560.793 405.386 560.793 387.788 531.862 c 0,99,100
 374 503.479 374 503.479 374 470.071 c 2,101,-1
 374 363.821 l 2,102,103
 374 330.414 374 330.414 387.788 302.03 c 0,104,105
 405.493 272.928 405.493 272.928 436.804 250.931 c 128,-1,106
 468.115 228.935 468.115 228.935 509.542 216.312 c 0,107,108
 549.945 204 549.945 204 597.498 204 c 2,109,-1
 659.773 204 l 2,110,111
 707.326 204 707.326 204 747.729 216.312 c 0,112,113
 788.909 228.859 788.909 228.859 819.466 250.672 c 0,114,115
 850.403 272.757 850.403 272.757 868.212 302.03 c 0,116,117
 882 330.416 882 330.416 882 363.821 c 2,84,-1
EndSplineSet
EndChar

StartChar: nine
Encoding: 57 57 28
Width: 1257
Flags: HW
LayerCount: 2
Fore
SplineSet
1134 1076.04 m 2,0,-1
 1134 357.96 l 2,1,2
 1134 280.099 1134 280.099 1102.36 211.421 c 0,3,4
 1070.99 143.346 1070.99 143.346 1016.06 92.1191 c 128,-1,5
 961.138 40.8965 961.138 40.8965 888.105 11.6426 c 0,6,7
 794.514 -20 794.514 -20 688.399 -20 c 2,8,-1
 609.601 -20 l 2,9,10
 503.486 -20 503.486 -20 409.895 11.6426 c 0,11,12
 336.864 43.0107 336.864 43.0107 281.938 97.9375 c 128,-1,13
 227.011 152.864 227.011 152.864 195.643 225.866 c 0,14,15
 164 299.506 164 299.506 164 383 c 2,16,-1
 164 463.702 l 1,17,-1
 395 499.517 l 1,18,-1
 395 383 l 2,19,20
 395 345.584 395 345.584 408.788 313.794 c 0,21,22
 426.6 281.006 426.6 281.006 457.534 256.272 c 0,23,24
 488.091 231.842 488.091 231.842 529.271 217.788 c 0,25,26
 569.674 204 569.674 204 617.227 204 c 2,27,-1
 679.502 204 l 2,28,29
 727.055 204 727.055 204 767.458 215.862 c 0,30,31
 808.887 228.024 808.887 228.024 840.196 249.218 c 128,-1,32
 871.51 270.414 871.51 270.414 889.212 298.453 c 0,33,34
 903 325.803 903 325.803 903 357.989 c 2,35,-1
 903 580.18 l 1,36,37
 879.362 566.604 879.362 566.604 849.797 555.485 c 0,38,39
 750.118 518 750.118 518 636.291 518 c 2,40,-1
 609.601 518 l 2,41,42
 503.488 518 503.488 518 409.895 547.953 c 0,43,44
 336.868 577.645 336.868 577.645 281.938 629.642 c 128,-1,45
 226.96 681.684 226.96 681.684 195.586 751.339 c 0,46,47
 164 821.467 164 821.467 164 900.434 c 2,48,-1
 164 1070.82 l 2,49,50
 164 1149.86 164 1149.86 195.643 1219.57 c 0,51,52
 227.005 1288.67 227.005 1288.67 281.938 1340.67 c 128,-1,53
 336.859 1392.66 336.859 1392.66 409.895 1422.36 c 0,54,55
 503.488 1454 503.488 1454 609.601 1454 c 2,56,-1
 688.399 1454 l 2,57,58
 794.512 1454 794.512 1454 888.105 1422.36 c 0,59,60
 961.143 1393.1 961.143 1393.1 1016.06 1341.88 c 128,-1,61
 1071 1290.65 1071 1290.65 1102.36 1222.58 c 0,62,63
 1134 1153.9 1134 1153.9 1134 1076.04 c 2,0,-1
903 905 m 2,64,-1
 903 1067.91 l 2,65,66
 903 1101.76 903 1101.76 889.212 1130.54 c 0,67,68
 871.616 1159.86 871.616 1159.86 840.564 1181.62 c 0,69,70
 809.13 1203.65 809.13 1203.65 767.458 1216.52 c 0,71,72
 727.059 1229 727.059 1229 679.502 1229 c 2,73,-1
 617.227 1229 l 2,74,75
 569.67 1229 569.67 1229 529.271 1216.52 c 0,76,77
 487.838 1203.72 487.838 1203.72 457.169 1181.88 c 128,-1,78
 426.489 1160.03 426.489 1160.03 408.788 1130.54 c 0,79,80
 395 1101.77 395 1101.77 395 1067.91 c 2,81,-1
 395 905 l 2,82,83
 395 871.138 395 871.138 408.788 842.366 c 0,84,85
 426.598 812.693 426.598 812.693 457.534 790.309 c 0,86,87
 488.091 768.197 488.091 768.197 529.271 755.479 c 0,88,89
 569.676 743 569.676 743 617.227 743 c 2,90,-1
 679.502 743 l 2,91,92
 727.053 743 727.053 743 767.458 755.479 c 0,93,94
 808.882 768.272 808.882 768.272 840.196 790.57 c 128,-1,95
 871.51 812.869 871.51 812.869 889.212 842.366 c 0,96,97
 903 871.14 903 871.14 903 905 c 2,64,-1
EndSplineSet
EndChar

StartChar: colon
Encoding: 58 58 29
Width: 440
Flags: HW
LayerCount: 2
Fore
SplineSet
92 819 m 1
 92 1075 l 1
 348 1075 l 1
 348 819 l 1
 92 819 l 1
92 -51 m 1
 92 205 l 1
 348 205 l 1
 348 -51 l 1
 92 -51 l 1
EndSplineSet
EndChar

StartChar: semicolon
Encoding: 59 59 30
Width: 440
Flags: HW
LayerCount: 2
Fore
SplineSet
92 819 m 1
 92 1075 l 1
 348 1075 l 1
 348 819 l 1
 92 819 l 1
235.55 -338 m 1
 92 -338 l 1
 92 205 l 1
 361.142 205 l 1
 235.55 -338 l 1
EndSplineSet
EndChar

StartChar: less
Encoding: 60 60 31
Width: 1249
Flags: HW
LayerCount: 2
Fore
SplineSet
1177 1325.54 m 1
 1177 1072.81 l 1
 374.174 717.12 l 1
 1177 363.255 l 1
 1177 109.391 l 1
 51 611.912 l 1
 51 824.117 l 1
 1177 1325.54 l 1
EndSplineSet
EndChar

StartChar: equal
Encoding: 61 61 32
Width: 1352
Flags: HW
LayerCount: 2
Fore
SplineSet
1239 1024 m 1
 1239 793 l 1
 113 793 l 1
 113 1024 l 1
 1239 1024 l 1
1239 643 m 1
 1239 412 l 1
 113 412 l 1
 113 643 l 1
 1239 643 l 1
EndSplineSet
EndChar

StartChar: greater
Encoding: 62 62 33
Width: 1249
Flags: HW
LayerCount: 2
Fore
SplineSet
873.067 717.12 m 1
 72 1072.84 l 1
 72 1325.54 l 1
 1198 824.117 l 1
 1198 611.912 l 1
 72 109.391 l 1
 72 363.224 l 1
 873.067 717.12 l 1
EndSplineSet
EndChar

StartChar: question
Encoding: 63 63 34
Width: 950
Flags: HW
LayerCount: 2
Fore
SplineSet
281 -51 m 1
 281 205 l 1
 536 205 l 1
 536 -51 l 1
 281 -51 l 1
524 383 m 1
 293 383 l 1
 293 473 l 2
 293 547.113 293 547.113 311.519 603.831 c 0
 329.958 660.302 329.958 660.302 361.037 703.696 c 0
 391.057 745.61 391.057 745.61 429.12 778.559 c 0
 464.024 808.773 464.024 808.773 500.992 836.369 c 0
 535.706 862.283 535.706 862.283 568.496 888.708 c 0
 597.688 912.234 597.688 912.234 620.735 940.933 c 0
 642.201 967.663 642.201 967.663 655.341 1002.16 c 0
 668 1035.38 668 1035.38 668 1083 c 2
 668 1102 l 2
 668 1139.41 668 1139.41 654.212 1171.21 c 0
 640.161 1203.61 640.161 1203.61 615.727 1227.65 c 0
 590.995 1251.99 590.995 1251.99 558.206 1266.21 c 0
 526.418 1280 526.418 1280 489 1280 c 2
 461 1280 l 2
 423.581 1280 423.581 1280 391.794 1266.21 c 0
 359.003 1251.99 359.003 1251.99 334.273 1227.65 c 0
 309.841 1203.61 309.841 1203.61 295.788 1171.21 c 0
 282 1139.41 282 1139.41 282 1102 c 2
 282 984.026 l 1
 51 1021.63 l 1
 51 1102 l 2
 51 1185.49 51 1185.49 82.6426 1259.13 c 0
 114.004 1332.13 114.004 1332.13 168.938 1387.06 c 0
 223.91 1442.04 223.91 1442.04 297.498 1473.41 c 0
 371.58 1505 371.58 1505 455 1505 c 2
 496 1505 l 2
 579.492 1505 579.492 1505 653.134 1473.36 c 0
 726.143 1441.99 726.143 1441.99 781.062 1387.06 c 0
 835.998 1332.12 835.998 1332.12 867.357 1259.13 c 0
 899 1185.49 899 1185.49 899 1102 c 2
 899 1083 l 2
 899 1006.33 899 1006.33 880.745 947.002 c 0
 862.582 887.97 862.582 887.97 832.016 841.833 c 0
 802.137 796.731 802.137 796.731 764.139 761.568 c 0
 728.831 728.894 728.831 728.894 691.374 700.407 c 0
 656.186 673.647 656.186 673.647 622.77 647.711 c 0
 593.383 624.904 593.383 624.904 570.266 597.861 c 0
 548.924 572.894 548.924 572.894 536.003 542.209 c 0
 524 513.702 524 513.702 524 473 c 2
 524 383 l 1
EndSplineSet
EndChar

StartChar: at
Encoding: 64 64 35
Width: 2046
Flags: HW
LayerCount: 2
Fore
SplineSet
1355.52 247.016 m 2
 1344.63 169.268 1344.63 169.268 1369.71 139.109 c 0
 1393.92 110 1393.92 110 1454 110 c 0
 1497.85 110 1497.85 110 1542.18 143.631 c 0
 1591.92 181.369 1591.92 181.369 1631.75 250.864 c 0
 1673.27 323.295 1673.27 323.295 1699.06 425.03 c 0
 1725 527.347 1725 527.347 1725 649 c 0
 1725 787.429 1725 787.429 1684.29 905.357 c 0
 1644.18 1021.55 1644.18 1021.55 1568.62 1105.35 c 0
 1493.57 1188.59 1493.57 1188.59 1383.29 1236.17 c 0
 1272.47 1284 1272.47 1284 1128 1284 c 0
 1012.87 1284 1012.87 1284 909.337 1251.36 c 0
 805.153 1218.52 805.153 1218.52 715.584 1159.43 c 0
 625.778 1100.18 625.778 1100.18 553.286 1017.81 c 0
 480.461 935.052 480.461 935.052 428.856 834.68 c 0
 377.098 734.011 377.098 734.011 349.025 619.825 c 0
 321 505.832 321 505.832 321 383 c 0
 321 243.841 321 243.841 358.644 124.321 c 0
 395.567 7.09128 395.567 7.09128 467.956 -78.585 c 0
 539.555 -163.325 539.555 -163.325 645.619 -211.578 c 0
 752.055 -260 752.055 -260 895 -260 c 0
 947.442 -260 947.442 -260 997.42 -252.994 c 0
 1048.25 -245.868 1048.25 -245.868 1093.63 -234.523 c 0
 1138.38 -223.334 1138.38 -223.334 1175.76 -208.567 c 0
 1212.61 -194.011 1212.61 -194.011 1238.21 -179.002 c 2
 1287.78 -149.945 l 1
 1369.6 -337.553 l 1
 1331.37 -360.652 l 2
 1279.76 -391.83 1279.76 -391.83 1221.87 -414.883 c 0
 1164.74 -437.626 1164.74 -437.626 1105.97 -452.451 c 0
 1047.31 -467.251 1047.31 -467.251 989.54 -474.141 c 0
 932.036 -481 932.036 -481 879 -481 c 0
 691.151 -481 691.151 -481 544.255 -415.59 c 0
 396.99 -350.016 396.99 -350.016 296.096 -234.558 c 0
 195.911 -119.911 195.911 -119.911 143.667 35.223 c 0
 92 188.645 92 188.645 92 367 c 0
 92 519.383 92 519.383 128.576 663.081 c 0
 165.094 806.549 165.094 806.549 232.495 932.99 c 0
 299.988 1059.6 299.988 1059.6 395.28 1164.33 c 0
 490.714 1269.2 490.714 1269.2 607.246 1344.79 c 0
 724.18 1420.63 724.18 1420.63 859.896 1462.71 c 0
 996.286 1505 996.286 1505 1145 1505 c 0
 1332.42 1505 1332.42 1505 1482.53 1440.9 c 0
 1632.99 1376.66 1632.99 1376.66 1738.37 1263.21 c 0
 1843.45 1150.07 1843.45 1150.07 1898.97 996.322 c 0
 1954 843.907 1954 843.907 1954 666 c 0
 1954 581.075 1954 581.075 1940.41 492.745 c 0
 1926.77 404.158 1926.77 404.158 1899.51 320.237 c 0
 1871.97 235.516 1871.97 235.516 1830.55 161.178 c 0
 1788.15 85.0772 1788.15 85.0772 1730.73 27.1089 c 0
 1671.76 -32.429 1671.76 -32.429 1597.39 -66.7957 c 0
 1521.22 -102 1521.22 -102 1430 -102 c 0
 1367.69 -102 1367.69 -102 1319.67 -87.9466 c 0
 1271.1 -73.7294 1271.1 -73.7294 1234.05 -48.8275 c 0
 1196.45 -23.5542 1196.45 -23.5542 1169.79 11.7858 c 0
 1165.93 16.8978 1165.93 16.8978 1162.2 22.2131 c 1
 1122.83 -9.93747 1122.83 -9.93747 1077.54 -32.2495 c 0
 998.877 -71 998.877 -71 911 -71 c 2
 881 -71 l 2
 813.701 -71 813.701 -71 756.709 -47.0034 c 0
 700 -23.1257 700 -23.1257 658.438 18.4376 c 0
 616.776 60.0995 616.776 60.0995 593.393 116.456 c 0
 570 172.837 570 172.837 570 238 c 2
 570 259.5 l 2
 570 273.891 570 273.891 572.609 288.924 c 2
 635.497 750.107 l 2
 645.925 821.937 645.925 821.937 682.244 885.346 c 0
 718.013 947.795 718.013 947.795 771.474 994.432 c 0
 824.971 1041.1 824.971 1041.1 891.489 1067.82 c 0
 959.13 1095 959.13 1095 1030 1095 c 2
 1061 1095 l 2
 1149.47 1095 1149.47 1095 1220.18 1054.85 c 0
 1258.34 1033.18 1258.34 1033.18 1287.46 1002.97 c 1
 1345.63 1075 l 1
 1469.5 1075 l 1
 1355.52 247.016 l 2
793.938 269.938 m 2
 793.575 261.225 793.575 261.225 792.306 253.616 c 0
 792 251.779 792 251.779 792 250 c 0
 792 227.064 792 227.064 799.676 208.376 c 0
 807.293 189.833 807.293 189.833 821.062 176.062 c 0
 834.717 162.408 834.717 162.408 853.584 154.795 c 0
 872.902 147 872.902 147 897 147 c 2
 979 147 l 2
 1005.91 147 1005.91 147 1030.58 157.159 c 0
 1056.8 167.956 1056.8 167.956 1077.97 186.425 c 0
 1098.95 204.739 1098.95 204.739 1113.18 229.73 c 0
 1126.94 253.907 1126.94 253.907 1131.58 281.66 c 2
 1199.15 761.714 l 1
 1200 764.276 l 1
 1200 776 l 2
 1200 797.933 1200 797.933 1192.32 816.624 c 0
 1184.71 835.167 1184.71 835.167 1171.44 848.438 c 0
 1158.28 861.593 1158.28 861.593 1139.42 869.205 c 0
 1120.1 877 1120.1 877 1096 877 c 2
 1014 877 l 2
 986.953 877 986.953 877 961.677 866.743 c 0
 935.094 855.955 935.094 855.955 914.034 837.575 c 0
 893.045 819.258 893.045 819.258 878.822 794.27 c 0
 865.216 770.366 865.216 770.366 861.514 742.976 c 2
 793.938 269.938 l 2
EndSplineSet
EndChar

StartChar: A
Encoding: 65 65 36
Width: 1154
Flags: HW
LayerCount: 2
Fore
SplineSet
928.562 0 m 1,0,-1
 816.438 334 l 1,1,-1
 371.652 334 l 1,2,-1
 260.708 -0 l 1,3,-1
 20 0 l 1,4,-1
 507.578 1434 l 1,5,-1
 677.959 1434 l 1,6,-1
 1168.25 0 l 1,7,-1
 928.562 0 l 1,0,-1
594.121 946.059 m 1,8,-1
 447.07 508 l 1,9,-1
 741.953 508 l 1,10,-1
 594.121 946.059 l 1,8,-1
EndSplineSet
EndChar

StartChar: B
Encoding: 66 66 37
Width: 1257
Flags: HW
LayerCount: 2
Fore
SplineSet
1175 462.906 m 2,0,-1
 1175 377.278 l 2,1,2
 1175 299.569 1175 299.569 1143.36 231.026 c 0,3,4
 1111.99 163.084 1111.99 163.084 1057.06 111.957 c 128,-1,5
 1002.09 60.7871 1002.09 60.7871 928.026 31.5859 c 0,6,7
 806.192 0 806.192 0 669 0 c 2,8,-1
 164 0 l 1,9,-1
 164 1434 l 1,10,-1
 669 1434 l 2,11,12
 806.196 1434 806.196 1434 928.026 1402.41 c 0,13,14
 1002.09 1373.21 1002.09 1373.21 1057.06 1322.04 c 128,-1,15
 1112.05 1270.86 1112.05 1270.86 1143.41 1202.39 c 0,16,17
 1175 1133.43 1175 1133.43 1175 1055.79 c 2,18,-1
 1175 1042.76 l 2,19,20
 1175 988.541 1175 988.541 1159.48 938.778 c 128,-1,21
 1144 889.164 1144 889.164 1115.25 846.346 c 0,22,23
 1086.86 804.065 1086.86 804.065 1048.24 769.711 c 0,24,25
 1038.66 761.185 1038.66 761.185 1028.48 753.299 c 1,26,27
 1038.65 745.414 1038.65 745.414 1048.24 736.887 c 0,28,29
 1086.96 702.437 1086.96 702.437 1115.4 659.562 c 0,30,31
 1144.04 616.371 1144.04 616.371 1159.48 566.889 c 0,32,33
 1175 517.127 1175 517.127 1175 462.906 c 2,0,-1
944 383.644 m 2,34,-1
 944 484.356 l 2,35,36
 944 517.701 944 517.701 930.212 546.037 c 0,37,38
 907.727 574.915 907.727 574.915 867.547 596.343 c 0,39,40
 826.865 618.038 826.865 618.038 772.948 630.711 c 0,41,42
 720.663 643 720.663 643 663 643 c 2,43,-1
 395 643 l 1,44,-1
 395 225 l 1,45,-1
 663 225 l 2,46,47
 720.667 225 720.667 225 772.948 237.289 c 0,48,49
 826.869 249.964 826.869 249.964 867.547 271.657 c 0,50,51
 907.727 293.086 907.727 293.086 930.212 321.963 c 0,52,53
 944 350.299 944 350.299 944 383.644 c 2,34,-1
944 1023.71 m 2,54,-1
 944 1053.29 l 2,55,56
 944 1085.83 944 1085.83 930.212 1113.49 c 0,57,58
 907.596 1141.84 907.596 1141.84 867.07 1163.28 c 128,-1,59
 826.563 1184.7 826.563 1184.7 772.948 1197.01 c 0,60,61
 720.671 1209 720.671 1209 663 1209 c 2,62,-1
 395 1209 l 1,63,-1
 395 868 l 1,64,-1
 663 868 l 2,65,66
 720.663 868 720.663 868 772.948 879.994 c 0,67,68
 826.551 892.291 826.551 892.291 867.07 913.724 c 128,-1,69
 907.591 935.157 907.591 935.157 930.212 963.51 c 0,70,71
 944 991.166 944 991.166 944 1023.71 c 2,54,-1
EndSplineSet
EndChar

StartChar: C
Encoding: 67 67 38
Width: 1277
Flags: HW
LayerCount: 2
Fore
SplineSet
1154 483.369 m 1,0,-1
 1154 383 l 2,1,2
 1154 299.509 1154 299.509 1122.36 225.866 c 0,3,4
 1090.99 152.869 1090.99 152.869 1036.06 97.9375 c 128,-1,5
 981.138 43.0117 981.138 43.0117 908.108 11.6426 c 0,6,7
 816.476 -20 816.476 -20 712.583 -20 c 2,8,-1
 585.662 -20 l 2,9,10
 481.864 -20 481.864 -20 389.678 11.5859 c 0,11,12
 315.918 40.8418 315.918 40.8418 260.938 92.1152 c 128,-1,13
 206.01 143.34 206.01 143.34 174.643 211.418 c 0,14,15
 143 280.095 143 280.095 143 357.958 c 2,16,-1
 143 1076.04 l 2,17,18
 143 1153.9 143 1153.9 174.643 1222.58 c 0,19,20
 206.004 1290.65 206.004 1290.65 260.938 1341.88 c 128,-1,21
 315.91 1393.15 315.91 1393.15 389.678 1422.41 c 0,22,23
 481.86 1454 481.86 1454 585.662 1454 c 2,24,-1
 712.583 1454 l 2,25,26
 816.474 1454 816.474 1454 908.108 1422.36 c 0,27,28
 981.143 1390.99 981.143 1390.99 1036.06 1336.06 c 128,-1,29
 1091 1281.12 1091 1281.12 1122.36 1208.13 c 0,30,31
 1154 1134.49 1154 1134.49 1154 1051 c 2,32,-1
 1154 949.298 l 1,33,-1
 923 913.483 l 1,34,-1
 923 1051 l 2,35,36
 923 1088.41 923 1088.41 909.212 1120.21 c 0,37,38
 891.864 1152.79 891.864 1152.79 861.824 1176.94 c 128,-1,39
 831.797 1201.07 831.797 1201.07 791.231 1215.21 c 0,40,41
 751.678 1229 751.678 1229 705.117 1229 c 2,42,-1
 593.128 1229 l 2,43,44
 546.566 1229 546.566 1229 507.013 1216.46 c 0,45,46
 466.212 1203.52 466.212 1203.52 435.438 1181.39 c 0,47,48
 405.037 1159.52 405.037 1159.52 387.788 1130.05 c 0,49,50
 374 1101.14 374 1101.14 374 1067.11 c 2,51,-1
 374 366.8 l 2,52,53
 374 332.77 374 332.77 387.788 303.856 c 0,54,55
 405.142 274.213 405.142 274.213 435.799 251.806 c 128,-1,56
 466.453 229.399 466.453 229.399 507.013 216.541 c 0,57,58
 546.57 204 546.57 204 593.128 204 c 2,59,-1
 705.117 204 l 2,60,61
 751.674 204 751.674 204 791.231 217.788 c 0,62,63
 831.549 231.842 831.549 231.842 861.466 256.272 c 0,64,65
 891.755 281.008 891.755 281.008 909.212 313.794 c 0,66,67
 923 345.586 923 345.586 923 383 c 2,68,-1
 923 520.974 l 1,69,-1
 1154 483.369 l 1,0,-1
EndSplineSet
EndChar

StartChar: D
Encoding: 68 68 39
Width: 1318
Flags: HW
LayerCount: 2
Fore
SplineSet
1175 1055.79 m 2,0,-1
 1175 377.278 l 2,1,2
 1175 299.569 1175 299.569 1143.36 231.026 c 0,3,4
 1111.99 163.084 1111.99 163.084 1057.06 111.957 c 128,-1,5
 1002.09 60.7871 1002.09 60.7871 928.026 31.5859 c 0,6,7
 806.192 0 806.192 0 669 0 c 2,8,-1
 164 0 l 1,9,-1
 164 1434 l 1,10,-1
 669 1434 l 2,11,12
 806.196 1434 806.196 1434 928.026 1402.41 c 0,13,14
 1002.09 1373.21 1002.09 1373.21 1057.06 1322.04 c 128,-1,15
 1112.05 1270.86 1112.05 1270.86 1143.41 1202.39 c 0,16,17
 1175 1133.43 1175 1133.43 1175 1055.79 c 2,0,-1
944 386.282 m 2,18,-1
 944 1046.81 l 2,19,20
 944 1080.71 944 1080.71 930.212 1109.52 c 0,21,22
 907.596 1139.04 907.596 1139.04 867.07 1161.37 c 128,-1,23
 826.563 1183.69 826.563 1183.69 772.948 1196.51 c 0,24,25
 720.671 1209 720.671 1209 663 1209 c 2,26,-1
 395 1209 l 1,27,-1
 395 225 l 1,28,-1
 663 225 l 2,29,30
 720.667 225 720.667 225 772.948 237.493 c 0,31,32
 826.869 250.379 826.869 250.379 867.547 272.433 c 0,33,34
 907.727 294.219 907.727 294.219 930.212 323.575 c 0,35,36
 944 352.382 944 352.382 944 386.282 c 2,18,-1
EndSplineSet
EndChar

StartChar: E
Encoding: 69 69 40
Width: 1257
Flags: HW
LayerCount: 2
Fore
SplineSet
1175 0 m 1,0,-1
 164 0 l 1,1,-1
 164 1434 l 1,2,-1
 1175 1434 l 1,3,-1
 1175 1209 l 1,4,-1
 395 1209 l 1,5,-1
 395 829 l 1,6,-1
 1046 829 l 1,7,-1
 1046 604 l 1,8,-1
 395 604 l 1,9,-1
 395 225 l 1,10,-1
 1175 225 l 1,11,-1
 1175 0 l 1,0,-1
EndSplineSet
EndChar

StartChar: F
Encoding: 70 70 41
Width: 1216
Flags: HW
LayerCount: 2
Fore
SplineSet
1175 1209 m 1,0,-1
 395 1209 l 1,1,-1
 395 829 l 1,2,-1
 1046 829 l 1,3,-1
 1046 604 l 1,4,-1
 395 604 l 1,5,-1
 395 0 l 1,6,-1
 164 0 l 1,7,-1
 164 1434 l 1,8,-1
 1175 1434 l 1,9,-1
 1175 1209 l 1,0,-1
EndSplineSet
EndChar

StartChar: G
Encoding: 71 71 42
Width: 1298
Flags: HW
LayerCount: 2
Fore
SplineSet
1154 805 m 1,0,-1
 1154 0 l 1,1,-1
 1034.37 0 l 1,2,-1
 980.451 82.6807 l 1,3,4
 942.475 47.2705 942.475 47.2705 894.75 22.7148 c 0,5,6
 797.182 -20 797.182 -20 678.986 -20 c 2,7,-1
 585.662 -20 l 2,8,9
 481.864 -20 481.864 -20 389.678 11.5859 c 0,10,11
 315.918 40.8418 315.918 40.8418 260.938 92.1152 c 128,-1,12
 206.01 143.34 206.01 143.34 174.643 211.418 c 0,13,14
 143 280.095 143 280.095 143 357.958 c 2,15,-1
 143 1076.04 l 2,16,17
 143 1153.9 143 1153.9 174.643 1222.58 c 0,18,19
 206.004 1290.65 206.004 1290.65 260.938 1341.88 c 128,-1,20
 315.91 1393.15 315.91 1393.15 389.678 1422.41 c 0,21,22
 481.86 1454 481.86 1454 585.662 1454 c 2,23,-1
 712.583 1454 l 2,24,25
 816.474 1454 816.474 1454 908.108 1422.36 c 0,26,27
 981.143 1390.99 981.143 1390.99 1036.06 1336.06 c 128,-1,28
 1091 1281.12 1091 1281.12 1122.36 1208.13 c 0,29,30
 1154 1134.49 1154 1134.49 1154 1051 c 2,31,-1
 1154 949.298 l 1,32,-1
 923 913.483 l 1,33,-1
 923 1051 l 2,34,35
 923 1088.41 923 1088.41 909.212 1120.21 c 0,36,37
 891.864 1152.79 891.864 1152.79 861.824 1176.94 c 128,-1,38
 831.797 1201.07 831.797 1201.07 791.231 1215.21 c 0,39,40
 751.678 1229 751.678 1229 705.117 1229 c 2,41,-1
 593.128 1229 l 2,42,43
 546.566 1229 546.566 1229 507.013 1216.46 c 0,44,45
 466.212 1203.52 466.212 1203.52 435.438 1181.39 c 0,46,47
 405.037 1159.52 405.037 1159.52 387.788 1130.05 c 0,48,49
 374 1101.14 374 1101.14 374 1067.11 c 2,50,-1
 374 366.8 l 2,51,52
 374 332.77 374 332.77 387.788 303.856 c 0,53,54
 405.142 274.213 405.142 274.213 435.799 251.806 c 128,-1,55
 466.453 229.399 466.453 229.399 507.013 216.541 c 0,56,57
 546.57 204 546.57 204 593.128 204 c 2,58,-1
 705.117 204 l 2,59,60
 751.674 204 751.674 204 791.231 216.142 c 0,61,62
 831.549 228.517 831.549 228.517 861.466 250.029 c 0,63,64
 866.238 253.461 866.238 253.461 870.685 257.056 c 0,65,66
 894.521 276.323 894.521 276.323 909.212 300.681 c 0,67,68
 923 328.676 923 328.676 923 361.621 c 2,69,-1
 923 580 l 1,70,-1
 641.656 580 l 1,71,-1
 641.656 805 l 1,72,-1
 1154 805 l 1,0,-1
EndSplineSet
EndChar

StartChar: H
Encoding: 72 72 43
Width: 1339
Flags: HW
LayerCount: 2
Fore
SplineSet
1175 0 m 1,0,-1
 944 0 l 1,1,-1
 944 604 l 1,2,-1
 395 604 l 1,3,-1
 395 0 l 1,4,-1
 164 0 l 1,5,-1
 164 1434 l 1,6,-1
 395 1434 l 1,7,-1
 395 829 l 1,8,-1
 944 829 l 1,9,-1
 944 1434 l 1,10,-1
 1175 1434 l 1,11,-1
 1175 0 l 1,0,-1
EndSplineSet
EndChar

StartChar: I
Encoding: 73 73 44
Width: 559
Flags: HW
LayerCount: 2
Fore
SplineSet
395 0 m 1,0,-1
 164 0 l 1,1,-1
 164 1434 l 1,2,-1
 395 1434 l 1,3,-1
 395 0 l 1,0,-1
EndSplineSet
EndChar

StartChar: J
Encoding: 74 74 45
Width: 1134
Flags: HW
LayerCount: 2
Fore
SplineSet
1011 1434 m 1,0,-1
 1011 358.151 l 2,1,2
 1011 280.247 1011 280.247 979.357 211.531 c 0,3,4
 947.992 143.419 947.992 143.419 893.062 92.1631 c 128,-1,5
 838.138 40.9131 838.138 40.9131 761.049 11.6426 c 0,6,7
 667.177 -20 667.177 -20 560.742 -20 c 2,8,-1
 508.477 -20 l 2,9,10
 402.141 -20 402.141 -20 307.701 11.5859 c 0,11,12
 233.916 42.958 233.916 42.958 178.938 97.9375 c 128,-1,13
 124.01 152.865 124.01 152.865 92.6426 225.866 c 0,14,15
 61 299.507 61 299.507 61 383 c 2,16,-1
 61 483.369 l 1,17,-1
 292 520.974 l 1,18,-1
 292 383 l 2,19,20
 292 345.584 292 345.584 305.788 313.794 c 0,21,22
 323.543 281.199 323.543 281.199 354.949 256.562 c 128,-1,23
 386.353 231.927 386.353 231.927 427.905 217.788 c 0,24,25
 468.43 204 468.43 204 516.126 204 c 2,26,-1
 553.094 204 l 2,27,28
 599.663 204 599.663 204 640.937 216.813 c 0,29,30
 682.723 229.786 682.723 229.786 713.267 252.27 c 0,31,32
 744.297 275.11 744.297 275.11 762.424 305.386 c 0,33,34
 780 334.744 780 334.744 780 369.293 c 2,35,-1
 780 1434 l 1,36,-1
 1011 1434 l 1,0,-1
EndSplineSet
EndChar

StartChar: K
Encoding: 75 75 46
Width: 1269
Flags: HW
LayerCount: 2
Fore
SplineSet
395 0 m 1,0,-1
 164 0 l 1,1,-1
 164 1434 l 1,2,-1
 395 1434 l 1,3,-1
 395 777.329 l 1,4,-1
 991.563 1434 l 1,5,-1
 1280.51 1434 l 1,6,-1
 628.191 717 l 1,7,-1
 1280.51 -0 l 1,8,-1
 991.563 0 l 1,9,-1
 395 656.671 l 1,10,-1
 395 0 l 1,0,-1
EndSplineSet
EndChar

StartChar: L
Encoding: 76 76 47
Width: 1066
Flags: HW
LayerCount: 2
Fore
SplineSet
1025 0 m 1,0,-1
 143 0 l 1,1,-1
 143 1434 l 1,2,-1
 374 1434 l 1,3,-1
 374 225 l 1,4,-1
 1025 225 l 1,5,-1
 1025 0 l 1,0,-1
EndSplineSet
EndChar

StartChar: M
Encoding: 77 77 48
Width: 1645
Flags: HW
LayerCount: 2
Fore
SplineSet
1482 0 m 1,0,-1
 1251 0 l 1,1,-1
 1251 706.577 l 1,2,-1
 893.805 0 l 1,3,-1
 754.305 0 l 1,4,-1
 395 706.057 l 1,5,-1
 395 0 l 1,6,-1
 164 0 l 1,7,-1
 164 1434 l 1,8,-1
 317.513 1434 l 1,9,-1
 822.949 343.328 l 1,10,-1
 1225.46 1434 l 1,11,-1
 1380 1434 l 1,12,-1
 1482 0 l 1,0,-1
EndSplineSet
EndChar

StartChar: N
Encoding: 78 78 49
Width: 1339
Flags: HW
LayerCount: 2
Fore
SplineSet
1046.15 0 m 1,0,-1
 1021.54 8.55078 l 1,1,-1
 411.042 924.305 l 1,2,-1
 411.042 0 l 1,3,-1
 164 0 l 1,4,-1
 164 1434 l 1,5,-1
 311.575 1434 l 1,6,-1
 944 507.088 l 1,7,-1
 944 1434 l 1,8,-1
 1175 1434 l 1,9,-1
 1175 0 l 1,10,-1
 1046.15 0 l 1,0,-1
EndSplineSet
EndChar

StartChar: O
Encoding: 79 79 50
Width: 1298
Flags: HW
LayerCount: 2
Fore
SplineSet
1154 1076.04 m 2,0,-1
 1154 357.96 l 2,1,2
 1154 280.099 1154 280.099 1122.36 211.421 c 0,3,4
 1090.99 143.346 1090.99 143.346 1036.06 92.1191 c 128,-1,5
 981.138 40.8965 981.138 40.8965 908.108 11.6426 c 0,6,7
 816.476 -20 816.476 -20 712.583 -20 c 2,8,-1
 585.662 -20 l 2,9,10
 481.864 -20 481.864 -20 389.678 11.5859 c 0,11,12
 315.918 40.8418 315.918 40.8418 260.938 92.1152 c 128,-1,13
 206.01 143.34 206.01 143.34 174.643 211.418 c 0,14,15
 143 280.095 143 280.095 143 357.958 c 2,16,-1
 143 1076.04 l 2,17,18
 143 1153.9 143 1153.9 174.643 1222.58 c 0,19,20
 206.004 1290.65 206.004 1290.65 260.938 1341.88 c 128,-1,21
 315.91 1393.15 315.91 1393.15 389.678 1422.41 c 0,22,23
 481.86 1454 481.86 1454 585.662 1454 c 2,24,-1
 712.583 1454 l 2,25,26
 816.474 1454 816.474 1454 908.108 1422.36 c 0,27,28
 981.143 1393.1 981.143 1393.1 1036.06 1341.88 c 128,-1,29
 1091 1290.65 1091 1290.65 1122.36 1222.58 c 0,30,31
 1154 1153.9 1154 1153.9 1154 1076.04 c 2,0,-1
923 366.8 m 2,32,-1
 923 1067.11 l 2,33,34
 923 1101.14 923 1101.14 909.212 1130.05 c 0,35,36
 891.864 1159.69 891.864 1159.69 861.824 1181.65 c 128,-1,37
 831.797 1203.6 831.797 1203.6 791.231 1216.46 c 0,38,39
 751.678 1229 751.678 1229 705.117 1229 c 2,40,-1
 593.128 1229 l 2,41,42
 546.566 1229 546.566 1229 507.013 1216.46 c 0,43,44
 466.212 1203.52 466.212 1203.52 435.438 1181.39 c 0,45,46
 405.037 1159.52 405.037 1159.52 387.788 1130.05 c 0,47,48
 374 1101.14 374 1101.14 374 1067.11 c 2,49,-1
 374 366.8 l 2,50,51
 374 332.77 374 332.77 387.788 303.856 c 0,52,53
 405.142 274.213 405.142 274.213 435.799 251.806 c 128,-1,54
 466.453 229.399 466.453 229.399 507.013 216.541 c 0,55,56
 546.57 204 546.57 204 593.128 204 c 2,57,-1
 705.117 204 l 2,58,59
 751.674 204 751.674 204 791.231 216.541 c 0,60,61
 831.549 229.322 831.549 229.322 861.466 251.542 c 0,62,63
 891.755 274.038 891.755 274.038 909.212 303.856 c 0,64,65
 923 332.771 923 332.771 923 366.8 c 2,32,-1
EndSplineSet
EndChar

StartChar: P
Encoding: 80 80 51
Width: 1257
Flags: HW
LayerCount: 2
Fore
SplineSet
1175 1049.92 m 2,0,-1
 1175 881.442 l 2,1,2
 1175 802.417 1175 802.417 1143.36 732.714 c 0,3,4
 1111.99 663.619 1111.99 663.619 1057.06 611.629 c 128,-1,5
 1002.09 559.593 1002.09 559.593 928.026 529.896 c 0,6,7
 806.196 500 806.196 500 669 500 c 2,8,-1
 395 500 l 1,9,-1
 395 0 l 1,10,-1
 164 0 l 1,11,-1
 164 1434 l 1,12,-1
 669 1434 l 2,13,14
 806.196 1434 806.196 1434 928.026 1402.41 c 0,15,16
 1002.09 1372.71 1002.09 1372.71 1057.06 1320.68 c 128,-1,17
 1112.05 1268.63 1112.05 1268.63 1143.41 1199 c 0,18,19
 1175 1128.88 1175 1128.88 1175 1049.92 c 2,0,-1
944 886.032 m 2,20,-1
 944 1047.06 l 2,21,22
 944 1080.91 944 1080.91 930.212 1109.67 c 0,23,24
 907.596 1139.15 907.596 1139.15 867.07 1161.45 c 128,-1,25
 826.563 1183.73 826.563 1183.73 772.948 1196.53 c 0,26,27
 720.671 1209 720.671 1209 663 1209 c 2,28,-1
 395 1209 l 1,29,-1
 395 725 l 1,30,-1
 663 725 l 2,31,32
 720.663 725 720.663 725 772.948 737.474 c 0,33,34
 826.865 750.337 826.865 750.337 867.547 772.359 c 0,35,36
 907.727 794.11 907.727 794.11 930.212 823.423 c 0,37,38
 944 852.185 944 852.185 944 886.032 c 2,20,-1
EndSplineSet
EndChar

StartChar: Q
Encoding: 81 81 52
Width: 1298
Flags: HW
LayerCount: 2
Fore
SplineSet
1154 1076.18 m 2,0,-1
 1154 358.378 l 2,1,2
 1154 283.9 1154 283.9 1125.3 217.547 c 0,3,4
 1096.74 151.521 1096.74 151.521 1046.23 101.225 c 0,5,6
 995.925 51.1299 995.925 51.1299 928.154 19.8076 c 0,7,8
 887.228 1.5625 887.228 1.5625 837.511 -8.625 c 1,9,-1
 987.45 -315 l 1,10,-1
 707.412 -315 l 1,11,-1
 543.674 -18.6748 l 1,12,13
 462.451 -13.3486 462.451 -13.3486 389.678 11.5859 c 0,14,15
 315.918 40.8418 315.918 40.8418 260.938 92.1152 c 128,-1,16
 206.01 143.34 206.01 143.34 174.643 211.418 c 0,17,18
 143 280.095 143 280.095 143 357.958 c 2,19,-1
 143 1076.04 l 2,20,21
 143 1153.9 143 1153.9 174.643 1222.58 c 0,22,23
 206.004 1290.65 206.004 1290.65 260.938 1341.88 c 128,-1,24
 315.91 1393.15 315.91 1393.15 389.678 1422.41 c 0,25,26
 481.86 1454 481.86 1454 585.662 1454 c 2,27,-1
 712.583 1454 l 2,28,29
 816.474 1454 816.474 1454 908.108 1422.36 c 0,30,31
 981.143 1393.11 981.143 1393.11 1036.06 1341.91 c 128,-1,32
 1091 1290.7 1091 1290.7 1122.36 1222.66 c 0,33,34
 1154 1154 1154 1154 1154 1076.18 c 2,0,-1
923 366.8 m 2,35,-1
 923 1067.11 l 2,36,37
 923 1101.14 923 1101.14 909.212 1130.05 c 0,38,39
 891.864 1159.69 891.864 1159.69 861.824 1181.65 c 128,-1,40
 831.797 1203.6 831.797 1203.6 791.231 1216.46 c 0,41,42
 751.678 1229 751.678 1229 705.117 1229 c 2,43,-1
 593.128 1229 l 2,44,45
 546.566 1229 546.566 1229 507.013 1216.46 c 0,46,47
 466.212 1203.52 466.212 1203.52 435.438 1181.39 c 0,48,49
 405.037 1159.52 405.037 1159.52 387.788 1130.05 c 0,50,51
 374 1101.14 374 1101.14 374 1067.11 c 2,52,-1
 374 366.8 l 2,53,54
 374 332.77 374 332.77 387.788 303.856 c 0,55,56
 405.142 274.213 405.142 274.213 435.799 251.806 c 128,-1,57
 466.453 229.399 466.453 229.399 507.013 216.541 c 0,58,59
 546.57 204 546.57 204 593.128 204 c 2,60,-1
 705.117 204 l 2,61,62
 751.674 204 751.674 204 791.231 216.541 c 0,63,64
 831.549 229.322 831.549 229.322 861.466 251.542 c 0,65,66
 891.755 274.038 891.755 274.038 909.212 303.856 c 0,67,68
 923 332.771 923 332.771 923 366.8 c 2,35,-1
EndSplineSet
EndChar

StartChar: R
Encoding: 82 82 53
Width: 1273
Flags: HW
LayerCount: 2
Fore
SplineSet
1232.85 0 m 1,0,-1
 962.986 0 l 1,1,-1
 492.51 561 l 1,2,-1
 374 561 l 1,3,-1
 374 0 l 1,4,-1
 143 0 l 1,5,-1
 143 1434 l 1,6,-1
 706.599 1434 l 2,7,8
 807.579 1434 807.579 1434 896.645 1402.36 c 0,9,10
 981.143 1373.11 981.143 1373.11 1036.06 1321.91 c 128,-1,11
 1091.05 1270.65 1091.05 1270.65 1122.41 1202.07 c 0,12,13
 1154 1133.01 1154 1133.01 1154 1055.25 c 2,14,-1
 1154 947.112 l 2,15,16
 1154 869.346 1154 869.346 1122.41 800.289 c 0,17,18
 1091.04 731.695 1091.04 731.695 1036.06 680.445 c 128,-1,19
 981.135 629.242 981.135 629.242 896.645 600.002 c 0,20,21
 855.808 586.477 855.808 586.477 811.84 579.058 c 1,22,-1
 1232.85 0 l 1,0,-1
914.625 945.74 m 2,23,-1
 914.625 1049.26 l 2,24,25
 914.625 1082.65 914.625 1082.65 897.949 1111.02 c 0,26,27
 880.753 1140.28 880.753 1140.28 851.31 1162.35 c 0,28,29
 822.236 1184.15 822.236 1184.15 783.044 1196.7 c 0,30,31
 744.599 1209 744.599 1209 699.342 1209 c 2,32,-1
 374 1209 l 1,33,-1
 374 786 l 1,34,-1
 699.342 786 l 2,35,36
 744.593 786 744.593 786 783.044 798.305 c 0,37,38
 822.232 810.846 822.232 810.846 851.31 832.648 c 0,39,40
 880.752 854.724 880.752 854.724 897.949 883.98 c 0,41,42
 914.625 912.353 914.625 912.353 914.625 945.74 c 2,23,-1
EndSplineSet
EndChar

StartChar: S
Encoding: 83 83 54
Width: 1267
Flags: HW
LayerCount: 2
Fore
SplineSet
1154 393.957 m 2,0,-1
 1154 354.281 l 2,1,2
 1154 276.605 1154 276.605 1119.82 208.173 c 0,3,4
 1086.34 141.151 1086.34 141.151 1030 90.7461 c 128,-1,5
 973.603 40.2822 973.603 40.2822 897.146 11.4766 c 0,6,7
 804.692 -20 804.692 -20 702.007 -20 c 2,8,-1
 574.993 -20 l 2,9,10
 472.305 -20 472.305 -20 379.854 11.4766 c 0,11,12
 303.396 42.6973 303.396 42.6973 246.996 97.3867 c 128,-1,13
 190.666 152.011 190.666 152.011 157.184 224.651 c 0,14,15
 123 298.812 123 298.812 123 383 c 2,16,-1
 123 483.369 l 1,17,-1
 354 520.974 l 1,18,-1
 354 383 l 2,19,20
 354 346.386 354 346.386 368.658 315.188 c 0,21,22
 387.685 282.312 387.685 282.312 419.879 257.391 c 128,-1,23
 452.064 232.478 452.064 232.478 494.838 218.125 c 0,24,25
 536.931 204 536.931 204 583.625 204 c 2,26,-1
 694.608 204 l 2,27,28
 741.168 204 741.168 204 782.541 216.96 c 0,29,30
 824.842 230.21 824.842 230.21 857.121 253.267 c 128,-1,31
 889.314 276.263 889.314 276.263 908.342 306.6 c 0,32,33
 923 335.384 923 335.384 923 369.173 c 2,34,-1
 923 408.851 l 2,35,36
 923 464.254 923 464.254 899.448 498.381 c 0,37,38
 870.398 535.109 870.398 535.109 821.912 561.186 c 0,39,40
 769.016 589.634 769.016 589.634 701.63 609.636 c 0,41,42
 627.604 631.609 627.604 631.609 549.211 653.608 c 0,43,44
 467.694 676.483 467.694 676.483 390.581 704.14 c 0,45,46
 319.258 733.863 319.258 733.863 265.753 778.606 c 0,47,48
 210.03 825.203 210.03 825.203 176.673 892.072 c 0,49,50
 143 959.572 143 959.572 143 1054.78 c 2,51,-1
 143 1079.69 l 2,52,53
 143 1156.73 143 1156.73 174.643 1224.69 c 0,54,55
 206.004 1292.04 206.004 1292.04 260.938 1342.73 c 128,-1,56
 315.91 1393.46 315.91 1393.46 394.333 1422.41 c 0,57,58
 485.688 1454 485.688 1454 588.557 1454 c 2,59,-1
 702.007 1454 l 2,60,61
 804.966 1454 804.966 1454 895.777 1422.36 c 0,62,63
 971.143 1390.99 971.143 1390.99 1026.06 1336.06 c 128,-1,64
 1081 1281.12 1081 1281.12 1112.36 1208.13 c 0,65,66
 1144 1134.49 1144 1134.49 1144 1051 c 2,67,-1
 1144 970.631 l 1,68,-1
 913 933.026 l 1,69,-1
 913 1051 l 2,70,71
 913 1088.41 913 1088.41 897.107 1120.21 c 0,72,73
 879.679 1152.79 879.679 1152.79 849.909 1176.94 c 128,-1,74
 820.152 1201.07 820.152 1201.07 779.95 1215.21 c 0,75,76
 740.751 1229 740.751 1229 694.608 1229 c 2,77,-1
 595.956 1229 l 2,78,79
 549.813 1229 549.813 1229 510.615 1216.28 c 0,80,81
 470.179 1203.15 470.179 1203.15 439.682 1180.7 c 0,82,83
 409.554 1158.51 409.554 1158.51 392.225 1128.62 c 0,84,85
 375.222 1099.28 375.222 1099.28 375.222 1064.76 c 2,86,-1
 375.222 1039.85 l 2,87,88
 375.222 989.528 375.222 989.528 401.614 957.523 c 0,89,90
 430.535 922.455 430.535 922.455 479.039 897.125 c 0,91,92
 532.409 869.254 532.409 869.254 600.448 848.637 c 0,93,94
 674.88 826.082 674.88 826.082 753.648 802.601 c 0,95,96
 835.102 778.317 835.102 778.317 911.458 749.233 c 0,97,98
 978.387 718.103 978.387 718.103 1031.67 672.521 c 0,99,100
 1087.21 625.012 1087.21 625.012 1120.45 557.32 c 0,101,102
 1154 489.01 1154 489.01 1154 393.957 c 2,0,-1
EndSplineSet
EndChar

StartChar: T
Encoding: 84 84 55
Width: 1099
Flags: HW
LayerCount: 2
Fore
SplineSet
1058 1209 m 1,0,-1
 692.82 1209 l 1,1,-1
 716 0 l 1,2,-1
 485 0 l 1,3,-1
 406.181 1209 l 1,4,-1
 41 1209 l 1,5,-1
 41 1434 l 1,6,-1
 1058 1434 l 1,7,-1
 1058 1209 l 1,0,-1
EndSplineSet
EndChar

StartChar: U
Encoding: 85 85 56
Width: 1298
Flags: HW
LayerCount: 2
Fore
SplineSet
1154 1434 m 1,0,-1
 1154 358.151 l 2,1,2
 1154 280.247 1154 280.247 1122.36 211.531 c 0,3,4
 1090.99 143.419 1090.99 143.419 1036.06 92.1631 c 128,-1,5
 981.138 40.9131 981.138 40.9131 904.742 11.6426 c 0,6,7
 814.298 -20 814.298 -20 711.752 -20 c 2,8,-1
 586.477 -20 l 2,9,10
 484.025 -20 484.025 -20 393.035 11.5859 c 0,11,12
 315.918 40.8574 315.918 40.8574 260.938 92.1602 c 128,-1,13
 206.01 143.412 206.01 143.412 174.643 211.528 c 0,14,15
 143 280.242 143 280.242 143 358.148 c 2,16,-1
 143 1434 l 1,17,-1
 374 1434 l 1,18,-1
 374 369.293 l 2,19,20
 374 334.742 374 334.742 390.934 305.386 c 0,21,22
 408.298 275.288 408.298 275.288 438.557 252.537 c 128,-1,23
 468.814 229.788 468.814 229.788 508.848 216.732 c 0,24,25
 547.892 204 547.892 204 593.846 204 c 2,26,-1
 704.383 204 l 2,27,28
 750.336 204 750.336 204 789.381 216.732 c 0,29,30
 829.176 229.71 829.176 229.71 858.705 252.27 c 0,31,32
 888.601 275.11 888.601 275.11 906.066 305.386 c 0,33,34
 923 334.744 923 334.744 923 369.293 c 2,35,-1
 923 1434 l 1,36,-1
 1154 1434 l 1,0,-1
EndSplineSet
EndChar

StartChar: V
Encoding: 86 86 57
Width: 1154
Flags: HW
LayerCount: 2
Fore
SplineSet
260.639 1434 m 1,0,-1
 594.07 436.742 l 1,1,-1
 928.554 1434 l 1,2,-1
 1168.25 1434 l 1,3,-1
 677.965 0 l 1,4,-1
 507.586 0 l 1,5,-1
 20 1434 l 1,6,-1
 260.639 1434 l 1,0,-1
EndSplineSet
EndChar

StartChar: W
Encoding: 87 87 58
Width: 1848
Flags: HW
LayerCount: 2
Fore
SplineSet
1837.55 1434 m 1,0,-1
 1329.59 -0 l 1,1,-1
 1183.83 0 l 1,2,-1
 939.479 944.996 l 1,3,-1
 594.881 0 l 1,4,-1
 449.101 0 l 1,5,-1
 41 1434 l 1,6,-1
 275.84 1434 l 1,7,-1
 520.912 483.362 l 1,8,-1
 863.624 1434 l 1,9,-1
 1015.02 1434 l 1,10,-1
 1256.14 481.722 l 1,11,-1
 1590.86 1395.69 l 2,12,13
 1592.91 1402.55 1592.91 1402.55 1596.96 1415.4 c 128,-1,14
 1601.01 1428.25 1601.01 1428.25 1602.76 1434 c 1,15,-1
 1837.55 1434 l 1,0,-1
EndSplineSet
EndChar

StartChar: X
Encoding: 88 88 59
Width: 1195
Flags: HW
LayerCount: 2
Fore
SplineSet
1196.34 0 m 1,0,-1
 943.508 0 l 1,1,-1
 629.17 532.031 l 1,2,-1
 314.832 0 l 1,3,-1
 61 0 l 1,4,-1
 475.737 735.708 l 1,5,-1
 82.126 1434 l 1,6,-1
 334.816 1434 l 1,7,-1
 629.179 943.038 l 1,8,-1
 922.472 1434 l 1,9,-1
 1175.21 1434 l 1,10,-1
 781.614 735.708 l 1,11,-1
 1196.34 0 l 1,0,-1
EndSplineSet
EndChar

StartChar: Y
Encoding: 89 89 60
Width: 1154
Flags: HW
LayerCount: 2
Fore
SplineSet
1175.06 1434 m 1,0,-1
 747.786 676.98 l 1,1,-1
 747.786 0 l 1,2,-1
 472.049 0 l 1,3,-1
 472.049 675.059 l 1,4,-1
 41 1434 l 1,5,-1
 293.789 1434 l 1,6,-1
 608.127 901.969 l 1,7,-1
 922.465 1434 l 1,8,-1
 1175.06 1434 l 1,0,-1
EndSplineSet
EndChar

StartChar: Z
Encoding: 90 90 61
Width: 1175
Flags: HW
LayerCount: 2
Fore
SplineSet
1093 0 m 1,0,-1
 82 0 l 1,1,-1
 82 114.61 l 1,2,-1
 776.825 1209 l 1,3,-1
 102 1209 l 1,4,-1
 102 1434 l 1,5,-1
 1093 1434 l 1,6,-1
 1093 1318.46 l 1,7,-1
 398.212 225 l 1,8,-1
 1093 225 l 1,9,-1
 1093 0 l 1,0,-1
EndSplineSet
EndChar

StartChar: bracketleft
Encoding: 91 91 62
Width: 633
Flags: HW
LayerCount: 2
Fore
SplineSet
581 -461 m 1
 113 -461 l 1
 113 1657 l 1
 581 1657 l 1
 581 1444 l 1
 338 1444 l 1
 338 -248 l 1
 581 -248 l 1
 581 -461 l 1
EndSplineSet
EndChar

StartChar: backslash
Encoding: 92 92 63
Width: 782
Flags: HW
LayerCount: 2
Fore
SplineSet
575.476 -174 m 1
 -30.2128 1607 l 1
 206.524 1607 l 1
 812.213 -174 l 1
 575.476 -174 l 1
EndSplineSet
EndChar

StartChar: bracketright
Encoding: 93 93 64
Width: 633
Flags: HW
LayerCount: 2
Fore
SplineSet
51 -248 m 1
 295 -248 l 1
 295 1444 l 1
 51 1444 l 1
 51 1657 l 1
 520 1657 l 1
 520 -461 l 1
 51 -461 l 1
 51 -248 l 1
EndSplineSet
EndChar

StartChar: asciicircum
Encoding: 94 94 65
Width: 1104
Flags: HW
LayerCount: 2
Fore
SplineSet
1067.04 725 m 1
 813.675 725 l 1
 551.154 1207.93 l 1
 290.424 725 l 1
 36.9632 725 l 1
 452.769 1485 l 1
 651.231 1485 l 1
 1067.04 725 l 1
EndSplineSet
EndChar

StartChar: underscore
Encoding: 95 95 66
Width: 1122
Flags: HW
LayerCount: 2
Fore
SplineSet
1175 -242 m 1
 1175 -461 l 1
 -53 -461 l 1
 -53 -242 l 1
 1175 -242 l 1
EndSplineSet
EndChar

StartChar: grave
Encoding: 96 96 67
Width: 778
Flags: HW
LayerCount: 2
Fore
SplineSet
71.1315 1485 m 1
 437.387 1485 l 1
 667.972 1137 l 1
 461.571 1137 l 1
 71.1315 1485 l 1
EndSplineSet
EndChar

StartChar: a
Encoding: 97 97 68
Width: 1134
Flags: HW
LayerCount: 2
Fore
SplineSet
1011 0 m 1,0,-1
 891.706 0 l 1,1,-1
 844.33 71.0635 l 1,2,3
 810.396 40.9805 810.396 40.9805 769.944 19.4707 c 0,4,5
 671.636 -20 671.636 -20 553.536 -20 c 2,6,-1
 511.799 -20 l 2,7,8
 414.269 -20 414.269 -20 337.962 7.60156 c 0,9,10
 273.903 32.9375 273.903 32.9375 225.938 77.3398 c 128,-1,11
 177.973 121.741 177.973 121.741 150.602 181.041 c 0,12,13
 123 240.839 123 240.839 123 307.896 c 2,14,-1
 123 317.154 l 2,15,16
 123 384.211 123 384.211 150.602 444.01 c 0,17,18
 177.973 503.311 177.973 503.311 225.938 547.711 c 128,-1,19
 273.909 592.117 273.909 592.117 337.962 617.449 c 0,20,21
 414.276 643 414.276 643 511.799 643 c 2,22,-1
 786 643 l 1,23,-1
 786 726.68 l 2,24,25
 786 747.391 786 747.391 776.161 765.253 c 0,26,27
 766.026 783.65 766.026 783.65 743.291 797.016 c 0,28,29
 720.283 810.38 720.283 810.38 688.609 818.306 c 0,30,31
 657.858 826 657.858 826 622.201 826 c 2,32,-1
 525.262 826 l 2,33,34
 489.607 826 489.607 826 458.855 816.161 c 0,35,36
 427.182 806.027 427.182 806.027 404.173 788.938 c 128,-1,37
 381.165 771.849 381.165 771.849 367.839 748.323 c 0,38,39
 358 725.483 358 725.483 358 699 c 2,40,-1
 358 602.037 l 1,41,-1
 133 638.623 l 1,42,-1
 133 692 l 2,43,44
 133 764.441 133 764.441 160.602 829.038 c 0,45,46
 187.975 893.101 187.975 893.101 235.938 941.062 c 128,-1,47
 283.901 989.025 283.901 989.025 347.962 1016.4 c 0,48,49
 427.725 1044 427.725 1044 525.262 1044 c 2,50,-1
 622.201 1044 l 2,51,52
 719.741 1044 719.741 1044 796.038 1016.4 c 0,53,54
 860.102 991.52 860.102 991.52 908.062 947.934 c 128,-1,55
 956.03 904.34 956.03 904.34 983.398 846.126 c 0,56,57
 1011 787.416 1011 787.416 1011 721.586 c 2,58,-1
 1011 0 l 1,0,-1
786 303.265 m 2,59,-1
 786 445 l 1,60,-1
 511.799 445 l 2,61,62
 476.143 445 476.143 445 445.391 436.845 c 0,63,64
 414.055 428.535 414.055 428.535 391.208 414.176 c 0,65,66
 368.08 399.493 368.08 399.493 357.839 379.788 c 0,67,68
 348 360.856 348 360.856 348 338.906 c 2,69,-1
 348 303.265 l 2,70,71
 348 281.314 348 281.314 357.839 262.383 c 0,72,73
 367.973 242.885 367.973 242.885 390.709 228.72 c 0,74,75
 413.717 214.555 413.717 214.555 445.391 206.155 c 0,76,77
 476.143 198 476.143 198 511.799 198 c 2,78,-1
 622.201 198 l 2,79,80
 657.858 198 657.858 198 688.609 206.155 c 0,81,82
 720.284 214.556 720.284 214.556 743.291 228.72 c 0,83,84
 766.027 242.885 766.027 242.885 776.161 262.383 c 0,85,86
 786 281.314 786 281.314 786 303.265 c 2,59,-1
EndSplineSet
EndChar

StartChar: b
Encoding: 98 98 69
Width: 1134
Flags: HW
LayerCount: 2
Fore
SplineSet
1011 721.788 m 2,0,-1
 1011 302.212 l 2,1,2
 1011 236.429 1011 236.429 983.398 177.757 c 0,3,4
 956.031 119.585 956.031 119.585 908.062 76.0195 c 128,-1,5
 860.1 32.46 860.1 32.46 796.038 7.60156 c 0,6,7
 719.733 -20 719.733 -20 622.201 -20 c 2,8,-1
 511.799 -20 l 2,9,10
 414.269 -20 414.269 -20 337.962 7.60156 c 0,11,12
 273.903 33.1445 273.903 33.1445 225.938 77.9102 c 128,-1,13
 177.973 122.674 177.973 122.674 150.602 182.458 c 0,14,15
 123 242.745 123 242.745 123 310.351 c 2,16,-1
 123 1434 l 1,17,-1
 348 1434 l 1,18,-1
 348 996.163 l 1,19,20
 361.857 1004.3 361.857 1004.3 378.688 1011.07 c 0,21,22
 472.103 1044 472.103 1044 580.464 1044 c 2,23,-1
 622.201 1044 l 2,24,25
 719.741 1044 719.741 1044 796.038 1016.4 c 0,26,27
 860.102 991.537 860.102 991.537 908.062 947.98 c 128,-1,28
 956.03 904.417 956.03 904.417 983.398 846.243 c 0,29,30
 1011 787.573 1011 787.573 1011 721.788 c 2,0,-1
786 307.255 m 2,31,-1
 786 716.745 l 2,32,33
 786 739.528 786 739.528 776.161 759.177 c 0,34,35
 766.026 779.415 766.026 779.415 743.291 794.116 c 0,36,37
 720.283 808.817 720.283 808.817 688.609 817.536 c 0,38,39
 657.858 826 657.858 826 622.201 826 c 2,40,-1
 511.799 826 l 2,41,42
 476.143 826 476.143 826 445.391 817.536 c 0,43,44
 413.719 808.818 413.719 808.818 390.709 794.116 c 0,45,46
 367.974 779.415 367.974 779.415 357.839 759.177 c 0,47,48
 348 739.528 348 739.528 348 716.745 c 2,49,-1
 348 307.255 l 2,50,51
 348 284.473 348 284.473 357.839 264.823 c 0,52,53
 367.973 244.586 367.973 244.586 390.709 229.884 c 0,54,55
 413.717 215.183 413.717 215.183 445.391 206.464 c 0,56,57
 476.143 198 476.143 198 511.799 198 c 2,58,-1
 622.201 198 l 2,59,60
 657.858 198 657.858 198 688.609 206.464 c 0,61,62
 720.284 215.183 720.284 215.183 743.291 229.884 c 0,63,64
 766.027 244.586 766.027 244.586 776.161 264.823 c 0,65,66
 786 284.473 786 284.473 786 307.255 c 2,31,-1
EndSplineSet
EndChar

StartChar: c
Encoding: 99 99 70
Width: 1134
Flags: HW
LayerCount: 2
Fore
SplineSet
1011 416.377 m 1,0,-1
 1011 332 l 2,1,2
 1011 259.565 1011 259.565 983.398 194.962 c 0,3,4
 956.031 130.907 956.031 130.907 908.062 82.9375 c 128,-1,5
 860.1 34.9736 860.1 34.9736 796.038 7.60156 c 0,6,7
 719.733 -20 719.733 -20 622.201 -20 c 2,8,-1
 511.799 -20 l 2,9,10
 414.269 -20 414.269 -20 337.962 7.60156 c 0,11,12
 273.903 32.458 273.903 32.458 225.938 76.0195 c 128,-1,13
 177.973 119.58 177.973 119.58 150.602 177.757 c 0,14,15
 123 236.424 123 236.424 123 302.212 c 2,16,-1
 123 721.788 l 2,17,18
 123 787.577 123 787.577 150.602 846.243 c 0,19,20
 177.975 904.422 177.975 904.422 225.938 947.98 c 128,-1,21
 273.901 991.538 273.901 991.538 337.962 1016.4 c 0,22,23
 414.262 1044 414.262 1044 511.799 1044 c 2,24,-1
 622.201 1044 l 2,25,26
 719.741 1044 719.741 1044 796.038 1016.4 c 0,27,28
 860.102 989.022 860.102 989.022 908.062 941.062 c 128,-1,29
 956.03 893.095 956.03 893.095 983.398 829.038 c 0,30,31
 1011 764.437 1011 764.437 1011 692 c 2,32,-1
 1011 607.623 l 1,33,-1
 786 571.037 l 1,34,-1
 786 699 l 2,35,36
 786 725.483 786 725.483 776.161 748.323 c 0,37,38
 766.026 771.849 766.026 771.849 743.291 788.938 c 0,39,40
 720.283 806.026 720.283 806.026 688.609 816.161 c 0,41,42
 657.858 826 657.858 826 622.201 826 c 2,43,-1
 511.799 826 l 2,44,45
 476.143 826 476.143 826 445.391 817.536 c 0,46,47
 413.719 808.818 413.719 808.818 390.709 794.116 c 0,48,49
 367.974 779.415 367.974 779.415 357.839 759.177 c 0,50,51
 348 739.528 348 739.528 348 716.745 c 2,52,-1
 348 307.255 l 2,53,54
 348 284.473 348 284.473 357.839 264.823 c 0,55,56
 367.973 244.586 367.973 244.586 390.709 229.884 c 0,57,58
 413.717 215.183 413.717 215.183 445.391 206.464 c 0,59,60
 476.143 198 476.143 198 511.799 198 c 2,61,-1
 622.201 198 l 2,62,63
 657.858 198 657.858 198 688.609 207.839 c 0,64,65
 720.284 217.974 720.284 217.974 743.291 235.062 c 0,66,67
 766.027 252.152 766.027 252.152 776.161 275.677 c 0,68,69
 786 298.518 786 298.518 786 325 c 2,70,-1
 786 452.963 l 1,71,-1
 1011 416.377 l 1,0,-1
EndSplineSet
EndChar

StartChar: d
Encoding: 100 100 71
Width: 1134
Flags: HW
LayerCount: 2
Fore
SplineSet
1011 0 m 1,0,-1
 891.412 0 l 1,1,-1
 844.457 71.8135 l 1,2,3
 810.898 41.248 810.898 41.248 769.944 19.4707 c 0,4,5
 671.636 -20 671.636 -20 553.536 -20 c 2,6,-1
 511.799 -20 l 2,7,8
 414.269 -20 414.269 -20 337.962 7.60156 c 0,9,10
 273.903 32.458 273.903 32.458 225.938 76.0195 c 128,-1,11
 177.973 119.58 177.973 119.58 150.602 177.757 c 0,12,13
 123 236.424 123 236.424 123 302.212 c 2,14,-1
 123 721.788 l 2,15,16
 123 787.577 123 787.577 150.602 846.243 c 0,17,18
 177.975 904.422 177.975 904.422 225.938 947.98 c 128,-1,19
 273.901 991.538 273.901 991.538 337.962 1016.4 c 0,20,21
 414.262 1044 414.262 1044 511.799 1044 c 2,22,-1
 553.536 1044 l 2,23,24
 661.894 1044 661.894 1044 755.312 1011.07 c 0,25,26
 772.138 1004.3 772.138 1004.3 786 996.163 c 1,27,-1
 786 1434 l 1,28,-1
 1011 1434 l 1,29,-1
 1011 0 l 1,0,-1
786 307.255 m 2,30,-1
 786 716.745 l 2,31,32
 786 739.528 786 739.528 776.161 759.177 c 0,33,34
 766.026 779.415 766.026 779.415 743.291 794.116 c 0,35,36
 720.283 808.817 720.283 808.817 688.609 817.536 c 0,37,38
 657.858 826 657.858 826 622.201 826 c 2,39,-1
 511.799 826 l 2,40,41
 476.143 826 476.143 826 445.391 817.536 c 0,42,43
 413.719 808.818 413.719 808.818 390.709 794.116 c 0,44,45
 367.974 779.415 367.974 779.415 357.839 759.177 c 0,46,47
 348 739.528 348 739.528 348 716.745 c 2,48,-1
 348 307.255 l 2,49,50
 348 284.473 348 284.473 357.839 264.823 c 0,51,52
 367.973 244.586 367.973 244.586 390.709 229.884 c 0,53,54
 413.717 215.183 413.717 215.183 445.391 206.464 c 0,55,56
 476.143 198 476.143 198 511.799 198 c 2,57,-1
 622.201 198 l 2,58,59
 657.858 198 657.858 198 688.609 206.464 c 0,60,61
 720.284 215.183 720.284 215.183 743.291 229.884 c 0,62,63
 766.027 244.586 766.027 244.586 776.161 264.823 c 0,64,65
 786 284.473 786 284.473 786 307.255 c 2,30,-1
EndSplineSet
EndChar

StartChar: e
Encoding: 101 101 72
Width: 1134
Flags: HW
LayerCount: 2
Fore
SplineSet
1011 416.377 m 1,0,-1
 1011 332 l 2,1,2
 1011 259.565 1011 259.565 983.398 194.962 c 0,3,4
 956.031 130.907 956.031 130.907 908.062 82.9375 c 128,-1,5
 860.1 34.9736 860.1 34.9736 796.038 7.60156 c 0,6,7
 719.733 -20 719.733 -20 622.201 -20 c 2,8,-1
 511.799 -20 l 2,9,10
 414.269 -20 414.269 -20 337.962 7.60156 c 0,11,12
 273.903 32.458 273.903 32.458 225.938 76.0195 c 128,-1,13
 177.973 119.58 177.973 119.58 150.602 177.757 c 0,14,15
 123 236.424 123 236.424 123 302.212 c 2,16,-1
 123 721.788 l 2,17,18
 123 787.577 123 787.577 150.602 846.243 c 0,19,20
 177.975 904.422 177.975 904.422 225.938 947.98 c 128,-1,21
 273.901 991.538 273.901 991.538 337.962 1016.4 c 0,22,23
 414.262 1044 414.262 1044 511.799 1044 c 2,24,-1
 622.201 1044 l 2,25,26
 719.741 1044 719.741 1044 796.038 1016.4 c 0,27,28
 860.102 991.288 860.102 991.288 908.062 947.296 c 128,-1,29
 956.03 903.297 956.03 903.297 983.398 844.54 c 0,30,31
 1011 785.283 1011 785.283 1011 718.84 c 2,32,-1
 1011 451 l 1,33,-1
 348 451 l 1,34,-1
 348 303.694 l 2,35,36
 348 281.654 348 281.654 357.839 262.646 c 0,37,38
 367.973 243.067 367.973 243.067 390.709 228.845 c 0,39,40
 413.717 214.622 413.717 214.622 445.391 206.188 c 0,41,42
 476.143 198 476.143 198 511.799 198 c 2,43,-1
 622.201 198 l 2,44,45
 657.858 198 657.858 198 688.609 207.839 c 0,46,47
 720.284 217.974 720.284 217.974 743.291 235.062 c 0,48,49
 766.027 252.152 766.027 252.152 776.161 275.677 c 0,50,51
 786 298.518 786 298.518 786 325 c 2,52,-1
 786 452.963 l 1,53,-1
 1011 416.377 l 1,0,-1
786 649 m 1,54,-1
 786 727.408 l 2,55,56
 786 747.967 786 747.967 776.161 765.698 c 0,57,58
 766.026 783.961 766.026 783.961 743.291 797.228 c 0,59,60
 720.283 810.494 720.283 810.494 688.609 818.361 c 0,61,62
 657.858 826 657.858 826 622.201 826 c 2,63,-1
 511.799 826 l 2,64,65
 476.143 826 476.143 826 445.391 818.361 c 0,66,67
 413.719 810.495 413.719 810.495 390.709 797.228 c 0,68,69
 367.974 783.961 367.974 783.961 357.839 765.698 c 0,70,71
 348 747.968 348 747.968 348 727.408 c 2,72,-1
 348 649 l 1,73,-1
 786 649 l 1,54,-1
EndSplineSet
EndChar

StartChar: f
Encoding: 102 102 73
Width: 792
Flags: HW
LayerCount: 2
Fore
SplineSet
792 1215 m 1,0,-1
 628 1215 l 2,1,2
 607.59 1215 607.59 1215 590.803 1207.72 c 0,3,4
 573.201 1200.08 573.201 1200.08 560.062 1186.94 c 128,-1,5
 547.049 1173.92 547.049 1173.92 535.524 1156.01 c 0,6,7
 523.862 1138.59 523.862 1138.59 523.862 1118 c 2,8,-1
 523.862 1024 l 1,9,-1
 771 1024 l 1,10,-1
 771 805 l 1,11,-1
 523.862 805 l 1,12,-1
 430 0 l 1,13,-1
 205 0 l 1,14,-1
 205 805 l 1,15,-1
 20 805 l 1,16,-1
 20 1024 l 1,17,-1
 205 1024 l 1,18,-1
 205 1112 l 2,19,20
 205 1178.37 205 1178.37 230.051 1237.42 c 0,21,22
 254.924 1296.05 254.924 1296.05 317.898 1340.06 c 0,23,24
 386.95 1384.01 386.95 1384.01 478.147 1408.88 c 0,25,26
 561.532 1434 561.532 1434 628 1434 c 2,27,-1
 792 1434 l 1,28,-1
 792 1215 l 1,0,-1
EndSplineSet
EndChar

StartChar: g
Encoding: 103 103 74
Width: 1134
Flags: HW
LayerCount: 2
Fore
SplineSet
1021 -74 m 2,0,-1
 1021 -78 l 2,1,2
 1021 -150.987 1021 -150.987 992.975 -213.003 c 0,3,4
 965.085 -274.717 965.085 -274.717 916.168 -318.862 c 0,5,6
 857.922 -362.388 857.922 -362.388 778.945 -386.288 c 0,7,8
 700.593 -410 700.593 -410 612.911 -410 c 2,9,-1
 550.1 -410 l 2,10,11
 462.42 -410 462.42 -410 384.066 -386.288 c 0,12,13
 317.065 -362.39 317.065 -362.39 268.832 -318.862 c 0,14,15
 219.917 -274.72 219.917 -274.72 192.025 -213.003 c 0,16,17
 164 -150.989 164 -150.989 164 -78 c 2,18,-1
 164 -74 l 2,19,20
 164 -9.32617 164 -9.32617 190.319 45.373 c 0,21,22
 204.12 74.0557 204.12 74.0557 223.571 99.1582 c 1,23,24
 195.95 123.457 195.95 123.457 176.303 154.663 c 0,25,26
 141 210.732 141 210.732 141 278.066 c 0,27,28
 141 338.352 141 338.352 169.286 390.646 c 0,29,30
 184.041 417.924 184.041 417.924 205.186 440.637 c 1,31,32
 175.961 472.769 175.961 472.769 155.926 511.376 c 0,33,34
 123 574.821 123 574.821 123 649.336 c 2,35,-1
 123 719.75 l 2,36,37
 123 785.994 123 785.994 150.602 845.065 c 0,38,39
 177.975 903.647 177.975 903.647 225.938 947.507 c 128,-1,40
 273.901 991.366 273.901 991.366 337.962 1016.4 c 0,41,42
 410.382 1044 410.382 1044 499.604 1044 c 2,43,-1
 562.416 1044 l 2,44,45
 670.327 1044 670.327 1044 762.299 1004.61 c 0,46,47
 812.765 982.993 812.765 982.993 854.409 952.438 c 1,48,-1
 911.188 1024 l 1,49,-1
 1031 1024 l 1,50,-1
 1031 642.41 l 2,51,52
 1031 574.828 1031 574.828 1003.4 514.556 c 0,53,54
 976.03 454.792 976.03 454.792 928.062 410.039 c 0,55,56
 872.898 365.289 872.898 365.289 794.002 339.752 c 0,57,58
 714.445 314 714.445 314 625.227 314 c 2,59,-1
 406.003 314 l 2,60,61
 393.549 314 393.549 314 382.389 311.879 c 0,62,63
 369.044 309.342 369.044 309.342 360.924 305.266 c 0,64,65
 354.122 301.828 354.122 301.828 350.184 296.804 c 0,66,67
 346 291.467 346 291.467 346 285.738 c 128,-1,68
 346 280.138 346 280.138 350.004 275.161 c 128,-1,69
 354.127 270.036 354.127 270.036 361.562 266.145 c 128,-1,70
 369.053 262.253 369.053 262.253 381.114 260.096 c 0,71,72
 392.824 258 392.824 258 406.003 258 c 2,73,-1
 612.911 258 l 2,74,75
 700.597 258 700.597 258 778.945 234.288 c 0,76,77
 857.927 210.385 857.927 210.385 916.168 166.862 c 0,78,79
 965.087 122.715 965.087 122.715 992.975 61.0029 c 0,80,81
 1021 -1.01367 1021 -1.01367 1021 -74 c 2,0,-1
782.871 640.227 m 2,82,-1
 782.871 717.773 l 2,83,84
 782.871 740.342 782.871 740.342 770.753 759.806 c 0,85,86
 758.405 779.641 758.405 779.641 737.07 794.102 c 0,87,88
 715.255 808.888 715.255 808.888 685.973 817.615 c 0,89,90
 657.844 826 657.844 826 625.227 826 c 2,91,-1
 499.604 826 l 2,92,93
 466.989 826 466.989 826 438.858 817.615 c 0,94,95
 409.886 808.979 409.886 808.979 388.838 794.416 c 128,-1,96
 367.974 779.854 367.974 779.854 357.839 759.806 c 0,97,98
 348 740.343 348 740.343 348 717.773 c 2,99,-1
 348 640.227 l 2,100,101
 348 617.657 348 617.657 357.839 598.194 c 0,102,103
 367.974 578.146 367.974 578.146 388.838 563.584 c 128,-1,104
 409.886 549.021 409.886 549.021 438.858 540.385 c 0,105,106
 466.989 532 466.989 532 499.604 532 c 2,107,-1
 625.227 532 l 2,108,109
 657.844 532 657.844 532 685.973 540.385 c 0,110,111
 715.253 549.112 715.253 549.112 737.07 563.898 c 0,112,113
 758.405 578.359 758.405 578.359 770.753 598.194 c 0,114,115
 782.871 617.658 782.871 617.658 782.871 640.227 c 2,82,-1
776.713 -84 m 2,116,-1
 776.713 -68 l 2,117,118
 776.713 -42.4863 776.713 -42.4863 765.537 -23.3662 c 0,119,120
 754.215 -3.99707 754.215 -3.99707 735.27 8.82031 c 0,121,122
 714.7 22.7383 714.7 22.7383 685.759 30.6924 c 0,123,124
 655.528 39 655.528 39 620.3 39 c 2,125,-1
 542.71 39 l 2,126,127
 507.482 39 507.482 39 477.252 30.6924 c 0,128,129
 448.308 22.7383 448.308 22.7383 427.74 8.82031 c 0,130,131
 408.794 -3.99902 408.794 -3.99902 397.474 -23.3662 c 0,132,133
 386.298 -42.4883 386.298 -42.4883 386.298 -68 c 2,134,-1
 386.298 -84 l 2,135,136
 386.298 -109.334 386.298 -109.334 397.293 -127.828 c 0,137,138
 408.8 -147.18 408.8 -147.18 428.325 -160.721 c 0,139,140
 448.683 -174.841 448.683 -174.841 477.252 -182.692 c 0,141,142
 507.482 -191 507.482 -191 542.71 -191 c 2,143,-1
 620.3 -191 l 2,144,145
 655.528 -191 655.528 -191 685.759 -182.692 c 0,146,147
 714.327 -174.841 714.327 -174.841 734.686 -160.721 c 0,148,149
 754.211 -147.18 754.211 -147.18 765.717 -127.828 c 0,150,151
 776.713 -109.334 776.713 -109.334 776.713 -84 c 2,116,-1
EndSplineSet
EndChar

StartChar: h
Encoding: 104 104 75
Width: 1134
Flags: HW
LayerCount: 2
Fore
SplineSet
1011 0 m 1,0,-1
 786 0 l 1,1,-1
 786 712.959 l 2,2,3
 786 736.531 786 736.531 773.174 756.861 c 0,4,5
 759.963 777.801 759.963 777.801 737.686 793.012 c 128,-1,6
 715.41 808.222 715.41 808.222 684.743 817.242 c 0,7,8
 654.969 826 654.969 826 620.446 826 c 2,9,-1
 513.554 826 l 2,10,11
 479.032 826 479.032 826 449.257 817.242 c 0,12,13
 418.591 808.223 418.591 808.223 396.314 793.012 c 128,-1,14
 374.037 777.801 374.037 777.801 360.826 756.861 c 0,15,16
 348 736.531 348 736.531 348 712.959 c 2,17,-1
 348 0 l 1,18,-1
 123 0 l 1,19,-1
 123 1434 l 1,20,-1
 348 1434 l 1,21,-1
 348 996.163 l 1,22,23
 366.064 1004.3 366.064 1004.3 384.674 1011.07 c 0,24,25
 475.12 1044 475.12 1044 580.036 1044 c 2,26,-1
 620.446 1044 l 2,27,28
 714.885 1044 714.885 1044 796.038 1016.4 c 0,29,30
 860.102 991.52 860.102 991.52 908.062 947.934 c 128,-1,31
 956.03 904.34 956.03 904.34 983.398 846.126 c 0,32,33
 1011 787.416 1011 787.416 1011 721.586 c 2,34,-1
 1011 0 l 1,0,-1
EndSplineSet
EndChar

StartChar: i
Encoding: 105 105 76
Width: 553
Flags: HW
LayerCount: 2
Fore
SplineSet
399 1168 m 1,0,-1
 154 1168 l 1,1,-1
 154 1434 l 1,2,-1
 399 1434 l 1,3,-1
 399 1168 l 1,0,-1
389 0 m 1,4,-1
 164 0 l 1,5,-1
 164 1024 l 1,6,-1
 389 1024 l 1,7,-1
 389 0 l 1,4,-1
EndSplineSet
EndChar

StartChar: j
Encoding: 106 106 77
Width: 553
Flags: HW
LayerCount: 2
Fore
SplineSet
399 1168 m 1,0,-1
 154 1168 l 1,1,-1
 154 1434 l 1,2,-1
 399 1434 l 1,3,-1
 399 1168 l 1,0,-1
389 1024 m 1,4,-1
 389 -58 l 2,5,6
 389 -130.529 389 -130.529 361.332 -194.693 c 0,7,8
 333.964 -258.162 333.964 -258.162 286.062 -306.062 c 128,-1,9
 238.236 -353.887 238.236 -353.887 174.397 -381.743 c 0,10,11
 109.641 -410 109.641 -410 37 -410 c 2,12,-1
 -14 -410 l 1,13,-1
 -14 -191 l 1,14,-1
 37 -191 l 2,15,16
 63.4824 -191 63.4824 -191 86.3232 -181.161 c 0,17,18
 109.849 -171.027 109.849 -171.027 126.938 -153.938 c 128,-1,19
 144.027 -136.848 144.027 -136.848 154.161 -113.323 c 0,20,21
 164 -90.4824 164 -90.4824 164 -64 c 2,22,-1
 164 1024 l 1,23,-1
 389 1024 l 1,4,-1
EndSplineSet
EndChar

StartChar: k
Encoding: 107 107 78
Width: 1134
Flags: HW
LayerCount: 2
Fore
SplineSet
389 0 m 1,0,-1
 164 0 l 1,1,-1
 164 1434 l 1,2,-1
 389 1434 l 1,3,-1
 389 574.715 l 1,4,-1
 857.799 1024 l 1,5,-1
 1151.11 1024 l 1,6,-1
 631.161 512 l 1,7,-1
 1151.11 0 l 1,8,-1
 857.799 0 l 1,9,-1
 389 449.285 l 1,10,-1
 389 0 l 1,0,-1
EndSplineSet
EndChar

StartChar: l
Encoding: 108 108 79
Width: 553
Flags: HW
LayerCount: 2
Fore
SplineSet
389 0 m 1,0,-1
 164 0 l 1,1,-1
 164 1434 l 1,2,-1
 389 1434 l 1,3,-1
 389 0 l 1,0,-1
EndSplineSet
EndChar

StartChar: m
Encoding: 109 109 80
Width: 1756
Flags: HW
LayerCount: 2
Fore
SplineSet
1633 0 m 1,0,-1
 1408 0 l 1,1,-1
 1408 712.959 l 2,2,3
 1408 736.531 1408 736.531 1394.99 756.861 c 0,4,5
 1381.58 777.803 1381.58 777.803 1358.97 793.012 c 128,-1,6
 1336.36 808.225 1336.36 808.225 1305.25 817.242 c 0,7,8
 1275.04 826 1275.04 826 1240.01 826 c 2,9,-1
 1159.32 826 l 2,10,11
 1124.28 826 1124.28 826 1094.07 817.242 c 0,12,13
 1062.62 808.126 1062.62 808.126 1039.19 792.682 c 0,14,15
 1016.28 777.578 1016.28 777.578 1003.01 756.861 c 0,16,17
 990 736.531 990 736.531 990 712.959 c 2,18,-1
 990 0 l 1,19,-1
 766 0 l 1,20,-1
 766 712.959 l 2,21,22
 766 736.531 766 736.531 752.985 756.861 c 0,23,24
 739.723 777.578 739.723 777.578 716.808 792.682 c 0,25,26
 693.377 808.126 693.377 808.126 661.928 817.242 c 0,27,28
 631.715 826 631.715 826 596.684 826 c 2,29,-1
 515.994 826 l 2,30,31
 480.963 826 480.963 826 450.75 817.242 c 0,32,33
 429.863 811.188 429.863 811.188 412.902 802.398 c 0,34,35
 404.526 798.058 404.526 798.058 397.026 793.012 c 0,36,37
 374.421 777.801 374.421 777.801 361.015 756.861 c 0,38,39
 348 736.531 348 736.531 348 712.959 c 2,40,-1
 348 0 l 1,41,-1
 123 0 l 1,42,-1
 123 1024 l 1,43,-1
 242.812 1024 l 1,44,-1
 288.914 952.438 l 1,45,46
 322.728 982.993 322.728 982.993 368.772 1004.61 c 0,47,48
 467.554 1044 467.554 1044 583.456 1044 c 2,49,-1
 596.684 1044 l 2,50,51
 730.839 1044 730.839 1044 821.694 993.456 c 0,52,53
 868.274 964.841 868.274 964.841 903.416 924.746 c 1,54,55
 908.397 930.336 908.397 930.336 913.311 935.424 c 0,56,57
 945.944 969.225 945.944 969.225 985.666 993.176 c 0,58,59
 1036.86 1017.15 1036.86 1017.15 1098.35 1030.51 c 0,60,61
 1160.38 1044 1160.38 1044 1226.78 1044 c 2,62,-1
 1240.01 1044 l 2,63,64
 1335.84 1044 1335.84 1044 1418.04 1016.4 c 0,65,66
 1482.09 991.522 1482.09 991.522 1530.06 947.934 c 128,-1,67
 1578.02 904.354 1578.02 904.354 1605.4 846.126 c 0,68,69
 1633 787.425 1633 787.425 1633 721.586 c 2,70,-1
 1633 0 l 1,0,-1
EndSplineSet
EndChar

StartChar: n
Encoding: 110 110 81
Width: 1134
Flags: HW
LayerCount: 2
Fore
SplineSet
1011 0 m 1,0,-1
 786 0 l 1,1,-1
 786 712.959 l 2,2,3
 786 736.531 786 736.531 773.174 756.861 c 0,4,5
 759.963 777.801 759.963 777.801 737.686 793.012 c 128,-1,6
 715.41 808.222 715.41 808.222 684.743 817.242 c 0,7,8
 654.969 826 654.969 826 620.446 826 c 2,9,-1
 513.554 826 l 2,10,11
 479.032 826 479.032 826 449.257 817.242 c 0,12,13
 428.674 811.188 428.674 811.188 411.959 802.398 c 0,14,15
 403.705 798.058 403.705 798.058 396.314 793.012 c 0,16,17
 374.037 777.801 374.037 777.801 360.826 756.861 c 0,18,19
 348 736.531 348 736.531 348 712.959 c 2,20,-1
 348 0 l 1,21,-1
 123 0 l 1,22,-1
 123 1024 l 1,23,-1
 242.812 1024 l 1,24,-1
 288.914 952.438 l 1,25,26
 322.728 982.993 322.728 982.993 368.47 1004.61 c 0,27,28
 465.818 1044 465.818 1044 580.036 1044 c 2,29,-1
 620.446 1044 l 2,30,31
 714.885 1044 714.885 1044 796.038 1016.4 c 0,32,33
 860.102 991.52 860.102 991.52 908.062 947.934 c 128,-1,34
 956.03 904.34 956.03 904.34 983.398 846.126 c 0,35,36
 1011 787.416 1011 787.416 1011 721.586 c 2,37,-1
 1011 0 l 1,0,-1
EndSplineSet
EndChar

StartChar: o
Encoding: 111 111 82
Width: 1134
Flags: HW
LayerCount: 2
Fore
SplineSet
1011 721.788 m 2,0,-1
 1011 302.212 l 2,1,2
 1011 236.429 1011 236.429 983.398 177.757 c 0,3,4
 956.031 119.585 956.031 119.585 908.062 76.0195 c 128,-1,5
 860.1 32.46 860.1 32.46 796.038 7.60156 c 0,6,7
 719.733 -20 719.733 -20 622.201 -20 c 2,8,-1
 511.799 -20 l 2,9,10
 414.269 -20 414.269 -20 337.962 7.60156 c 0,11,12
 273.903 32.458 273.903 32.458 225.938 76.0195 c 128,-1,13
 177.973 119.58 177.973 119.58 150.602 177.757 c 0,14,15
 123 236.424 123 236.424 123 302.212 c 2,16,-1
 123 721.788 l 2,17,18
 123 787.577 123 787.577 150.602 846.243 c 0,19,20
 177.975 904.422 177.975 904.422 225.938 947.98 c 128,-1,21
 273.901 991.538 273.901 991.538 337.962 1016.4 c 0,22,23
 414.262 1044 414.262 1044 511.799 1044 c 2,24,-1
 622.201 1044 l 2,25,26
 719.741 1044 719.741 1044 796.038 1016.4 c 0,27,28
 860.102 991.537 860.102 991.537 908.062 947.98 c 128,-1,29
 956.03 904.417 956.03 904.417 983.398 846.243 c 0,30,31
 1011 787.573 1011 787.573 1011 721.788 c 2,0,-1
786 307.255 m 2,32,-1
 786 716.745 l 2,33,34
 786 739.528 786 739.528 776.161 759.177 c 0,35,36
 766.026 779.415 766.026 779.415 743.291 794.116 c 0,37,38
 720.283 808.817 720.283 808.817 688.609 817.536 c 0,39,40
 657.858 826 657.858 826 622.201 826 c 2,41,-1
 511.799 826 l 2,42,43
 476.143 826 476.143 826 445.391 817.536 c 0,44,45
 413.719 808.818 413.719 808.818 390.709 794.116 c 0,46,47
 367.974 779.415 367.974 779.415 357.839 759.177 c 0,48,49
 348 739.528 348 739.528 348 716.745 c 2,50,-1
 348 307.255 l 2,51,52
 348 284.473 348 284.473 357.839 264.823 c 0,53,54
 367.973 244.586 367.973 244.586 390.709 229.884 c 0,55,56
 413.717 215.183 413.717 215.183 445.391 206.464 c 0,57,58
 476.143 198 476.143 198 511.799 198 c 2,59,-1
 622.201 198 l 2,60,61
 657.858 198 657.858 198 688.609 206.464 c 0,62,63
 720.284 215.183 720.284 215.183 743.291 229.884 c 0,64,65
 766.027 244.586 766.027 244.586 776.161 264.823 c 0,66,67
 786 284.473 786 284.473 786 307.255 c 2,32,-1
EndSplineSet
EndChar

StartChar: p
Encoding: 112 112 83
Width: 1134
Flags: HW
LayerCount: 2
Fore
SplineSet
1011 721.788 m 2,0,-1
 1011 302.212 l 2,1,2
 1011 236.429 1011 236.429 983.398 177.757 c 0,3,4
 956.031 119.585 956.031 119.585 908.062 76.0195 c 128,-1,5
 860.1 32.46 860.1 32.46 796.038 7.60156 c 0,6,7
 723.24 -20 723.24 -20 633.225 -20 c 2,8,-1
 594.704 -20 l 2,9,10
 494.688 -20 494.688 -20 408.479 12.9248 c 0,11,12
 390.734 19.7021 390.734 19.7021 373.52 27.8369 c 1,13,-1
 373.52 -410 l 1,14,-1
 123 -410 l 1,15,-1
 123 1024 l 1,16,-1
 242.812 1024 l 1,17,-1
 300.099 952.438 l 1,18,19
 342.116 982.993 342.116 982.993 393.033 1004.61 c 0,20,21
 485.828 1044 485.828 1044 594.704 1044 c 2,22,-1
 633.225 1044 l 2,23,24
 723.248 1044 723.248 1044 796.038 1016.4 c 0,25,26
 860.102 991.537 860.102 991.537 908.062 947.98 c 128,-1,27
 956.03 904.417 956.03 904.417 983.398 846.243 c 0,28,29
 1011 787.573 1011 787.573 1011 721.788 c 2,0,-1
786 307.255 m 2,30,-1
 786 716.745 l 2,31,32
 786 739.528 786 739.528 776.161 759.177 c 0,33,34
 766.026 779.415 766.026 779.415 744.982 794.116 c 128,-1,35
 723.748 808.817 723.748 808.817 694.515 817.536 c 0,36,37
 666.134 826 666.134 826 633.225 826 c 2,38,-1
 531.331 826 l 2,39,40
 498.424 826 498.424 826 470.042 817.536 c 0,41,42
 440.81 808.818 440.81 808.818 419.574 794.116 c 128,-1,43
 398.339 779.415 398.339 779.415 385.746 759.177 c 0,44,45
 373.52 739.528 373.52 739.528 373.52 716.745 c 2,46,-1
 373.52 307.255 l 2,47,48
 373.52 284.473 373.52 284.473 385.746 264.823 c 0,49,50
 398.338 244.586 398.338 244.586 419.574 229.884 c 128,-1,51
 440.809 215.183 440.809 215.183 470.042 206.464 c 0,52,53
 498.424 198 498.424 198 531.331 198 c 2,54,-1
 633.225 198 l 2,55,56
 666.134 198 666.134 198 694.515 206.464 c 0,57,58
 723.749 215.183 723.749 215.183 744.982 229.884 c 128,-1,59
 766.027 244.586 766.027 244.586 776.161 264.823 c 0,60,61
 786 284.473 786 284.473 786 307.255 c 2,30,-1
EndSplineSet
EndChar

StartChar: q
Encoding: 113 113 84
Width: 1134
Flags: HW
LayerCount: 2
Fore
SplineSet
1011 -410 m 1,0,-1
 760.44 -410 l 1,1,-1
 760.44 27.8369 l 1,2,3
 743.22 19.7002 743.22 19.7002 725.484 12.9248 c 0,4,5
 639.281 -20 639.281 -20 539.278 -20 c 2,6,-1
 500.761 -20 l 2,7,8
 410.758 -20 410.758 -20 337.962 7.60156 c 0,9,10
 273.903 32.458 273.903 32.458 225.938 76.0195 c 128,-1,11
 177.973 119.58 177.973 119.58 150.602 177.757 c 0,12,13
 123 236.424 123 236.424 123 302.212 c 2,14,-1
 123 721.788 l 2,15,16
 123 787.577 123 787.577 150.602 846.243 c 0,17,18
 177.975 904.422 177.975 904.422 225.938 947.98 c 128,-1,19
 273.901 991.538 273.901 991.538 337.962 1016.4 c 0,20,21
 410.75 1044 410.75 1044 500.761 1044 c 2,22,-1
 539.278 1044 l 2,23,24
 648.262 1044 648.262 1044 740.491 1004.53 c 0,25,26
 791.375 982.753 791.375 982.753 833.071 952.187 c 1,27,-1
 891.412 1024 l 1,28,-1
 1011 1024 l 1,29,-1
 1011 -410 l 1,0,-1
760.44 307.255 m 2,30,-1
 760.44 716.745 l 2,31,32
 760.44 739.528 760.44 739.528 748.215 759.177 c 0,33,34
 735.623 779.415 735.623 779.415 714.39 794.116 c 128,-1,35
 693.158 808.817 693.158 808.817 663.928 817.536 c 0,36,37
 635.55 826 635.55 826 602.645 826 c 2,38,-1
 500.761 826 l 2,39,40
 467.857 826 467.857 826 439.478 817.536 c 0,41,42
 410.249 808.818 410.249 808.818 389.016 794.116 c 128,-1,43
 367.974 779.415 367.974 779.415 357.839 759.177 c 0,44,45
 348 739.528 348 739.528 348 716.745 c 2,46,-1
 348 307.255 l 2,47,48
 348 284.473 348 284.473 357.839 264.823 c 0,49,50
 367.973 244.586 367.973 244.586 389.016 229.884 c 128,-1,51
 410.248 215.183 410.248 215.183 439.478 206.464 c 0,52,53
 467.857 198 467.857 198 500.761 198 c 2,54,-1
 602.645 198 l 2,55,56
 635.55 198 635.55 198 663.928 206.464 c 0,57,58
 693.159 215.183 693.159 215.183 714.39 229.884 c 128,-1,59
 735.624 244.586 735.624 244.586 748.215 264.823 c 0,60,61
 760.44 284.473 760.44 284.473 760.44 307.255 c 2,30,-1
EndSplineSet
EndChar

StartChar: r
Encoding: 114 114 85
Width: 690
Flags: HW
LayerCount: 2
Fore
SplineSet
649 805 m 1,0,-1
 475 805 l 2,1,2
 448.518 805 448.518 805 425.677 796.268 c 0,3,4
 402.152 787.273 402.152 787.273 385.062 772.105 c 128,-1,5
 367.974 756.938 367.974 756.938 357.839 736.059 c 0,6,7
 348 715.787 348 715.787 348 692.282 c 2,8,-1
 348 0 l 1,9,-1
 123 0 l 1,10,-1
 123 1024 l 1,11,-1
 242.812 1024 l 1,12,-1
 288.914 952.438 l 1,13,14
 322.728 982.993 322.728 982.993 363.703 1004.61 c 0,15,16
 438.381 1044 438.381 1044 526 1044 c 2,17,-1
 649 1044 l 1,18,-1
 649 805 l 1,0,-1
EndSplineSet
EndChar

StartChar: s
Encoding: 115 115 86
Width: 1144
Flags: HW
LayerCount: 2
Fore
SplineSet
1001.89 405.856 m 0,0,1
 1031 352.443 1031 352.443 1031 277.078 c 0,2,3
 1031 211.487 1031 211.487 1000.88 156.287 c 0,4,5
 971.269 102.019 971.269 102.019 920.265 62.9727 c 0,6,7
 870.181 24.6318 870.181 24.6318 804.895 3.55859 c 0,8,9
 725.28 -20 725.28 -20 631.298 -20 c 2,10,-1
 522.702 -20 l 2,11,12
 427.105 -20 427.105 -20 346.914 7.41113 c 0,13,14
 281.521 34.6094 281.521 34.6094 232.091 82.2959 c 128,-1,15
 182.737 129.907 182.737 129.907 153.231 193.548 c 0,16,17
 123 258.752 123 258.752 123 332 c 2,18,-1
 123 416.377 l 1,19,-1
 348 452.963 l 1,20,-1
 348 325 l 2,21,22
 348 299.538 348 299.538 358.533 277.454 c 0,23,24
 370.146 253.815 370.146 253.815 395.024 236.475 c 0,25,26
 420.559 218.677 420.559 218.677 454.389 208.158 c 0,27,28
 487.062 198 487.062 198 522.702 198 c 2,29,-1
 631.298 198 l 2,30,31
 669.646 198 669.646 198 704.535 205.583 c 0,32,33
 738.35 212.932 738.35 212.932 764.123 226.325 c 0,34,35
 787.165 238.624 787.165 238.624 797.521 255.862 c 0,36,37
 807 271.639 807 271.639 807 293.191 c 0,38,39
 807 328.061 807 328.061 791.938 347.6 c 0,40,41
 770.727 370.508 770.727 370.508 731.185 386.31 c 0,42,43
 685.837 404.433 685.837 404.433 626.709 416.624 c 0,44,45
 560.279 430.321 560.279 430.321 490.5 444.03 c 0,46,47
 417.31 458.408 417.31 458.408 352.721 476.975 c 0,48,49
 294.776 497.392 294.776 497.392 249.097 530.829 c 0,50,51
 201.06 565.991 201.06 565.991 172.199 618.414 c 0,52,53
 143 671.449 143 671.449 143 746.907 c 0,54,55
 143 812.115 143 812.115 171.773 867.046 c 0,56,57
 200.144 921.206 200.144 921.206 248.832 960.298 c 0,58,59
 297.002 998.972 297.002 998.972 360.545 1020.23 c 0,60,61
 441.556 1044 441.556 1044 535.945 1044 c 2,62,-1
 631.298 1044 l 2,63,64
 727.242 1044 727.242 1044 806.038 1016.4 c 0,65,66
 870.102 989.022 870.102 989.022 918.062 941.062 c 128,-1,67
 966.03 893.095 966.03 893.095 993.398 829.038 c 0,68,69
 1021 764.437 1021 764.437 1021 692 c 2,70,-1
 1021 644.623 l 1,71,-1
 796 608.037 l 1,72,-1
 796 699 l 2,73,74
 796 725.483 796 725.483 786.161 748.323 c 0,75,76
 773.038 771.849 773.038 771.849 750.406 788.938 c 128,-1,77
 727.775 806.026 727.775 806.026 696.619 816.161 c 0,78,79
 666.371 826 666.371 826 631.298 826 c 2,80,-1
 535.945 826 l 2,81,82
 498.063 826 498.063 826 465.557 818.608 c 0,83,84
 434.837 811.623 434.837 811.623 412.945 799.062 c 0,85,86
 391.95 787.015 391.95 787.015 379.577 769.798 c 0,87,88
 368 753.345 368 753.345 368 730.806 c 0,89,90
 368 698.229 368 698.229 386.902 680.274 c 0,91,92
 410.264 658.367 410.264 658.367 450.079 642.794 c 0,93,94
 495.672 624.96 495.672 624.96 555.102 612.708 c 0,95,96
 621.821 598.949 621.821 598.949 691.939 584.148 c 0,97,98
 764.35 568.861 764.35 568.861 822.082 549.396 c 0,99,100
 879.75 528.061 879.75 528.061 925.198 494.279 c 0,101,102
 973.109 458.667 973.109 458.667 1001.89 405.856 c 0,0,1
EndSplineSet
EndChar

StartChar: t
Encoding: 116 116 87
Width: 915
Flags: HW
LayerCount: 2
Fore
SplineSet
812 0 m 1,0,-1
 649 0 l 2,1,2
 582.63 0 582.63 0 499.066 25.0508 c 0,3,4
 406.478 47.1094 406.478 47.1094 337.833 86.1885 c 0,5,6
 276.08 124.838 276.08 124.838 250.798 175.794 c 0,7,8
 225 227.79 225 227.79 225 286.772 c 2,9,-1
 225 805 l 1,10,-1
 41 805 l 1,11,-1
 41 1024 l 1,12,-1
 225 1024 l 1,13,-1
 225 1262.38 l 1,14,-1
 543.816 1298.96 l 1,15,-1
 543.816 1024 l 1,16,-1
 812 1024 l 1,17,-1
 812 805 l 1,18,-1
 543.816 805 l 1,19,-1
 543.816 300.768 l 2,20,21
 543.816 283.382 543.816 283.382 555.287 269.085 c 0,22,23
 566.923 254.094 566.923 254.094 580.062 242.902 c 128,-1,24
 593.075 231.818 593.075 231.818 610.985 225.321 c 0,25,26
 628.408 219 628.408 219 649 219 c 2,27,-1
 812 219 l 1,28,-1
 812 0 l 1,0,-1
EndSplineSet
EndChar

StartChar: u
Encoding: 117 117 88
Width: 1134
Flags: HW
LayerCount: 2
Fore
SplineSet
1011 0 m 1,0,-1
 891.412 0 l 1,1,-1
 844.457 71.8135 l 1,2,3
 810.898 41.248 810.898 41.248 765.07 19.4707 c 0,4,5
 668.309 -20 668.309 -20 553.964 -20 c 2,6,-1
 513.554 -20 l 2,7,8
 419.125 -20 419.125 -20 337.962 7.60156 c 0,9,10
 273.903 32.4756 273.903 32.4756 225.938 76.0664 c 128,-1,11
 177.973 119.657 177.973 119.657 150.602 177.874 c 0,12,13
 123 236.581 123 236.581 123 302.414 c 2,14,-1
 123 1024 l 1,15,-1
 348 1024 l 1,16,-1
 348 311.041 l 2,17,18
 348 287.469 348 287.469 360.826 267.139 c 0,19,20
 374.036 246.2 374.036 246.2 396.314 230.988 c 128,-1,21
 418.59 215.777 418.59 215.777 449.257 206.758 c 0,22,23
 479.032 198 479.032 198 513.554 198 c 2,24,-1
 620.446 198 l 2,25,26
 654.969 198 654.969 198 684.743 206.758 c 0,27,28
 704.89 212.684 704.89 212.684 721.322 221.226 c 0,29,30
 729.977 225.725 729.977 225.725 737.686 230.988 c 0,31,32
 759.964 246.2 759.964 246.2 773.174 267.139 c 0,33,34
 786 287.469 786 287.469 786 311.041 c 2,35,-1
 786 1024 l 1,36,-1
 1011 1024 l 1,37,-1
 1011 0 l 1,0,-1
EndSplineSet
EndChar

StartChar: v
Encoding: 118 118 89
Width: 1031
Flags: HW
LayerCount: 2
Fore
SplineSet
1053.38 1024 m 1,0,-1
 617.719 0 l 1,1,-1
 455.668 0 l 1,2,-1
 20 1024 l 1,3,-1
 251.575 1024 l 1,4,-1
 537.201 342.369 l 1,5,-1
 821.758 1024 l 1,6,-1
 1053.38 1024 l 1,0,-1
EndSplineSet
EndChar

StartChar: w
Encoding: 119 119 90
Width: 1654
Flags: HW
LayerCount: 2
Fore
SplineSet
1672.61 1024 m 1,0,-1
 1194.54 0 l 1,1,-1
 1053.25 0 l 1,2,-1
 846.803 664.072 l 1,3,-1
 538.355 0 l 1,4,-1
 396.066 0 l 1,5,-1
 20 1024 l 1,6,-1
 253.199 1024 l 1,7,-1
 463.434 357.109 l 1,8,-1
 772.221 1024 l 1,9,-1
 921.431 1024 l 1,10,-1
 1127.26 357.406 l 1,11,-1
 1439.41 1024 l 1,12,-1
 1672.61 1024 l 1,0,-1
EndSplineSet
EndChar

StartChar: x
Encoding: 120 120 91
Width: 1072
Flags: HW
LayerCount: 2
Fore
SplineSet
1061.96 -0 m 1,0,-1
 812.09 0 l 1,1,-1
 572.054 339.229 l 1,2,-1
 332.018 0 l 1,3,-1
 82 0 l 1,4,-1
 415.278 512 l 1,5,-1
 82 1024 l 1,6,-1
 332.018 1024 l 1,7,-1
 572.054 684.771 l 1,8,-1
 812.09 1024 l 1,9,-1
 1061.96 1024 l 1,10,-1
 730.037 512 l 1,11,-1
 1061.96 -0 l 1,0,-1
EndSplineSet
EndChar

StartChar: y
Encoding: 121 121 92
Width: 1011
Flags: HW
LayerCount: 2
Fore
SplineSet
1053.85 1024 m 1,0,-1
 428.687 -410 l 1,1,-1
 169.266 -410 l 1,2,-1
 395.795 102.784 l 1,3,-1
 20 1024 l 1,4,-1
 251.59 1024 l 1,5,-1
 537.216 342.369 l 1,6,-1
 821.771 1024 l 1,7,-1
 1053.85 1024 l 1,0,-1
EndSplineSet
EndChar

StartChar: z
Encoding: 122 122 93
Width: 1052
Flags: HW
LayerCount: 2
Fore
SplineSet
970 0 m 1,0,-1
 82 0 l 1,1,-1
 82 106.718 l 1,2,-1
 638.406 805 l 1,3,-1
 102 805 l 1,4,-1
 102 1024 l 1,5,-1
 970 1024 l 1,6,-1
 970 917.282 l 1,7,-1
 413.594 219 l 1,8,-1
 970 219 l 1,9,-1
 970 0 l 1,0,-1
EndSplineSet
EndChar

StartChar: braceleft
Encoding: 123 123 94
Width: 778
Flags: HW
LayerCount: 2
Fore
SplineSet
283 313 m 2
 283 355.179 283 355.179 269.648 388.559 c 0
 256.616 421.136 256.616 421.136 233.737 443.641 c 0
 210.736 466.265 210.736 466.265 178.042 478.957 c 0
 144.447 492 144.447 492 104 492 c 2
 31 492 l 1
 31 704 l 1
 113.912 704 l 1
 152.303 705.87 152.303 705.87 183.052 718.937 c 0
 213.524 731.887 213.524 731.887 235.332 754.446 c 0
 257.331 777.205 257.331 777.205 270.108 809.342 c 0
 283 841.768 283 841.768 283 883 c 2
 283 1253 l 2
 283 1340.07 283 1340.07 313.326 1413.88 c 0
 343.767 1487.97 343.767 1487.97 398.629 1542.25 c 0
 453.298 1596.35 453.298 1596.35 527.119 1626.67 c 0
 600.937 1657 600.937 1657 686 1657 c 2
 747 1657 l 1
 747 1444 l 1
 686 1444 l 2
 645.662 1444 645.662 1444 612.648 1431.03 c 0
 580.34 1418.34 580.34 1418.34 557.263 1395.64 c 0
 534.383 1373.13 534.383 1373.13 521.352 1340.56 c 0
 508 1307.18 508 1307.18 508 1266 c 2
 508 895 l 2
 508 785.008 508 785.008 459.284 695.599 c 0
 428.498 639.097 428.498 639.097 383.944 597.47 c 1
 428.495 555.185 428.495 555.185 459.15 499.645 c 0
 508 411.139 508 411.139 508 301 c 2
 508 -70 l 2
 508 -111.179 508 -111.179 521.352 -144.559 c 0
 534.384 -177.138 534.384 -177.138 557.263 -199.641 c 0
 580.341 -222.339 580.341 -222.339 612.648 -235.032 c 0
 645.658 -248 645.658 -248 686 -248 c 2
 747 -248 l 1
 747 -461 l 1
 686 -461 l 2
 600.931 -461 600.931 -461 527.119 -430.674 c 0
 453.293 -400.342 453.293 -400.342 398.629 -346.253 c 0
 343.765 -291.966 343.765 -291.966 313.326 -217.881 c 0
 283 -144.07 283 -144.07 283 -57 c 2
 283 313 l 2
EndSplineSet
EndChar

StartChar: bar
Encoding: 124 124 95
Width: 457
Flags: HW
LayerCount: 2
Fore
SplineSet
113 -461 m 1
 113 1657 l 1
 344 1657 l 1
 344 -461 l 1
 113 -461 l 1
EndSplineSet
EndChar

StartChar: braceright
Encoding: 125 125 96
Width: 778
Flags: HW
LayerCount: 2
Fore
SplineSet
495 -57 m 2
 495 -144.07 495 -144.07 464.674 -217.881 c 0
 434.235 -291.965 434.235 -291.965 379.371 -346.253 c 0
 324.707 -400.342 324.707 -400.342 250.881 -430.674 c 0
 177.07 -461 177.07 -461 92 -461 c 2
 31 -461 l 1
 31 -248 l 1
 92 -248 l 2
 132.341 -248 132.341 -248 165.352 -235.032 c 0
 197.861 -222.261 197.861 -222.261 221.534 -199.351 c 0
 244.697 -176.935 244.697 -176.935 257.648 -144.559 c 0
 271 -111.179 271 -111.179 271 -70 c 2
 271 301 l 2
 271 410.867 271 410.867 318.605 499.196 c 0
 348.813 555.245 348.813 555.245 393.875 597.735 c 1
 348.708 640.088 348.708 640.088 318.54 696.425 c 0
 271 785.205 271 785.205 271 895 c 2
 271 1266 l 2
 271 1307.18 271 1307.18 257.648 1340.56 c 0
 244.697 1372.93 244.697 1372.93 221.534 1395.35 c 0
 197.859 1418.26 197.859 1418.26 165.352 1431.03 c 0
 132.336 1444 132.336 1444 92 1444 c 2
 31 1444 l 1
 31 1657 l 1
 92 1657 l 2
 177.064 1657 177.064 1657 250.881 1626.67 c 0
 324.703 1596.35 324.703 1596.35 379.371 1542.25 c 0
 434.233 1487.97 434.233 1487.97 464.674 1413.88 c 0
 495 1340.07 495 1340.07 495 1253 c 2
 495 883 l 2
 495 840.821 495 840.821 508.352 807.441 c 0
 521.303 775.064 521.303 775.064 544.466 752.649 c 0
 568.139 729.741 568.139 729.741 600.648 716.968 c 0
 633.657 704 633.657 704 674 704 c 2
 747 704 l 1
 747 492 l 1
 664.547 492 l 2
 626.7 491.066 626.7 491.066 595.729 477.684 c 0
 564.579 464.223 564.579 464.223 542.158 441.044 c 0
 519.861 417.992 519.861 417.992 507.586 386.154 c 0
 495 353.51 495 353.51 495 313 c 2
 495 -57 l 2
EndSplineSet
EndChar

StartChar: asciitilde
Encoding: 126 126 97
Width: 985
Flags: HW
LayerCount: 2
Fore
SplineSet
659 655 m 0
 674.218 655 674.218 655 684.446 660.471 c 0
 696.267 666.795 696.267 666.795 704.576 677.595 c 0
 713.877 689.686 713.877 689.686 719.176 707.239 c 0
 725 726.531 725 726.531 725 750 c 2
 725 801 l 1
 934 801 l 1
 934 750 l 2
 934 688.568 934 688.568 917.878 634.441 c 0
 901.04 577.911 901.04 577.911 866.824 535.141 c 0
 831.429 490.896 831.429 490.896 778.216 465.854 c 0
 725.401 441 725.401 441 657 441 c 0
 609.604 441 609.604 441 569.15 454.692 c 0
 531.983 467.271 531.983 467.271 499.697 485.72 c 0
 468.521 503.533 468.521 503.533 440.633 525.286 c 0
 417.129 543.621 417.129 543.621 394.71 558.565 c 0
 373.901 572.438 373.901 572.438 353.879 581.81 c 0
 340.655 588 340.655 588 326 588 c 0
 297.132 588 297.132 588 280.942 566.929 c 0
 260 539.672 260 539.672 260 494 c 2
 260 443 l 1
 51 443 l 1
 51 494 l 2
 51 555.435 51 555.435 67.1223 609.559 c 0
 84.0272 666.311 84.0272 666.311 118.953 709.203 c 0
 154.782 753.204 154.782 753.204 207.784 778.146 c 0
 260.601 803 260.601 803 328 803 c 0
 398.402 803 398.402 803 453.917 774.306 c 0
 502.006 749.45 502.006 749.45 543.253 719.058 c 0
 580.138 691.879 580.138 691.879 614.008 669.621 c 0
 636.256 655 636.256 655 659 655 c 0
EndSplineSet
EndChar

StartChar: exclamdown
Encoding: 161 161 99
Width: 428
Flags: HW
LayerCount: 2
Fore
SplineSet
358.882 -461 m 1
 69.1179 -461 l 1
 129.728 641 l 1
 298.272 641 l 1
 358.882 -461 l 1
342 1075 m 1
 342 819 l 1
 86 819 l 1
 86 1075 l 1
 342 1075 l 1
EndSplineSet
EndChar

StartChar: cent
Encoding: 162 162 100
Width: 930
Flags: HW
LayerCount: 2
Fore
SplineSet
114.746 -71 m 1
 202.494 211.371 l 1
 150.578 253.943 150.578 253.943 116.72 313.197 c 0
 72 391.457 72 391.457 72 485 c 2
 72 948 l 2
 72 1020.44 72 1020.44 99.6016 1085.04 c 0
 126.971 1149.09 126.971 1149.09 174.938 1197.06 c 0
 222.894 1245.02 222.894 1245.02 286.962 1272.4 c 0
 351.556 1300 351.556 1300 424 1300 c 2
 506 1300 l 2
 520.628 1300 520.628 1300 535.573 1298.98 c 1
 599.411 1505 l 1
 813.911 1505 l 1
 727.46 1222.07 l 1
 779.384 1180.12 779.384 1180.12 813.28 1120.8 c 0
 858 1042.54 858 1042.54 858 948 c 2
 858 863.623 l 1
 633 827.038 l 1
 633 913.197 l 1
 461.323 352 l 1
 506 352 l 2
 532.483 352 532.483 352 555.323 361.839 c 0
 578.848 371.973 578.848 371.973 595.938 389.062 c 0
 613.027 406.152 613.027 406.152 623.161 429.677 c 0
 633 452.517 633 452.517 633 479 c 2
 633 607.445 l 1
 858 569.031 l 1
 858 485 l 2
 858 412.566 858 412.566 830.398 347.962 c 0
 803.033 283.909 803.033 283.909 755.062 235.938 c 0
 707.1 187.974 707.1 187.974 643.038 160.602 c 0
 578.441 133 578.441 133 506 133 c 2
 424 133 l 2
 409.381 133 409.381 133 394.068 134.047 c 1
 330.601 -71 l 1
 114.746 -71 l 1
297 519.41 m 1
 469.547 1082 l 1
 424 1082 l 2
 397.517 1082 397.517 1082 374.677 1072.16 c 0
 351.402 1062.14 351.402 1062.14 334.432 1044.81 c 0
 317.081 1027.1 317.081 1027.1 306.839 1003.32 c 0
 297 980.483 297 980.483 297 954 c 2
 297 519.41 l 1
EndSplineSet
EndChar

StartChar: sterling
Encoding: 163 163 101
Width: 1108
Flags: HW
LayerCount: 2
Fore
SplineSet
235.197 737 m 1
 230.513 753.403 230.513 753.403 225.925 769.62 c 0
 211.484 820.682 211.484 820.682 200.146 873.247 c 0
 188.69 926.368 188.69 926.368 181.416 983.003 c 0
 174 1040.74 174 1040.74 174 1102 c 0
 174 1185.49 174 1185.49 205.643 1259.13 c 0
 237.004 1332.12 237.004 1332.12 291.938 1387.06 c 0
 346.908 1442.04 346.908 1442.04 420.498 1473.41 c 0
 494.58 1505 494.58 1505 578 1505 c 2
 606 1505 l 2
 689.492 1505 689.492 1505 763.134 1473.36 c 0
 836.143 1441.99 836.143 1441.99 891.062 1387.06 c 0
 945.998 1332.12 945.998 1332.12 977.357 1259.13 c 0
 1009 1185.49 1009 1185.49 1009 1102 c 2
 1009 1021.63 l 1
 778 984.026 l 1
 778 1102 l 2
 778 1139.41 778 1139.41 764.212 1171.21 c 0
 750.079 1203.79 750.079 1203.79 725.938 1227.94 c 0
 701.807 1252.07 701.807 1252.07 669.206 1266.21 c 0
 637.419 1280 637.419 1280 600 1280 c 2
 584 1280 l 2
 546.581 1280 546.581 1280 514.794 1266.21 c 0
 482.003 1251.99 482.003 1251.99 457.273 1227.65 c 0
 432.841 1203.61 432.841 1203.61 418.788 1171.21 c 0
 405 1139.41 405 1139.41 405 1102 c 0
 405 1050.62 405 1050.62 411.987 1001.71 c 0
 419.131 951.707 419.131 951.707 431.034 903.141 c 0
 443.196 853.515 443.196 853.515 458.296 803.83 c 0
 468.352 770.753 468.352 770.753 478.269 737 c 1
 831 737 l 1
 831 533 l 1
 529.001 533 l 1
 533.875 505.795 533.875 505.795 537.942 478.522 c 0
 547 417.793 547 417.793 547 352 c 0
 547 277.327 547 277.327 523.63 210.634 c 0
 517.06 191.885 517.06 191.885 509.037 174 c 1
 1016 174 l 1
 1016 -51 l 1
 72 -51 l 1
 72 174 l 1
 158 174 l 2
 194.666 174 194.666 174 222.9 187.2 c 0
 251.627 200.631 251.627 200.631 271.542 223.496 c 0
 292.278 247.304 292.278 247.304 304.037 279.836 c 0
 316 312.933 316 312.933 316 352 c 0
 316 407.81 316 407.81 307.182 461.187 c 0
 301.25 497.095 301.25 497.095 293.457 533 c 1
 72 533 l 1
 72 737 l 1
 235.197 737 l 1
EndSplineSet
EndChar

StartChar: currency
Encoding: 164 164 102
Width: 1237
Flags: HW
LayerCount: 2
Fore
SplineSet
214.721 1284.65 m 1
 371.514 1126.81 l 1
 416.092 1153.96 416.092 1153.96 465.804 1171.19 c 0
 537.409 1196 537.409 1196 618 1196 c 0
 698.52 1196 698.52 1196 770.579 1171.23 c 0
 820.077 1154.21 820.077 1154.21 864.104 1127.03 c 1
 1022.52 1284.4 l 1
 1183.73 1119.61 l 1
 1028.07 963.949 l 1
 1054.19 918.931 1054.19 918.931 1070.81 869.856 c 0
 1095 798.393 1095 798.393 1095 719 c 0
 1095 639.655 1095 639.655 1070.84 567.759 c 0
 1053.97 517.545 1053.97 517.545 1026.81 473.123 c 1
 1186.4 312.484 l 1
 1021.84 151.499 l 1
 861.555 309.703 l 1
 817.902 283.875 817.902 283.875 769.128 267.617 c 0
 698.276 244 698.276 244 618 244 c 0
 538.848 244 538.848 244 467.1 267.542 c 0
 417.397 283.85 417.397 283.85 373.72 309.595 c 1
 215.394 151.269 l 1
 50.5965 312.484 l 1
 210.248 473.179 l 1
 183.101 517.958 183.101 517.958 166.931 568.443 c 0
 144 640.033 144 640.033 144 719 c 0
 144 798.09 144 798.09 167.003 868.781 c 0
 183.106 918.268 183.106 918.268 208.923 962.34 c 1
 53.5036 1119.85 l 1
 214.721 1284.65 l 1
368 719 m 0
 368 665.35 368 665.35 387.464 619.385 c 0
 407.154 572.884 407.154 572.884 440.783 538.841 c 0
 474.391 504.818 474.391 504.818 520.397 484.743 c 0
 565.645 465 565.645 465 618 465 c 0
 671.446 465 671.446 465 717.258 484.811 c 0
 763.822 504.947 763.822 504.947 797.938 539.062 c 0
 831.912 573.037 831.912 573.037 851.536 619.385 c 0
 871 665.354 871 665.354 871 719 c 0
 871 772.733 871 772.733 851.473 819.265 c 0
 831.788 866.175 831.788 866.175 797.72 900.657 c 0
 763.673 935.118 763.673 935.118 717.258 955.189 c 0
 671.446 975 671.446 975 618 975 c 0
 565.642 975 565.642 975 520.397 955.256 c 0
 474.533 935.242 474.533 935.242 441 900.88 c 0
 407.273 866.32 407.273 866.32 387.527 819.265 c 0
 368 772.733 368 772.733 368 719 c 0
EndSplineSet
EndChar

StartChar: yen
Encoding: 165 165 103
Width: 950
Flags: HW
LayerCount: 2
Fore
SplineSet
315.041 762 m 1
 -40.9593 1485 l 1
 211.662 1485 l 1
 475 952.968 l 1
 738.338 1485 l 1
 990.959 1485 l 1
 634.959 762 l 1
 878 762 l 1
 878 557 l 1
 592 557 l 1
 592 526 l 1
 878 526 l 1
 878 322 l 1
 592 322 l 1
 592 -51 l 1
 361 -51 l 1
 361 322 l 1
 72 322 l 1
 72 526 l 1
 361 526 l 1
 361 557 l 1
 72 557 l 1
 72 762 l 1
 315.041 762 l 1
EndSplineSet
EndChar

StartChar: brokenbar
Encoding: 166 166 104
Width: 457
Flags: HW
LayerCount: 2
Fore
SplineSet
113 -461 m 1
 113 547 l 1
 344 547 l 1
 344 -461 l 1
 113 -461 l 1
113 649 m 1
 113 1657 l 1
 344 1657 l 1
 344 649 l 1
 113 649 l 1
EndSplineSet
EndChar

StartChar: section
Encoding: 167 167 105
Width: 1073
Flags: HW
LayerCount: 2
Fore
SplineSet
92 1102 m 2
 92 1185.49 92 1185.49 123.643 1259.13 c 0
 155.004 1332.13 155.004 1332.13 209.938 1387.06 c 0
 264.91 1442.04 264.91 1442.04 338.498 1473.41 c 0
 412.58 1505 412.58 1505 496 1505 c 2
 588 1505 l 2
 671.492 1505 671.492 1505 745.134 1473.36 c 0
 818.143 1441.99 818.143 1441.99 873.062 1387.06 c 0
 927.998 1332.12 927.998 1332.12 959.357 1259.13 c 0
 991 1185.49 991 1185.49 991 1102 c 2
 991 1021.63 l 1
 760 984.026 l 1
 760 1102 l 2
 760 1139.41 760 1139.41 746.212 1171.21 c 0
 732.079 1203.79 732.079 1203.79 707.938 1227.94 c 0
 683.807 1252.07 683.807 1252.07 651.206 1266.21 c 0
 619.418 1280 619.418 1280 582 1280 c 2
 502 1280 l 2
 464.581 1280 464.581 1280 432.794 1266.21 c 0
 400.004 1251.99 400.004 1251.99 375.273 1227.65 c 0
 350.841 1203.61 350.841 1203.61 336.788 1171.21 c 0
 323 1139.41 323 1139.41 323 1102 c 2
 323 1075 l 2
 323 1020.47 323 1020.47 344.403 985.78 c 0
 367.855 947.773 367.855 947.773 407.188 920.322 c 0
 450.468 890.116 450.468 890.116 505.643 867.771 c 0
 566.002 843.327 566.002 843.327 629.877 817.878 c 0
 695.931 791.561 695.931 791.561 758.458 760.04 c 0
 825.386 726.302 825.386 726.302 878.673 676.9 c 0
 934.211 625.411 934.211 625.411 967.453 552.049 c 0
 1001 478.016 1001 478.016 1001 375 c 2
 1001 332 l 2
 1001 276.627 1001 276.627 985.91 225.549 c 0
 975.518 190.374 975.518 190.374 959.062 157.63 c 1
 975.68 123.462 975.68 123.462 986.154 85.5959 c 0
 1001 31.926 1001 31.926 1001 -35 c 2
 1001 -78 l 2
 1001 -162.183 1001 -162.183 966.817 -236.349 c 0
 933.338 -308.986 933.338 -308.986 877.003 -363.613 c 0
 820.602 -418.305 820.602 -418.305 746.243 -449.524 c 0
 671.27 -481 671.27 -481 588 -481 c 2
 485 -481 l 2
 401.727 -481 401.727 -481 326.757 -449.524 c 0
 252.396 -418.303 252.396 -418.303 195.997 -363.613 c 0
 139.666 -308.99 139.666 -308.99 106.183 -236.349 c 0
 72 -162.188 72 -162.188 72 -78 c 2
 72 23.7023 l 1
 303 59.5163 l 1
 303 -78 l 2
 303 -114.615 303 -114.615 317.658 -145.811 c 0
 333.016 -178.496 333.016 -178.496 358.918 -202.829 c 0
 385.119 -227.442 385.119 -227.442 420 -241.875 c 0
 454.135 -256 454.135 -256 492 -256 c 2
 582 -256 l 2
 619.757 -256 619.757 -256 653.307 -241.956 c 0
 687.804 -227.515 687.804 -227.515 714.082 -202.829 c 0
 739.983 -178.496 739.983 -178.496 755.342 -145.811 c 0
 770 -114.617 770 -114.617 770 -78 c 2
 770 -35 l 2
 770 25.0404 770 25.0404 748.111 62.0246 c 0
 724.553 101.827 724.553 101.827 685.235 130.087 c 0
 642.347 160.912 642.347 160.912 587.694 182.594 c 0
 527.665 206.408 527.665 206.408 464.093 230.247 c 0
 397.988 255.036 397.988 255.036 335.455 285.011 c 0
 268.258 317.221 268.258 317.221 214.753 365.71 c 0
 159.03 416.207 159.03 416.207 125.673 488.675 c 0
 92 561.826 92 561.826 92 666 c 2
 92 692 l 2
 92 750.329 92 750.329 107.564 803.362 c 0
 118.577 840.887 118.577 840.887 136.361 876.123 c 1
 118.349 910.374 118.349 910.374 107.368 949.824 c 0
 92 1005.03 92 1005.03 92 1075 c 2
 92 1102 l 2
770 375 m 2
 770 431.178 770 431.178 750.566 467.377 c 0
 730.086 505.523 730.086 505.523 695.929 532.447 c 0
 658.737 561.762 658.737 561.762 609.962 582.602 c 0
 555.964 605.672 555.964 605.672 498.549 627.264 c 0
 439.154 649.599 439.154 649.599 379.799 674.459 c 0
 351.069 686.491 351.069 686.491 323.236 701.177 c 1
 323 696.416 323 696.416 323 692 c 2
 323 666 l 2
 323 613.674 323 613.674 342.159 580.514 c 0
 363.166 544.157 363.166 544.157 397.778 517.282 c 0
 435.176 488.245 435.176 488.245 484.742 466.811 c 0
 539.513 443.125 539.513 443.125 598.235 419.934 c 0
 658.625 396.083 658.625 396.083 718.567 369.669 c 0
 745.007 358.018 745.007 358.018 770 344.212 c 1
 770 375 l 2
EndSplineSet
EndChar

StartChar: dieresis
Encoding: 168 168 106
Width: 950
Flags: HW
LayerCount: 2
Fore
SplineSet
154 1180 m 1
 154 1435 l 1
 409 1435 l 1
 409 1180 l 1
 154 1180 l 1
541 1180 m 1
 541 1435 l 1
 796 1435 l 1
 796 1180 l 1
 541 1180 l 1
EndSplineSet
EndChar

StartChar: copyright
Encoding: 169 169 107
Width: 1679
Flags: HW
LayerCount: 2
Fore
SplineSet
51 717 m 0
 51 826.054 51 826.054 79.4133 926.838 c 0
 107.686 1027.12 107.686 1027.12 158.986 1114.76 c 0
 210.286 1202.4 210.286 1202.4 281.938 1274.06 c 0
 353.572 1345.7 353.572 1345.7 441.236 1397.01 c 0
 528.913 1448.33 528.913 1448.33 629.73 1476.61 c 0
 730.977 1505 730.977 1505 840 1505 c 0
 949.056 1505 949.056 1505 1049.84 1476.59 c 0
 1150.11 1448.32 1150.11 1448.32 1237.76 1397.01 c 0
 1325.41 1345.72 1325.41 1345.72 1397.06 1274.06 c 0
 1468.72 1202.41 1468.72 1202.41 1520.01 1114.76 c 0
 1571.31 1027.11 1571.31 1027.11 1599.59 926.838 c 0
 1628 826.062 1628 826.062 1628 717 c 0
 1628 607.98 1628 607.98 1599.61 506.73 c 0
 1571.31 405.846 1571.31 405.846 1519.94 318.618 c 0
 1468.71 231.621 1468.71 231.621 1397.2 159.572 c 0
 1325.42 87.2584 1325.42 87.2584 1237.56 36.3694 c 0
 1150 -14.3511 1150 -14.3511 1049.84 -42.5867 c 0
 949.047 -71 949.047 -71 840 -71 c 0
 730.981 -71 730.981 -71 629.73 -42.6058 c 0
 529.014 -14.3618 529.014 -14.3618 441.437 36.3694 c 0
 353.572 87.2669 353.572 87.2669 281.804 159.572 c 0
 210.297 231.613 210.297 231.613 159.055 318.618 c 0
 107.685 405.842 107.685 405.842 79.3942 506.73 c 0
 51 607.986 51 607.986 51 717 c 0
268 717 m 0
 268 596.216 268 596.216 312.065 490.644 c 0
 356.276 384.723 356.276 384.723 433.38 306.242 c 0
 510.451 227.795 510.451 227.795 614.888 182.248 c 0
 718.637 137 718.637 137 840 137 c 0
 960.363 137 960.363 137 1064.11 182.248 c 0
 1168.56 227.798 1168.56 227.798 1245.62 306.242 c 0
 1322.74 384.741 1322.74 384.741 1366.94 490.644 c 0
 1411 596.232 1411 596.232 1411 717 c 0
 1411 837.768 1411 837.768 1366.94 943.356 c 0
 1322.74 1049.25 1322.74 1049.25 1245.62 1127.76 c 0
 1168.56 1206.2 1168.56 1206.2 1064.11 1251.75 c 0
 960.367 1297 960.367 1297 840 1297 c 0
 718.633 1297 718.633 1297 614.888 1251.75 c 0
 510.442 1206.2 510.442 1206.2 433.38 1127.76 c 0
 356.274 1049.27 356.274 1049.27 312.065 943.356 c 0
 268 837.784 268 837.784 268 717 c 0
1128.79 375.206 m 0
 1106.84 324.6 1106.84 324.6 1068.27 286.65 c 0
 1030 248.988 1030 248.988 979.794 227.212 c 0
 928.584 205 928.584 205 870 205 c 2
 809 205 l 2
 750.416 205 750.416 205 699.206 227.212 c 0
 648.801 249.074 648.801 249.074 610.938 286.938 c 0
 573.071 324.804 573.071 324.804 551.212 375.206 c 0
 529 426.42 529 426.42 529 485 c 2
 529 948 l 2
 529 1006.58 529 1006.58 551.212 1057.79 c 0
 572.983 1108 572.983 1108 610.65 1146.27 c 0
 648.6 1184.84 648.6 1184.84 699.206 1206.79 c 0
 750.412 1229 750.412 1229 809 1229 c 2
 870 1229 l 2
 928.588 1229 928.588 1229 979.794 1206.79 c 0
 1030.2 1184.92 1030.2 1184.92 1068.56 1146.56 c 0
 1106.93 1108.2 1106.93 1108.2 1128.79 1057.79 c 0
 1151 1006.58 1151 1006.58 1151 948 c 2
 1151 853.362 l 1
 934 819.396 l 1
 934 948 l 2
 934 962.235 934 962.235 928.851 973.888 c 0
 923.201 986.674 923.201 986.674 913.938 995.938 c 0
 904.674 1005.2 904.674 1005.2 891.888 1010.85 c 0
 880.235 1016 880.235 1016 866 1016 c 2
 813 1016 l 2
 799.542 1016 799.542 1016 787.218 1010.68 c 0
 774.169 1005.04 774.169 1005.04 765.062 995.938 c 0
 755.799 986.674 755.799 986.674 750.149 973.888 c 0
 745 962.235 745 962.235 745 948 c 2
 745 485 l 2
 745 471.765 745 471.765 750.149 460.112 c 0
 755.799 447.326 755.799 447.326 765.062 438.062 c 0
 774.169 428.955 774.169 428.955 787.218 423.321 c 0
 799.542 418 799.542 418 813 418 c 2
 866 418 l 2
 880.235 418 880.235 418 891.888 423.149 c 0
 904.674 428.799 904.674 428.799 913.938 438.062 c 0
 923.201 447.326 923.201 447.326 928.851 460.112 c 0
 934 471.765 934 471.765 934 485 c 2
 934 614.604 l 1
 1151 580.638 l 1
 1151 485 l 2
 1151 426.412 1151 426.412 1128.79 375.206 c 0
EndSplineSet
EndChar

StartChar: ordfeminine
Encoding: 170 170 108
Width: 717
Flags: HW
LayerCount: 2
Fore
SplineSet
295 1217 m 1
 314.516 1220 314.516 1220 334 1220 c 2
 428 1220 l 1
 428 1255 l 2
 428 1264.53 428 1264.53 424.624 1272.41 c 0
 420.993 1280.88 420.993 1280.88 414.938 1286.94 c 0
 408.438 1293.44 408.438 1293.44 399.296 1297.62 c 0
 391.896 1301 391.896 1301 383 1301 c 2
 340 1301 l 2
 331.104 1301 331.104 1301 323.704 1297.62 c 0
 314.562 1293.44 314.562 1293.44 308.062 1286.94 c 0
 302.007 1280.88 302.007 1280.88 298.376 1272.41 c 0
 295 1264.53 295 1264.53 295 1255 c 2
 295 1217 l 1
197.303 1178.29 m 1
 99 1203.39 l 1
 99 1243 l 2
 99 1293.88 99 1293.88 117.193 1339.05 c 0
 135.296 1384 135.296 1384 167.422 1418.02 c 0
 199.748 1452.25 199.748 1452.25 243.796 1472.38 c 0
 288.894 1493 288.894 1493 340 1493 c 2
 383 1493 l 2
 433.602 1493 433.602 1493 477.835 1473.77 c 0
 521.452 1454.81 521.452 1454.81 553.911 1421.71 c 0
 586.112 1388.88 586.112 1388.88 604.876 1345.09 c 0
 624 1300.47 624 1300.47 624 1251 c 2
 624 744 l 1
 504.989 744 l 1
 485.283 773.012 l 1
 470.229 763.241 470.229 763.241 454.07 755.266 c 0
 404.9 731 404.9 731 352 731 c 2
 334 731 l 2
 283.532 731 283.532 731 238.91 750.124 c 0
 194.413 769.194 194.413 769.194 161.751 803.138 c 0
 129.607 836.543 129.607 836.543 110.923 881.385 c 0
 92 926.801 92 926.801 92 979 c 0
 92 1029.61 92 1029.61 111.229 1073.84 c 0
 130.087 1117.21 130.087 1117.21 162.438 1149.56 c 0
 178.051 1165.18 178.051 1165.18 197.303 1178.29 c 1
428 1041 m 1
 334 1041 l 2
 315.124 1041 315.124 1041 302.062 1027.94 c 0
 289 1014.87 289 1014.87 289 995 c 2
 289 969 l 2
 289 960.468 289 960.468 292.376 952.59 c 0
 296.204 943.66 296.204 943.66 302.736 936.876 c 0
 309.015 930.355 309.015 930.355 317.704 926.383 c 0
 325.104 923 325.104 923 334 923 c 2
 383 923 l 2
 391.896 923 391.896 923 399.296 926.383 c 0
 407.985 930.355 407.985 930.355 414.264 936.876 c 0
 420.796 943.66 420.796 943.66 424.624 952.59 c 0
 428 960.468 428 960.468 428 969 c 2
 428 1041 l 1
92 682 m 1
 624 682 l 1
 624 502 l 1
 92 502 l 1
 92 682 l 1
EndSplineSet
EndChar

StartChar: guillemotleft
Encoding: 171 171 109
Width: 961
Flags: HW
LayerCount: 2
Fore
SplineSet
796.714 11.5893 m 1
 348.438 467 l 1
 796.714 922.411 l 1
 904.953 814.171 l 1
 651.173 467 l 1
 904.953 119.829 l 1
 796.714 11.5893 l 1
458.714 11.5893 m 1
 10.4378 467 l 1
 458.714 922.411 l 1
 566.953 814.171 l 1
 313.173 467 l 1
 566.953 119.829 l 1
 458.714 11.5893 l 1
EndSplineSet
EndChar

StartChar: logicalnot
Encoding: 172 172 110
Width: 1270
Flags: HW
LayerCount: 2
Fore
SplineSet
1198 833 m 1
 1198 258 l 1
 967 258 l 1
 967 602 l 1
 72 602 l 1
 72 833 l 1
 1198 833 l 1
EndSplineSet
EndChar

StartChar: registered
Encoding: 174 174 111
Width: 1679
Flags: HW
LayerCount: 2
Fore
SplineSet
955 936 m 2
 955 949.458 955 949.458 949.679 961.782 c 0
 944.044 974.831 944.044 974.831 934.938 983.938 c 0
 925.831 993.044 925.831 993.044 912.782 998.679 c 0
 900.458 1004 900.458 1004 887 1004 c 2
 766 1004 l 1
 766 760 l 1
 887 760 l 2
 900.458 760 900.458 760 912.782 765.321 c 0
 925.831 770.956 925.831 770.956 934.938 780.062 c 0
 944.044 789.169 944.044 789.169 949.679 802.218 c 0
 955 814.542 955 814.542 955 829 c 2
 955 936 l 2
973.004 217 m 1
 766 542.292 l 1
 766 217 l 1
 549 217 l 1
 549 1216 l 1
 891 1216 l 2
 949.588 1216 949.588 1216 1000.79 1193.79 c 0
 1051.2 1171.92 1051.2 1171.92 1089.06 1134.06 c 0
 1126.93 1096.2 1126.93 1096.2 1148.79 1045.79 c 0
 1171 994.585 1171 994.585 1171 936 c 2
 1171 829 l 2
 1171 776.934 1171 776.934 1153.38 728.925 c 0
 1135.73 680.861 1135.73 680.861 1103.81 643.415 c 0
 1072.11 606.23 1072.11 606.23 1029 581.335 c 0
 1018.26 575.133 1018.26 575.133 1006.1 569.631 c 1
 1013.35 558.246 1013.35 558.246 1020.61 546.752 c 0
 1048.18 503.14 1048.18 503.14 1075.75 459.03 c 0
 1103.35 414.865 1103.35 414.865 1130.05 372.848 c 0
 1156.92 330.56 1156.92 330.56 1179.62 296.008 c 2
 1200.16 264.76 l 1
 1223.97 284.203 1223.97 284.203 1245.62 306.242 c 0
 1322.74 384.741 1322.74 384.741 1366.94 490.644 c 0
 1411 596.232 1411 596.232 1411 717 c 0
 1411 837.768 1411 837.768 1366.94 943.356 c 0
 1322.74 1049.25 1322.74 1049.25 1245.62 1127.76 c 0
 1168.56 1206.2 1168.56 1206.2 1064.11 1251.75 c 0
 960.367 1297 960.367 1297 840 1297 c 0
 718.633 1297 718.633 1297 614.888 1251.75 c 0
 510.442 1206.2 510.442 1206.2 433.38 1127.76 c 0
 356.274 1049.27 356.274 1049.27 312.065 943.356 c 0
 268 837.784 268 837.784 268 717 c 0
 268 596.216 268 596.216 312.065 490.644 c 0
 356.276 384.723 356.276 384.723 433.38 306.242 c 0
 510.451 227.795 510.451 227.795 614.888 182.248 c 0
 718.637 137 718.637 137 840 137 c 0
 960.363 137 960.363 137 1064.11 182.248 c 0
 1099.6 197.725 1099.6 197.725 1131.93 217 c 1
 973.004 217 l 1
51 717 m 0
 51 826.054 51 826.054 79.4133 926.838 c 0
 107.686 1027.12 107.686 1027.12 158.986 1114.76 c 0
 210.286 1202.4 210.286 1202.4 281.938 1274.06 c 0
 353.572 1345.7 353.572 1345.7 441.236 1397.01 c 0
 528.913 1448.33 528.913 1448.33 629.73 1476.61 c 0
 730.977 1505 730.977 1505 840 1505 c 0
 949.056 1505 949.056 1505 1049.84 1476.59 c 0
 1150.11 1448.32 1150.11 1448.32 1237.76 1397.01 c 0
 1325.41 1345.72 1325.41 1345.72 1397.06 1274.06 c 0
 1468.72 1202.41 1468.72 1202.41 1520.01 1114.76 c 0
 1571.31 1027.11 1571.31 1027.11 1599.59 926.838 c 0
 1628 826.062 1628 826.062 1628 717 c 0
 1628 607.98 1628 607.98 1599.61 506.73 c 0
 1571.31 405.846 1571.31 405.846 1519.94 318.618 c 0
 1468.71 231.621 1468.71 231.621 1397.2 159.572 c 0
 1325.42 87.2584 1325.42 87.2584 1237.56 36.3694 c 0
 1150 -14.3511 1150 -14.3511 1049.84 -42.5867 c 0
 949.047 -71 949.047 -71 840 -71 c 0
 730.981 -71 730.981 -71 629.73 -42.6058 c 0
 529.014 -14.3618 529.014 -14.3618 441.437 36.3694 c 0
 353.572 87.2669 353.572 87.2669 281.804 159.572 c 0
 210.297 231.613 210.297 231.613 159.055 318.618 c 0
 107.685 405.842 107.685 405.842 79.3942 506.73 c 0
 51 607.986 51 607.986 51 717 c 0
EndSplineSet
EndChar

StartChar: macron
Encoding: 175 175 112
Width: 1010
Flags: HW
LayerCount: 2
Fore
SplineSet
154 1380 m 1
 856 1380 l 1
 856 1180 l 1
 154 1180 l 1
 154 1380 l 1
EndSplineSet
EndChar

StartChar: degree
Encoding: 176 176 113
Width: 856
Flags: HW
LayerCount: 2
Fore
SplineSet
92 1169 m 0
 92 1238.56 92 1238.56 118.694 1300.25 c 0
 145.057 1361.18 145.057 1361.18 190.438 1406.56 c 0
 235.814 1451.94 235.814 1451.94 296.747 1478.31 c 0
 358.441 1505 358.441 1505 428 1505 c 0
 497.557 1505 497.557 1505 559.253 1478.31 c 0
 620.186 1451.94 620.186 1451.94 665.562 1406.56 c 0
 710.945 1361.18 710.945 1361.18 737.306 1300.25 c 0
 764 1238.56 764 1238.56 764 1169 c 0
 764 1099.35 764 1099.35 737.234 1038.08 c 0
 710.88 977.755 710.88 977.755 665.562 932.438 c 0
 620.18 887.055 620.18 887.055 559.253 860.694 c 0
 497.557 834 497.557 834 428 834 c 0
 358.441 834 358.441 834 296.747 860.694 c 0
 235.82 887.056 235.82 887.056 190.438 932.438 c 0
 145.123 977.751 145.123 977.751 118.766 1038.08 c 0
 92 1099.35 92 1099.35 92 1169 c 0
309 1169 m 0
 309 1144.47 309 1144.47 318.376 1122.59 c 0
 328.118 1099.86 328.118 1099.86 344.448 1083.17 c 0
 360.484 1066.79 360.484 1066.79 382.363 1057.26 c 0
 403.622 1048 403.622 1048 428 1048 c 0
 452.375 1048 452.375 1048 473.637 1057.26 c 0
 495.516 1066.79 495.516 1066.79 511.552 1083.17 c 0
 527.882 1099.86 527.882 1099.86 537.624 1122.59 c 0
 547 1144.47 547 1144.47 547 1169 c 0
 547 1194.38 547 1194.38 537.741 1215.64 c 0
 527.989 1238.03 527.989 1238.03 511.552 1254.83 c 0
 495.516 1271.21 495.516 1271.21 473.637 1280.74 c 0
 452.378 1290 452.378 1290 428 1290 c 0
 403.625 1290 403.625 1290 382.363 1280.74 c 0
 360.484 1271.21 360.484 1271.21 344.448 1254.83 c 0
 328.01 1238.03 328.01 1238.03 318.259 1215.64 c 0
 309 1194.38 309 1194.38 309 1169 c 0
EndSplineSet
EndChar

StartChar: plusminus
Encoding: 177 177 114
Width: 1188
Flags: HW
LayerCount: 2
Fore
SplineSet
477 256 m 1
 477 602 l 1
 31 602 l 1
 31 833 l 1
 477 833 l 1
 477 1280 l 1
 708 1280 l 1
 708 833 l 1
 1157 833 l 1
 1157 602 l 1
 708 602 l 1
 708 256 l 1
 1157 256 l 1
 1157 25 l 1
 31 25 l 1
 31 256 l 1
 477 256 l 1
EndSplineSet
EndChar

StartChar: twosuperior
Encoding: 178 178 115
Width: 692
Flags: HW
LayerCount: 2
Fore
SplineSet
340 1295 m 2
 326.124 1295 326.124 1295 316.562 1285.44 c 0
 307 1275.87 307 1275.87 307 1262 c 2
 307 1155.79 l 1
 107 1182.32 l 1
 107 1262 l 2
 107 1310.86 107 1310.86 125.925 1353.28 c 0
 144.159 1394.15 144.159 1394.15 174.568 1425.19 c 0
 205.597 1456.86 205.597 1456.86 247.323 1474.84 c 0
 289.482 1493 289.482 1493 336 1493 c 2
 365 1493 l 2
 413.178 1493 413.178 1493 455.064 1475.6 c 0
 497.166 1458.11 497.166 1458.11 528.432 1426.19 c 0
 559.796 1394.17 559.796 1394.17 577.083 1349.35 c 0
 594 1305.49 594 1305.49 594 1253 c 0
 594 1212.96 594 1212.96 582.09 1170.67 c 0
 570.943 1131.1 570.943 1131.1 552.631 1092.25 c 0
 534.904 1054.65 534.904 1054.65 512.391 1018.2 c 0
 490.321 982.468 490.321 982.468 467.145 950.866 c 0
 446.059 922.076 446.059 922.076 422.296 893 c 1
 600 893 l 1
 600 694 l 1
 92 694 l 1
 92 847.288 l 1
 110.857 862.596 l 2
 192.799 929.114 192.799 929.114 256.153 999.185 c 0
 282.701 1028.58 282.701 1028.58 308.407 1062.37 c 0
 333.327 1095.14 333.327 1095.14 352.646 1129.17 c 0
 371.288 1162.02 371.288 1162.02 382.746 1195.51 c 0
 393 1225.48 393 1225.48 393 1253 c 0
 393 1277.93 393 1277.93 384.594 1285.82 c 0
 374.812 1295 374.812 1295 362 1295 c 2
 340 1295 l 2
EndSplineSet
EndChar

StartChar: threesuperior
Encoding: 179 179 116
Width: 672
Flags: HW
LayerCount: 2
Fore
SplineSet
232 1163.93 m 1
 92 1185.15 l 1
 92 1264 l 2
 92 1310.52 92 1310.52 110.161 1352.68 c 0
 128.024 1394.15 128.024 1394.15 158.938 1425.06 c 0
 189.601 1455.73 189.601 1455.73 230.72 1474.07 c 0
 273.136 1493 273.136 1493 322 1493 c 2
 350 1493 l 2
 398.864 1493 398.864 1493 441.28 1474.07 c 0
 482.4 1455.73 482.4 1455.73 513.062 1425.06 c 0
 544.218 1393.9 544.218 1393.9 561.598 1352.06 c 0
 579 1310.17 579 1310.17 579 1264 c 2
 579 1241 l 2
 579 1156.45 579 1156.45 532.936 1097.8 c 1
 545.273 1080.49 545.273 1080.49 555.116 1060.81 c 0
 579 1013.04 579 1013.04 579 961 c 2
 579 915 l 2
 579 868.83 579 868.83 561.598 826.936 c 0
 544.218 785.093 544.218 785.093 513.062 753.938 c 0
 482.395 723.27 482.395 723.27 441.28 704.925 c 0
 398.863 686 398.863 686 350 686 c 2
 322 686 l 2
 273.136 686 273.136 686 230.72 704.925 c 0
 189.606 723.27 189.606 723.27 158.938 753.938 c 0
 128.028 784.846 128.028 784.846 110.161 826.323 c 0
 92 868.482 92 868.482 92 915 c 2
 92 993.855 l 1
 232 1015.07 l 1
 232 1163.93 l 1
293 1002 m 1
 293 915 l 2
 293 902.75 293 902.75 301.803 894.306 c 0
 311.506 885 311.506 885 326 885 c 2
 346 885 l 2
 360.494 885 360.494 885 370.197 894.306 c 0
 379 902.75 379 902.75 379 915 c 2
 379 969 l 2
 379 982.875 379 982.875 369.438 992.438 c 0
 359.875 1002 359.875 1002 346 1002 c 2
 293 1002 l 1
293 1200 m 1
 346 1200 l 2
 353.425 1200 353.425 1200 358.722 1202.3 c 0
 365.344 1205.16 365.344 1205.16 370.248 1209.85 c 0
 374.301 1213.73 374.301 1213.73 376.705 1219.28 c 0
 379 1224.58 379 1224.58 379 1231 c 2
 379 1264 l 2
 379 1270.42 379 1270.42 376.705 1275.72 c 0
 374.302 1281.27 374.302 1281.27 370.248 1285.15 c 0
 365.344 1289.84 365.344 1289.84 358.722 1292.7 c 0
 353.425 1295 353.425 1295 346 1295 c 2
 326 1295 l 2
 318.575 1295 318.575 1295 313.278 1292.7 c 0
 306.656 1289.84 306.656 1289.84 301.752 1285.15 c 0
 297.699 1281.27 297.699 1281.27 295.295 1275.72 c 0
 293 1270.42 293 1270.42 293 1264 c 2
 293 1200 l 1
EndSplineSet
EndChar

StartChar: acute
Encoding: 180 180 117
Width: 778
Flags: HW
LayerCount: 2
Fore
SplineSet
316.429 1137 m 1
 109.706 1137 l 1
 341.706 1485 l 1
 706.868 1485 l 1
 316.429 1137 l 1
EndSplineSet
EndChar

StartChar: mu
Encoding: 181 181 118
Width: 930
Flags: HW
LayerCount: 2
Fore
SplineSet
72 1075 m 1
 297 1075 l 1
 297 274 l 2
 297 247.517 297 247.517 306.839 224.677 c 0
 316.973 201.152 316.973 201.152 334.062 184.062 c 0
 351.151 166.973 351.151 166.973 374.677 156.839 c 0
 397.518 147 397.518 147 424 147 c 2
 506 147 l 2
 532.483 147 532.483 147 555.323 156.839 c 0
 570.778 163.497 570.778 163.497 583.384 173.093 c 0
 590.023 178.148 590.023 178.148 595.938 184.062 c 0
 613.027 201.152 613.027 201.152 623.161 224.677 c 0
 633 247.517 633 247.517 633 274 c 2
 633 1075 l 1
 858 1075 l 1
 858 -51 l 1
 738.412 -51 l 1
 691.457 20.8134 l 1
 657.899 -9.75228 657.899 -9.75228 616.944 -31.5296 c 0
 542.717 -71 542.717 -71 455 -71 c 2
 424 -71 l 2
 364.463 -71 364.463 -71 311.391 -52.7197 c 0
 304.634 -50.3925 304.634 -50.3925 297 -47.4211 c 1
 297 -346 l 1
 72 -346 l 1
 72 1075 l 1
EndSplineSet
EndChar

StartChar: paragraph
Encoding: 182 182 119
Width: 1155
Flags: HW
LayerCount: 2
Fore
SplineSet
737 -461 m 1
 506 -461 l 1
 506 582 l 1
 455 582 l 2
 371.58 582 371.58 582 297.498 613.586 c 0
 223.918 644.958 223.918 644.958 168.938 699.938 c 0
 114.011 754.862 114.011 754.862 82.6426 827.866 c 0
 51 901.506 51 901.506 51 985 c 2
 51 1081 l 2
 51 1164.42 51 1164.42 82.5861 1238.5 c 0
 113.952 1312.07 113.952 1312.07 168.938 1367.06 c 0
 223.91 1422.04 223.91 1422.04 297.498 1453.41 c 0
 371.58 1485 371.58 1485 455 1485 c 2
 1042 1485 l 1
 1042 -461 l 1
 811 -461 l 1
 811 1260 l 1
 737 1260 l 1
 737 -461 l 1
EndSplineSet
EndChar

StartChar: periodcentered
Encoding: 183 183 120
Width: 440
Flags: HW
LayerCount: 2
Fore
SplineSet
92 604 m 1
 92 860 l 1
 348 860 l 1
 348 604 l 1
 92 604 l 1
EndSplineSet
EndChar

StartChar: cedilla
Encoding: 184 184 121
Width: 741
Flags: HW
LayerCount: 2
Fore
SplineSet
260.448 -206.473 m 1
 291.179 -243.351 l 2
 293.736 -246.418 293.736 -246.418 299.883 -251.882 c 0
 304.126 -255.654 304.126 -255.654 311.976 -259.725 c 0
 321.296 -264.557 321.296 -264.557 333.29 -268.192 c 0
 342.558 -271 342.558 -271 354 -271 c 0
 372.703 -271 372.703 -271 384.079 -261.632 c 0
 391 -255.932 391 -255.932 391 -242 c 0
 391 -230.632 391 -230.632 387.396 -223.805 c 0
 383.424 -216.279 383.424 -216.279 376.503 -211.246 c 0
 368.257 -205.249 368.257 -205.249 357.187 -202.613 c 0
 344.115 -199.501 344.115 -199.501 328.235 -200.824 c 2
 260.448 -206.473 l 1
235.103 -208.585 m 1
 227.87 -209.188 l 1
 387.452 51 l 1
 591.169 51 l 1
 510.811 -85.6084 l 1
 524.423 -96.9463 524.423 -96.9463 537.146 -111.721 c 0
 557.332 -135.162 557.332 -135.162 571.833 -166.687 c 0
 588 -201.832 588 -201.832 588 -246 c 0
 588 -294.979 588 -294.979 569.48 -335.991 c 0
 550.938 -377.052 550.938 -377.052 518.139 -405.833 c 0
 485.983 -434.05 485.983 -434.05 442.341 -448.811 c 0
 400.391 -463 400.391 -463 352 -463 c 0
 295.405 -463 295.405 -463 248.451 -440.487 c 0
 204.097 -419.221 204.097 -419.221 168.938 -384.062 c 2
 139.664 -354.789 l 1
 235.103 -208.585 l 1
EndSplineSet
EndChar

StartChar: onesuperior
Encoding: 185 185 122
Width: 694
Flags: HW
LayerCount: 2
Fore
SplineSet
92 694 m 1
 92 893 l 1
 248 893 l 1
 248 1250.5 l 1
 92 1185.5 l 1
 92 1396.09 l 1
 306.865 1485 l 1
 448 1485 l 1
 448 893 l 1
 602 893 l 1
 602 694 l 1
 92 694 l 1
EndSplineSet
EndChar

StartChar: ordmasculine
Encoding: 186 186 123
Width: 717
Flags: HW
LayerCount: 2
Fore
SplineSet
604.876 878.91 m 0
 586.108 835.118 586.108 835.118 553.911 802.289 c 0
 521.452 769.194 521.452 769.194 477.835 750.229 c 0
 433.609 731 433.609 731 383 731 c 2
 334 731 l 2
 283.532 731 283.532 731 238.91 750.124 c 0
 194.647 769.093 194.647 769.093 162.089 802.289 c 0
 129.893 835.117 129.893 835.117 111.124 878.91 c 0
 92 923.531 92 923.531 92 973 c 2
 92 1251 l 2
 92 1300.47 92 1300.47 111.124 1345.09 c 0
 129.888 1388.88 129.888 1388.88 162.089 1421.71 c 0
 194.642 1454.9 194.642 1454.9 238.91 1473.88 c 0
 283.532 1493 283.532 1493 334 1493 c 2
 383 1493 l 2
 433.602 1493 433.602 1493 477.835 1473.77 c 0
 521.452 1454.81 521.452 1454.81 553.911 1421.71 c 0
 586.112 1388.88 586.112 1388.88 604.876 1345.09 c 0
 624 1300.47 624 1300.47 624 1251 c 2
 624 973 l 2
 624 923.531 624 923.531 604.876 878.91 c 0
428 1255 m 2
 428 1264.53 428 1264.53 424.624 1272.41 c 0
 420.993 1280.88 420.993 1280.88 414.938 1286.94 c 0
 408.438 1293.44 408.438 1293.44 399.296 1297.62 c 0
 391.896 1301 391.896 1301 383 1301 c 2
 334 1301 l 2
 325.104 1301 325.104 1301 317.704 1297.62 c 0
 308.562 1293.44 308.562 1293.44 302.062 1286.94 c 0
 296.007 1280.88 296.007 1280.88 292.376 1272.41 c 0
 289 1264.53 289 1264.53 289 1255 c 2
 289 969 l 2
 289 960.468 289 960.468 292.376 952.59 c 0
 296.204 943.66 296.204 943.66 302.736 936.876 c 0
 309.015 930.355 309.015 930.355 317.704 926.383 c 0
 325.104 923 325.104 923 334 923 c 2
 383 923 l 2
 391.896 923 391.896 923 399.296 926.383 c 0
 407.985 930.355 407.985 930.355 414.264 936.876 c 0
 420.796 943.66 420.796 943.66 424.624 952.59 c 0
 428 960.468 428 960.468 428 969 c 2
 428 1255 l 2
92 682 m 1
 624 682 l 1
 624 502 l 1
 92 502 l 1
 92 682 l 1
EndSplineSet
EndChar

StartChar: guillemotright
Encoding: 187 187 124
Width: 961
Flags: HW
LayerCount: 2
Fore
SplineSet
56.0465 119.829 m 1
 309.827 467 l 1
 56.0465 814.171 l 1
 164.286 922.411 l 1
 612.562 467 l 1
 164.286 11.5893 l 1
 56.0465 119.829 l 1
394.047 119.829 m 1
 647.827 467 l 1
 394.047 814.171 l 1
 502.286 922.411 l 1
 950.562 467 l 1
 502.286 11.5893 l 1
 394.047 119.829 l 1
EndSplineSet
EndChar

StartChar: onequarter
Encoding: 188 188 125
Width: 1364
Flags: HW
LayerCount: 2
Fore
SplineSet
1216 68 m 1
 1216 -51 l 1
 1024 -51 l 1
 1024 68 l 1
 764 68 l 1
 764 179.379 l 1
 1078.2 737 l 1
 1216 737 l 1
 1216 258 l 1
 1272 258 l 1
 1272 68 l 1
 1216 68 l 1
199.247 -51 m 1
 1074.36 1485 l 1
 1306.81 1485 l 1
 430.622 -51 l 1
 199.247 -51 l 1
92 694 m 1
 92 893 l 1
 248 893 l 1
 248 1250.5 l 1
 92 1185.5 l 1
 92 1396.09 l 1
 306.865 1485 l 1
 448 1485 l 1
 448 893 l 1
 602 893 l 1
 602 694 l 1
 92 694 l 1
EndSplineSet
EndChar

StartChar: onehalf
Encoding: 189 189 126
Width: 1448
Flags: HW
LayerCount: 2
Fore
SplineSet
92 694 m 1
 92 893 l 1
 248 893 l 1
 248 1250.5 l 1
 92 1185.5 l 1
 92 1396.09 l 1
 306.865 1485 l 1
 448 1485 l 1
 448 893 l 1
 602 893 l 1
 602 694 l 1
 92 694 l 1
1096 549 m 2
 1082.13 549 1082.13 549 1072.56 539.438 c 0
 1063 529.876 1063 529.876 1063 516 c 2
 1063 411.445 l 1
 862 435.809 l 1
 862 516 l 2
 862 564.865 862 564.865 880.925 607.28 c 0
 899.271 648.396 899.271 648.396 930.438 679.562 c 0
 961.847 710.972 961.847 710.972 1003.32 728.839 c 0
 1045.48 747 1045.48 747 1092 747 c 2
 1120 747 l 2
 1167.82 747 1167.82 747 1209.44 730.352 c 0
 1251.91 713.363 1251.91 713.363 1283.43 681.189 c 0
 1314.79 649.175 1314.79 649.175 1332.08 604.353 c 0
 1349 560.495 1349 560.495 1349 508 c 0
 1349 467.958 1349 467.958 1337.09 425.672 c 0
 1325.98 386.223 1325.98 386.223 1307.75 347.004 c 0
 1290.09 309.006 1290.09 309.006 1268.18 272.666 c 0
 1246.5 236.712 1246.5 236.712 1223.27 205.037 c 0
 1202.35 175.913 1202.35 175.913 1178.77 147 c 1
 1356 147 l 1
 1356 -51 l 1
 848 -51 l 1
 848 102.288 l 1
 866.857 117.596 l 2
 948.81 184.125 948.81 184.125 1012.15 254.185 c 0
 1038.72 283.594 1038.72 283.594 1064.41 317.374 c 0
 1089.33 350.148 1089.33 350.148 1108.65 384.174 c 0
 1127.28 417.009 1127.28 417.009 1138.75 450.508 c 0
 1149 480.478 1149 480.478 1149 508 c 0
 1149 531.62 1149 531.62 1140.47 539.468 c 0
 1130.11 549 1130.11 549 1118 549 c 2
 1096 549 l 2
199.247 -51 m 1
 1074.36 1485 l 1
 1306.81 1485 l 1
 430.622 -51 l 1
 199.247 -51 l 1
EndSplineSet
EndChar

StartChar: threequarters
Encoding: 190 190 127
Width: 1364
Flags: HW
LayerCount: 2
Fore
SplineSet
232 1163.93 m 1
 92 1185.15 l 1
 92 1264 l 2
 92 1310.52 92 1310.52 110.161 1352.68 c 0
 128.024 1394.15 128.024 1394.15 158.938 1425.06 c 0
 189.601 1455.73 189.601 1455.73 230.72 1474.07 c 0
 273.136 1493 273.136 1493 322 1493 c 2
 350 1493 l 2
 398.864 1493 398.864 1493 441.28 1474.07 c 0
 482.4 1455.73 482.4 1455.73 513.062 1425.06 c 0
 544.218 1393.9 544.218 1393.9 561.598 1352.06 c 0
 579 1310.17 579 1310.17 579 1264 c 2
 579 1241 l 2
 579 1156.45 579 1156.45 532.936 1097.8 c 1
 545.273 1080.49 545.273 1080.49 555.116 1060.81 c 0
 579 1013.04 579 1013.04 579 961 c 2
 579 915 l 2
 579 868.83 579 868.83 561.598 826.936 c 0
 544.218 785.093 544.218 785.093 513.062 753.938 c 0
 482.395 723.27 482.395 723.27 441.28 704.925 c 0
 398.863 686 398.863 686 350 686 c 2
 322 686 l 2
 273.136 686 273.136 686 230.72 704.925 c 0
 189.606 723.27 189.606 723.27 158.938 753.938 c 0
 128.028 784.846 128.028 784.846 110.161 826.323 c 0
 92 868.482 92 868.482 92 915 c 2
 92 993.855 l 1
 232 1015.07 l 1
 232 1163.93 l 1
293 1002 m 1
 293 915 l 2
 293 902.75 293 902.75 301.803 894.306 c 0
 311.506 885 311.506 885 326 885 c 2
 346 885 l 2
 360.494 885 360.494 885 370.197 894.306 c 0
 379 902.75 379 902.75 379 915 c 2
 379 969 l 2
 379 982.875 379 982.875 369.438 992.438 c 0
 359.875 1002 359.875 1002 346 1002 c 2
 293 1002 l 1
293 1200 m 1
 346 1200 l 2
 353.425 1200 353.425 1200 358.722 1202.3 c 0
 365.344 1205.16 365.344 1205.16 370.248 1209.85 c 0
 374.301 1213.73 374.301 1213.73 376.705 1219.28 c 0
 379 1224.58 379 1224.58 379 1231 c 2
 379 1264 l 2
 379 1270.42 379 1270.42 376.705 1275.72 c 0
 374.302 1281.27 374.302 1281.27 370.248 1285.15 c 0
 365.344 1289.84 365.344 1289.84 358.722 1292.7 c 0
 353.425 1295 353.425 1295 346 1295 c 2
 326 1295 l 2
 318.575 1295 318.575 1295 313.278 1292.7 c 0
 306.656 1289.84 306.656 1289.84 301.752 1285.15 c 0
 297.699 1281.27 297.699 1281.27 295.295 1275.72 c 0
 293 1270.42 293 1270.42 293 1264 c 2
 293 1200 l 1
1216 68 m 1
 1216 -51 l 1
 1024 -51 l 1
 1024 68 l 1
 764 68 l 1
 764 179.379 l 1
 1078.2 737 l 1
 1216 737 l 1
 1216 258 l 1
 1272 258 l 1
 1272 68 l 1
 1216 68 l 1
199.247 -51 m 1
 1074.36 1485 l 1
 1306.81 1485 l 1
 430.622 -51 l 1
 199.247 -51 l 1
EndSplineSet
EndChar

StartChar: questiondown
Encoding: 191 191 128
Width: 950
Flags: HW
LayerCount: 2
Fore
SplineSet
669 1075 m 1
 669 819 l 1
 414 819 l 1
 414 1075 l 1
 669 1075 l 1
426 641 m 1
 657 641 l 1
 657 551 l 2
 657 476.879 657 476.879 638.481 420.169 c 0
 620.037 363.691 620.037 363.691 588.963 320.304 c 0
 558.947 278.395 558.947 278.395 520.88 245.441 c 0
 485.986 215.234 485.986 215.234 449.008 187.631 c 0
 414.267 161.698 414.267 161.698 381.505 135.292 c 0
 352.306 111.759 352.306 111.759 329.265 83.0671 c 0
 307.797 56.3325 307.797 56.3325 294.659 21.8442 c 0
 282 -11.386 282 -11.386 282 -59 c 2
 282 -78 l 2
 282 -115.416 282 -115.416 295.788 -147.206 c 0
 309.842 -179.607 309.842 -179.607 334.273 -203.65 c 0
 359.004 -227.99 359.004 -227.99 391.794 -242.212 c 0
 423.584 -256 423.584 -256 461 -256 c 2
 489 -256 l 2
 526.416 -256 526.416 -256 558.206 -242.212 c 0
 590.994 -227.99 590.994 -227.99 615.727 -203.65 c 0
 640.159 -179.607 640.159 -179.607 654.212 -147.206 c 0
 668 -115.414 668 -115.414 668 -78 c 2
 668 39.9737 l 1
 899 2.36903 l 1
 899 -78 l 2
 899 -161.491 899 -161.491 867.357 -235.134 c 0
 835.992 -308.133 835.992 -308.133 781.062 -363.062 c 0
 726.134 -417.991 726.134 -417.991 653.134 -449.357 c 0
 579.492 -481 579.492 -481 496 -481 c 2
 455 -481 l 2
 371.58 -481 371.58 -481 297.498 -449.414 c 0
 223.918 -418.042 223.918 -418.042 168.938 -363.062 c 0
 114.01 -308.136 114.01 -308.136 82.6426 -235.134 c 0
 51 -161.492 51 -161.492 51 -78 c 2
 51 -59 l 2
 51 17.668 51 17.668 69.2553 76.9984 c 0
 87.4191 136.031 87.4191 136.031 117.984 182.167 c 0
 147.865 227.271 147.865 227.271 185.861 262.432 c 0
 221.165 295.102 221.165 295.102 258.626 323.593 c 0
 293.938 350.45 293.938 350.45 327.231 376.289 c 0
 356.619 399.099 356.619 399.099 379.734 426.139 c 0
 401.076 451.106 401.076 451.106 413.997 481.791 c 0
 426 510.299 426 510.299 426 551 c 2
 426 641 l 1
EndSplineSet
EndChar

StartChar: Agrave
Encoding: 192 192 129
Width: 1154
Flags: HW
LayerCount: 2
Fore
SplineSet
928.562 0 m 1,0,-1
 816.438 334 l 1,1,-1
 371.652 334 l 1,2,-1
 260.708 -0 l 1,3,-1
 20 0 l 1,4,-1
 507.578 1434 l 1,5,-1
 677.959 1434 l 1,6,-1
 1168.25 0 l 1,7,-1
 928.562 0 l 1,0,-1
594.121 946.059 m 1,8,-1
 447.07 508 l 1,9,-1
 741.953 508 l 1,10,-1
 594.121 946.059 l 1,8,-1
631.241 1495 m 1,11,-1
 184.211 1843 l 1,12,-1
 602.698 1843 l 1,13,-1
 874.848 1495 l 1,14,-1
 631.241 1495 l 1,11,-1
EndSplineSet
EndChar

StartChar: Aacute
Encoding: 193 193 130
Width: 1154
Flags: HW
LayerCount: 2
Fore
SplineSet
928.562 0 m 1,0,-1
 816.438 334 l 1,1,-1
 371.652 334 l 1,2,-1
 260.708 -0 l 1,3,-1
 20 0 l 1,4,-1
 507.578 1434 l 1,5,-1
 677.959 1434 l 1,6,-1
 1168.25 0 l 1,7,-1
 928.562 0 l 1,0,-1
594.121 946.059 m 1,8,-1
 447.07 508 l 1,9,-1
 741.953 508 l 1,10,-1
 594.121 946.059 l 1,8,-1
1003.95 1843 m 1,11,-1
 556.718 1495 l 1,12,-1
 312.73 1495 l 1,13,-1
 586.55 1843 l 1,14,-1
 1003.95 1843 l 1,11,-1
EndSplineSet
EndChar

StartChar: Acircumflex
Encoding: 194 194 131
Width: 1154
Flags: HW
LayerCount: 2
Fore
SplineSet
928.562 0 m 1,0,-1
 816.438 334 l 1,1,-1
 371.652 334 l 1,2,-1
 260.708 -0 l 1,3,-1
 20 0 l 1,4,-1
 507.578 1434 l 1,5,-1
 677.959 1434 l 1,6,-1
 1168.25 0 l 1,7,-1
 928.562 0 l 1,0,-1
594.121 946.059 m 1,8,-1
 447.07 508 l 1,9,-1
 741.953 508 l 1,10,-1
 594.121 946.059 l 1,8,-1
695.437 1843 m 1,11,-1
 1019.63 1495 l 1,12,-1
 735.38 1495 l 1,13,-1
 593.98 1632.4 l 1,14,-1
 452.58 1495 l 1,15,-1
 168.192 1495 l 1,16,-1
 493.791 1843 l 1,17,-1
 695.437 1843 l 1,11,-1
EndSplineSet
EndChar

StartChar: Atilde
Encoding: 195 195 132
Width: 1154
Flags: HW
LayerCount: 2
Fore
SplineSet
928.562 0 m 1,0,-1
 816.438 334 l 1,1,-1
 371.652 334 l 1,2,-1
 260.708 -0 l 1,3,-1
 20 0 l 1,4,-1
 507.578 1434 l 1,5,-1
 677.959 1434 l 1,6,-1
 1168.25 0 l 1,7,-1
 928.562 0 l 1,0,-1
594.121 946.059 m 1,8,-1
 447.07 508 l 1,9,-1
 741.953 508 l 1,10,-1
 594.121 946.059 l 1,8,-1
709.928 1739.73 m 0,11,12
 731.036 1729 731.036 1729 755.675 1729 c 0,13,14
 773.866 1729 773.866 1729 781.862 1738.7 c 0,15,16
 796.984 1757.05 796.984 1757.05 796.984 1792 c 2,17,-1
 796.984 1843 l 1,18,-1
 1014.08 1843 l 1,19,-1
 1014.08 1792 l 2,20,21
 1014.08 1739.64 1014.08 1739.64 1000.5 1693.58 c 0,22,23
 986.195 1645.07 986.195 1645.07 957.038 1608.31 c 0,24,25
 926.609 1570.32 926.609 1570.32 873.751 1548.25 c 0,26,27
 820.451 1526 820.451 1526 753.315 1526 c 0,28,29
 682.632 1526 682.632 1526 626.959 1549.26 c 0,30,31
 580.092 1568.84 580.092 1568.84 539.392 1592.38 c 0,32,33
 503.031 1613.4 503.031 1613.4 470.366 1630.88 c 0,34,35
 451.453 1641 451.453 1641 432.285 1641 c 0,36,37
 414.928 1641 414.928 1641 408.012 1632.21 c 0,38,39
 393.336 1613.56 393.336 1613.56 393.336 1579 c 2,40,-1
 393.336 1528 l 1,41,-1
 177.08 1528 l 1,42,-1
 177.08 1579 l 2,43,44
 177.08 1631.14 177.08 1631.14 190.042 1676.51 c 0,45,46
 203.748 1724.48 203.748 1724.48 232.285 1761.26 c 0,47,48
 262.459 1799.81 262.459 1799.81 316.023 1821.51 c 0,49,50
 369.067 1843 369.067 1843 437.006 1843 c 128,-1,51
 504.87 1843 504.87 1843 558.679 1819.22 c 0,52,53
 602.651 1799.78 602.651 1799.78 641.688 1777.01 c 0,54,55
 676.105 1756.93 676.105 1756.93 709.928 1739.73 c 0,11,12
EndSplineSet
EndChar

StartChar: Adieresis
Encoding: 196 196 133
Width: 1154
Flags: HW
LayerCount: 2
Fore
SplineSet
928.562 0 m 1,0,-1
 816.438 334 l 1,1,-1
 371.652 334 l 1,2,-1
 260.708 -0 l 1,3,-1
 20 0 l 1,4,-1
 507.578 1434 l 1,5,-1
 677.959 1434 l 1,6,-1
 1168.25 0 l 1,7,-1
 928.562 0 l 1,0,-1
594.121 946.059 m 1,8,-1
 447.07 508 l 1,9,-1
 741.953 508 l 1,10,-1
 594.121 946.059 l 1,8,-1
516.083 1538 m 1,11,-1
 222.08 1538 l 1,12,-1
 222.08 1794 l 1,13,-1
 516.083 1794 l 1,14,-1
 516.083 1538 l 1,11,-1
966.08 1538 m 1,15,-1
 671.877 1538 l 1,16,-1
 671.877 1794 l 1,17,-1
 966.08 1794 l 1,18,-1
 966.08 1538 l 1,15,-1
EndSplineSet
EndChar

StartChar: Aring
Encoding: 197 197 134
Width: 1154
Flags: HW
LayerCount: 2
Fore
SplineSet
300.944 1410.15 m 0,0,1
 284.784 1450.6 284.784 1450.6 284.784 1495 c 0,2,3
 284.784 1549.47 284.784 1549.47 309.125 1597.59 c 0,4,5
 333.055 1644.9 333.055 1644.9 374.631 1680.75 c 128,-1,6
 416.342 1716.71 416.342 1716.71 472.326 1737.65 c 0,7,8
 529.383 1759 529.383 1759 594.011 1759 c 128,-1,9
 658.64 1759 658.64 1759 715.696 1737.65 c 0,10,11
 771.436 1716.8 771.436 1716.8 813.613 1681.06 c 128,-1,12
 855.8 1645.32 855.8 1645.32 880.406 1598.1 c 0,13,14
 905.599 1549.76 905.599 1549.76 905.599 1495 c 0,15,16
 905.599 1450.25 905.599 1450.25 888.579 1409.49 c 0,17,18
 871.875 1372.19 871.875 1372.19 842.006 1341.11 c 128,-1,19
 812.06 1309.95 812.06 1309.95 771.223 1287.48 c 0,20,21
 755.356 1278.75 755.356 1278.75 738.083 1271.68 c 1,22,-1
 1168.27 0 l 1,23,-1
 928.595 0 l 1,24,-1
 816.47 334 l 1,25,-1
 371.684 334 l 1,26,-1
 260.739 -0 l 1,27,-1
 20 0 l 1,28,-1
 449.076 1272.47 l 1,29,30
 431.28 1280.01 431.28 1280.01 415.792 1288.68 c 0,31,32
 375.73 1311.13 375.73 1311.13 346.503 1341.73 c 0,33,34
 317.041 1372.57 317.041 1372.57 300.944 1410.15 c 0,0,1
594.152 946.059 m 1,35,-1
 447.102 508 l 1,36,-1
 741.985 508 l 1,37,-1
 594.152 946.059 l 1,35,-1
532.179 1518.97 m 0,38,39
 526.736 1507.85 526.736 1507.85 526.736 1495 c 0,40,41
 526.736 1483.39 526.736 1483.39 531.974 1472.95 c 0,42,43
 537.435 1462.06 537.435 1462.06 546.875 1454.06 c 0,44,45
 556.985 1445.5 556.985 1445.5 570.255 1440.31 c 0,46,47
 581.266 1436 581.266 1436 594.011 1436 c 0,48,49
 608.526 1436 608.526 1436 621.156 1440.7 c 0,50,51
 634.989 1445.84 634.989 1445.84 644.688 1454.06 c 0,52,53
 654.129 1462.06 654.129 1462.06 659.59 1472.95 c 0,54,55
 664.827 1483.39 664.827 1483.39 664.827 1495 c 0,56,57
 664.827 1507.85 664.827 1507.85 659.385 1518.97 c 0,58,59
 653.739 1530.5 653.739 1530.5 643.997 1539.03 c 0,60,61
 634.519 1547.33 634.519 1547.33 621.156 1552.3 c 0,62,63
 608.526 1557 608.526 1557 594.011 1557 c 0,64,65
 581.266 1557 581.266 1557 570.255 1552.69 c 0,66,67
 557.45 1547.69 557.45 1547.69 547.566 1539.03 c 128,-1,68
 537.826 1530.5 537.826 1530.5 532.179 1518.97 c 0,38,39
EndSplineSet
EndChar

StartChar: AE
Encoding: 198 198 135
Width: 1971
Flags: HW
LayerCount: 2
Fore
SplineSet
1929 0 m 1,0,-1
 968.574 0 l 1,1,-1
 968.574 334 l 1,2,-1
 486.973 334 l 1,3,-1
 273.62 0 l 1,4,-1
 20 0 l 1,5,-1
 992.388 1434 l 1,6,-1
 1929 1434 l 1,7,-1
 1929 1209 l 1,8,-1
 1217.48 1209 l 1,9,-1
 1217.48 829 l 1,10,-1
 1799 829 l 1,11,-1
 1799 604 l 1,12,-1
 1217.48 604 l 1,13,-1
 1217.48 225 l 1,14,-1
 1929 225 l 1,15,-1
 1929 0 l 1,0,-1
632.533 508 m 1,16,-1
 968.574 508 l 1,17,-1
 968.574 1027.04 l 1,18,-1
 632.533 508 l 1,16,-1
EndSplineSet
EndChar

StartChar: Ccedilla
Encoding: 199 199 136
Width: 1277
Flags: HW
LayerCount: 2
Fore
SplineSet
506.318 -149.824 m 2,0,-1
 421.969 -155.473 l 1,1,-1
 460.209 -192.351 l 2,2,3
 462.842 -194.891 462.842 -194.891 470.376 -199.989 c 0,4,5
 476.798 -204.336 476.798 -204.336 487.331 -208.725 c 0,6,7
 498.927 -213.557 498.927 -213.557 513.852 -217.191 c 0,8,9
 525.384 -220 525.384 -220 539.622 -220 c 0,10,11
 562.894 -220 562.894 -220 577.05 -210.632 c 0,12,13
 585.662 -204.932 585.662 -204.932 585.662 -191 c 0,14,15
 585.662 -179.633 585.662 -179.633 581.178 -172.805 c 0,16,17
 576.236 -165.279 576.236 -165.279 567.623 -160.245 c 0,18,19
 557.503 -154.331 557.503 -154.331 543.29 -151.675 c 0,20,21
 526.248 -148.489 526.248 -148.489 506.318 -149.824 c 2,0,-1
294.664 -303.789 m 1,22,-1
 390.431 -157.585 l 1,23,-1
 382.685 -158.203 l 1,24,-1
 492.2 -13.2432 l 1,25,26
 439.083 -5.3418 439.083 -5.3418 389.678 11.5859 c 0,27,28
 315.918 40.8418 315.918 40.8418 260.938 92.1152 c 128,-1,29
 206.01 143.34 206.01 143.34 174.643 211.418 c 0,30,31
 143 280.095 143 280.095 143 357.958 c 2,32,-1
 143 1076.04 l 2,33,34
 143 1153.9 143 1153.9 174.643 1222.58 c 0,35,36
 206.004 1290.65 206.004 1290.65 260.938 1341.88 c 128,-1,37
 315.91 1393.15 315.91 1393.15 389.678 1422.41 c 0,38,39
 481.86 1454 481.86 1454 585.662 1454 c 2,40,-1
 712.583 1454 l 2,41,42
 816.474 1454 816.474 1454 908.108 1422.36 c 0,43,44
 981.143 1390.99 981.143 1390.99 1036.06 1336.06 c 128,-1,45
 1091 1281.12 1091 1281.12 1122.36 1208.13 c 0,46,47
 1154 1134.49 1154 1134.49 1154 1051 c 2,48,-1
 1154 949.298 l 1,49,-1
 923 913.483 l 1,50,-1
 923 1051 l 2,51,52
 923 1088.41 923 1088.41 909.212 1120.21 c 0,53,54
 891.864 1152.79 891.864 1152.79 861.824 1176.94 c 128,-1,55
 831.797 1201.07 831.797 1201.07 791.231 1215.21 c 0,56,57
 751.678 1229 751.678 1229 705.117 1229 c 2,58,-1
 593.128 1229 l 2,59,60
 546.566 1229 546.566 1229 507.013 1216.46 c 0,61,62
 466.212 1203.52 466.212 1203.52 435.438 1181.39 c 0,63,64
 405.037 1159.52 405.037 1159.52 387.788 1130.05 c 0,65,66
 374 1101.14 374 1101.14 374 1067.11 c 2,67,-1
 374 366.8 l 2,68,69
 374 332.77 374 332.77 387.788 303.856 c 0,70,71
 405.142 274.213 405.142 274.213 435.799 251.806 c 128,-1,72
 466.453 229.399 466.453 229.399 507.013 216.541 c 0,73,74
 546.57 204 546.57 204 593.128 204 c 2,75,-1
 705.117 204 l 2,76,77
 751.674 204 751.674 204 791.231 217.788 c 0,78,79
 831.549 231.842 831.549 231.842 861.466 256.272 c 0,80,81
 891.755 281.008 891.755 281.008 909.212 313.794 c 0,82,83
 923 345.586 923 345.586 923 383 c 2,84,-1
 923 520.974 l 1,85,-1
 1154 483.369 l 1,86,-1
 1154 383 l 2,87,88
 1154 299.509 1154 299.509 1122.36 225.866 c 0,89,90
 1090.99 152.869 1090.99 152.869 1036.06 97.9375 c 128,-1,91
 981.138 43.0117 981.138 43.0117 908.108 11.6426 c 0,92,93
 831.254 -14.8965 831.254 -14.8965 744.936 -19.2158 c 1,94,-1
 734.191 -34.2832 l 1,95,96
 751.972 -46.3223 751.972 -46.3223 767.556 -61.3506 c 0,97,98
 791.606 -84.543 791.606 -84.543 809.432 -115.687 c 0,99,100
 829.549 -150.832 829.549 -150.832 829.549 -195 c 0,101,102
 829.549 -243.979 829.549 -243.979 806.504 -284.991 c 128,-1,103
 783.431 -326.052 783.431 -326.052 742.619 -354.833 c 0,104,105
 702.719 -382.971 702.719 -382.971 649.195 -397.737 c 0,106,107
 597.495 -412 597.495 -412 537.133 -412 c 0,108,109
 466.89 -412 466.89 -412 407.965 -389.604 c 0,110,111
 359.196 -368.321 359.196 -368.321 323.938 -333.062 c 2,112,-1
 294.664 -303.789 l 1,22,-1
EndSplineSet
EndChar

StartChar: Egrave
Encoding: 200 200 137
Width: 1257
Flags: HW
LayerCount: 2
Fore
SplineSet
1175 0 m 1,0,-1
 164 0 l 1,1,-1
 164 1434 l 1,2,-1
 1175 1434 l 1,3,-1
 1175 1209 l 1,4,-1
 395 1209 l 1,5,-1
 395 829 l 1,6,-1
 1046 829 l 1,7,-1
 1046 604 l 1,8,-1
 395 604 l 1,9,-1
 395 225 l 1,10,-1
 1175 225 l 1,11,-1
 1175 0 l 1,0,-1
658.454 1495 m 1,12,-1
 217.77 1843 l 1,13,-1
 626.937 1843 l 1,14,-1
 915.62 1495 l 1,15,-1
 658.454 1495 l 1,12,-1
EndSplineSet
EndChar

StartChar: Eacute
Encoding: 201 201 138
Width: 1257
Flags: HW
LayerCount: 2
Fore
SplineSet
1175 0 m 1,0,-1
 164 0 l 1,1,-1
 164 1434 l 1,2,-1
 1175 1434 l 1,3,-1
 1175 1209 l 1,4,-1
 395 1209 l 1,5,-1
 395 829 l 1,6,-1
 1046 829 l 1,7,-1
 1046 604 l 1,8,-1
 395 604 l 1,9,-1
 395 225 l 1,10,-1
 1175 225 l 1,11,-1
 1175 0 l 1,0,-1
1080.23 1843 m 1,12,-1
 629.529 1495 l 1,13,-1
 379.706 1495 l 1,14,-1
 661.046 1843 l 1,15,-1
 1080.23 1843 l 1,12,-1
EndSplineSet
EndChar

StartChar: Ecircumflex
Encoding: 202 202 139
Width: 1257
Flags: HW
LayerCount: 2
Fore
SplineSet
1175 0 m 1,0,-1
 164 0 l 1,1,-1
 164 1434 l 1,2,-1
 1175 1434 l 1,3,-1
 1175 1209 l 1,4,-1
 395 1209 l 1,5,-1
 395 829 l 1,6,-1
 1046 829 l 1,7,-1
 1046 604 l 1,8,-1
 395 604 l 1,9,-1
 395 225 l 1,10,-1
 1175 225 l 1,11,-1
 1175 0 l 1,0,-1
775.749 1843 m 1,12,-1
 1095.89 1495 l 1,13,-1
 819.33 1495 l 1,14,-1
 669.044 1632.55 l 1,15,-1
 519.802 1495 l 1,16,-1
 243.113 1495 l 1,17,-1
 563.251 1843 l 1,18,-1
 775.749 1843 l 1,12,-1
EndSplineSet
EndChar

StartChar: Edieresis
Encoding: 203 203 140
Width: 1257
Flags: HW
LayerCount: 2
Fore
SplineSet
1175 0 m 1,0,-1
 164 0 l 1,1,-1
 164 1434 l 1,2,-1
 1175 1434 l 1,3,-1
 1175 1209 l 1,4,-1
 395 1209 l 1,5,-1
 395 829 l 1,6,-1
 1046 829 l 1,7,-1
 1046 604 l 1,8,-1
 395 604 l 1,9,-1
 395 225 l 1,10,-1
 1175 225 l 1,11,-1
 1175 0 l 1,0,-1
536.98 1538 m 1,12,-1
 256 1538 l 1,13,-1
 256 1794 l 1,14,-1
 536.98 1794 l 1,15,-1
 536.98 1538 l 1,12,-1
1001 1538 m 1,16,-1
 699.986 1538 l 1,17,-1
 699.986 1794 l 1,18,-1
 1001 1794 l 1,19,-1
 1001 1538 l 1,16,-1
EndSplineSet
EndChar

StartChar: Igrave
Encoding: 204 204 141
Width: 559
Flags: HW
LayerCount: 2
Fore
SplineSet
478.23 0 m 1,0,-1
 247.23 0 l 1,1,-1
 247.23 1434 l 1,2,-1
 478.23 1434 l 1,3,-1
 478.23 0 l 1,0,-1
395.854 1495 m 1,4,-1
 4 1843 l 1,5,-1
 370.525 1843 l 1,6,-1
 602.525 1495 l 1,7,-1
 395.854 1495 l 1,4,-1
EndSplineSet
EndChar

StartChar: Iacute
Encoding: 205 205 142
Width: 559
Flags: HW
LayerCount: 2
Fore
SplineSet
439.294 0 m 1,0,-1
 208.294 0 l 1,1,-1
 208.294 1434 l 1,2,-1
 439.294 1434 l 1,3,-1
 439.294 0 l 1,0,-1
684.525 1843 m 1,4,-1
 292.672 1495 l 1,5,-1
 86 1495 l 1,6,-1
 318 1843 l 1,7,-1
 684.525 1843 l 1,4,-1
EndSplineSet
EndChar

StartChar: Icircumflex
Encoding: 206 206 143
Width: 763
Flags: HW
LayerCount: 2
Fore
SplineSet
554.887 0 m 1,0,-1
 323.887 0 l 1,1,-1
 323.887 1434 l 1,2,-1
 554.887 1434 l 1,3,-1
 554.887 0 l 1,0,-1
525.774 1843 m 1,4,-1
 917.774 1495 l 1,5,-1
 600.654 1495 l 1,6,-1
 440.021 1632.55 l 1,7,-1
 290.518 1495 l 1,8,-1
 -37 1495 l 1,9,-1
 355 1843 l 1,10,-1
 525.774 1843 l 1,4,-1
EndSplineSet
EndChar

StartChar: Idieresis
Encoding: 207 207 144
Width: 559
Flags: HW
LayerCount: 2
Fore
SplineSet
395 0 m 1,0,-1
 164 0 l 1,1,-1
 164 1434 l 1,2,-1
 395 1434 l 1,3,-1
 395 0 l 1,0,-1
215 1538 m 1,4,-1
 -41 1538 l 1,5,-1
 -41 1794 l 1,6,-1
 215 1794 l 1,7,-1
 215 1538 l 1,4,-1
602 1538 m 1,8,-1
 346 1538 l 1,9,-1
 346 1794 l 1,10,-1
 602 1794 l 1,11,-1
 602 1538 l 1,8,-1
EndSplineSet
EndChar

StartChar: Eth
Encoding: 208 208 145
Width: 1343
Flags: HW
LayerCount: 2
Fore
SplineSet
61 737 m 1,0,-1
 188 737 l 1,1,-1
 188 1434 l 1,2,-1
 694 1434 l 2,3,4
 831.653 1434 831.653 1434 953.065 1402.36 c 0,5,6
 1026.14 1373.16 1026.14 1373.16 1081.06 1322.04 c 128,-1,7
 1136.05 1270.86 1136.05 1270.86 1167.41 1202.38 c 0,8,9
 1199 1133.43 1199 1133.43 1199 1055.79 c 2,10,-1
 1199 377.28 l 2,11,12
 1199 299.571 1199 299.571 1167.36 231.029 c 0,13,14
 1135.99 163.088 1135.99 163.088 1081.06 111.961 c 128,-1,15
 1026.14 60.8389 1026.14 60.8389 953.065 31.6426 c 0,16,17
 831.656 0 831.656 0 694 0 c 2,18,-1
 188 0 l 1,19,-1
 188 533 l 1,20,-1
 61 533 l 1,21,-1
 61 737 l 1,0,-1
968 386.282 m 2,22,-1
 968 1046.81 l 2,23,24
 968 1080.71 968 1080.71 954.212 1109.52 c 0,25,26
 931.402 1139.22 931.402 1139.22 891.266 1161.64 c 0,27,28
 851.633 1183.77 851.633 1183.77 798.207 1196.51 c 0,29,30
 745.8 1209 745.8 1209 688 1209 c 2,31,-1
 419 1209 l 1,32,-1
 419 737 l 1,33,-1
 659 737 l 1,34,-1
 659 533 l 1,35,-1
 419 533 l 1,36,-1
 419 225 l 1,37,-1
 688 225 l 2,38,39
 745.795 225 745.795 225 798.207 237.493 c 0,40,41
 851.949 250.304 851.949 250.304 891.74 272.173 c 128,-1,42
 931.537 294.045 931.537 294.045 954.212 323.575 c 0,43,44
 968 352.382 968 352.382 968 386.282 c 2,22,-1
EndSplineSet
EndChar

StartChar: Ntilde
Encoding: 209 209 146
Width: 1339
Flags: HW
LayerCount: 2
Fore
SplineSet
1046.15 0 m 1,0,-1
 1021.54 8.55078 l 1,1,-1
 411.042 924.305 l 1,2,-1
 411.042 0 l 1,3,-1
 164 0 l 1,4,-1
 164 1434 l 1,5,-1
 311.575 1434 l 1,6,-1
 944 507.088 l 1,7,-1
 944 1434 l 1,8,-1
 1175 1434 l 1,9,-1
 1175 0 l 1,10,-1
 1046.15 0 l 1,0,-1
791.671 1739.73 m 0,11,12
 812.996 1729 812.996 1729 837.885 1729 c 0,13,14
 856.261 1729 856.261 1729 864.34 1738.7 c 0,15,16
 879.616 1757.05 879.616 1757.05 879.616 1792 c 2,17,-1
 879.616 1843 l 1,18,-1
 1087 1843 l 1,19,-1
 1087 1792 l 2,20,21
 1087 1739.64 1087 1739.64 1073.42 1693.58 c 0,22,23
 1059.12 1645.07 1059.12 1645.07 1029.96 1608.31 c 0,24,25
 999.828 1570.32 999.828 1570.32 955.042 1548.25 c 0,26,27
 903.322 1526 903.322 1526 835.501 1526 c 0,28,29
 764.094 1526 764.094 1526 707.857 1549.26 c 0,30,31
 660.502 1568.85 660.502 1568.85 619.396 1592.38 c 0,32,33
 582.682 1613.39 582.682 1613.39 549.667 1630.88 c 0,34,35
 530.56 1641 530.56 1641 511.196 1641 c 0,36,37
 493.662 1641 493.662 1641 486.675 1632.21 c 0,38,39
 471.85 1613.56 471.85 1613.56 471.85 1579 c 2,40,-1
 471.85 1528 l 1,41,-1
 250 1528 l 1,42,-1
 250 1579 l 2,43,44
 250 1631.14 250 1631.14 262.962 1676.51 c 0,45,46
 276.668 1724.48 276.668 1724.48 305.206 1761.26 c 0,47,48
 339.637 1799.81 339.637 1799.81 393.749 1821.51 c 0,49,50
 447.333 1843 447.333 1843 515.965 1843 c 128,-1,51
 584.522 1843 584.522 1843 638.88 1819.22 c 0,52,53
 683.301 1799.78 683.301 1799.78 722.735 1777.01 c 0,54,55
 757.503 1756.93 757.503 1756.93 791.671 1739.73 c 0,11,12
EndSplineSet
EndChar

StartChar: Ograve
Encoding: 210 210 147
Width: 1298
Flags: HW
LayerCount: 2
Fore
SplineSet
1154 1076.04 m 2,0,-1
 1154 357.96 l 2,1,2
 1154 280.099 1154 280.099 1122.36 211.421 c 0,3,4
 1090.99 143.346 1090.99 143.346 1036.06 92.1191 c 128,-1,5
 981.138 40.8965 981.138 40.8965 908.108 11.6426 c 0,6,7
 816.476 -20 816.476 -20 712.583 -20 c 2,8,-1
 585.662 -20 l 2,9,10
 481.864 -20 481.864 -20 389.678 11.5859 c 0,11,12
 315.918 40.8418 315.918 40.8418 260.938 92.1152 c 128,-1,13
 206.01 143.34 206.01 143.34 174.643 211.418 c 0,14,15
 143 280.095 143 280.095 143 357.958 c 2,16,-1
 143 1076.04 l 2,17,18
 143 1153.9 143 1153.9 174.643 1222.58 c 0,19,20
 206.004 1290.65 206.004 1290.65 260.938 1341.88 c 128,-1,21
 315.91 1393.15 315.91 1393.15 389.678 1422.41 c 0,22,23
 481.86 1454 481.86 1454 585.662 1454 c 2,24,-1
 712.583 1454 l 2,25,26
 816.474 1454 816.474 1454 908.108 1422.36 c 0,27,28
 981.143 1393.1 981.143 1393.1 1036.06 1341.88 c 128,-1,29
 1091 1290.65 1091 1290.65 1122.36 1222.58 c 0,30,31
 1154 1153.9 1154 1153.9 1154 1076.04 c 2,0,-1
923 366.8 m 2,32,-1
 923 1067.11 l 2,33,34
 923 1101.14 923 1101.14 909.212 1130.05 c 0,35,36
 891.864 1159.69 891.864 1159.69 861.824 1181.65 c 128,-1,37
 831.797 1203.6 831.797 1203.6 791.231 1216.46 c 0,38,39
 751.678 1229 751.678 1229 705.117 1229 c 2,40,-1
 593.128 1229 l 2,41,42
 546.566 1229 546.566 1229 507.013 1216.46 c 0,43,44
 466.212 1203.52 466.212 1203.52 435.438 1181.39 c 0,45,46
 405.037 1159.52 405.037 1159.52 387.788 1130.05 c 0,47,48
 374 1101.14 374 1101.14 374 1067.11 c 2,49,-1
 374 366.8 l 2,50,51
 374 332.77 374 332.77 387.788 303.856 c 0,52,53
 405.142 274.213 405.142 274.213 435.799 251.806 c 128,-1,54
 466.453 229.399 466.453 229.399 507.013 216.541 c 0,55,56
 546.57 204 546.57 204 593.128 204 c 2,57,-1
 705.117 204 l 2,58,59
 751.674 204 751.674 204 791.231 216.541 c 0,60,61
 831.549 229.322 831.549 229.322 861.466 251.542 c 0,62,63
 891.755 274.038 891.755 274.038 909.212 303.856 c 0,64,65
 923 332.771 923 332.771 923 366.8 c 2,32,-1
359.066 1753.93 m 2,66,67
 349.113 1762.36 349.113 1762.36 259.132 1843 c 1,68,-1
 683.085 1843 l 1,69,-1
 959.294 1495 l 1,70,-1
 713.292 1495 l 1,71,-1
 359.066 1753.93 l 2,66,67
EndSplineSet
EndChar

StartChar: Oacute
Encoding: 211 211 148
Width: 1298
Flags: HW
LayerCount: 2
Fore
SplineSet
1154 1076.04 m 2,0,-1
 1154 357.96 l 2,1,2
 1154 280.099 1154 280.099 1122.36 211.421 c 0,3,4
 1090.99 143.346 1090.99 143.346 1036.06 92.1191 c 128,-1,5
 981.138 40.8965 981.138 40.8965 908.108 11.6426 c 0,6,7
 816.476 -20 816.476 -20 712.583 -20 c 2,8,-1
 585.662 -20 l 2,9,10
 481.864 -20 481.864 -20 389.678 11.5859 c 0,11,12
 315.918 40.8418 315.918 40.8418 260.938 92.1152 c 128,-1,13
 206.01 143.34 206.01 143.34 174.643 211.418 c 0,14,15
 143 280.095 143 280.095 143 357.958 c 2,16,-1
 143 1076.04 l 2,17,18
 143 1153.9 143 1153.9 174.643 1222.58 c 0,19,20
 206.004 1290.65 206.004 1290.65 260.938 1341.88 c 128,-1,21
 315.91 1393.15 315.91 1393.15 389.678 1422.41 c 0,22,23
 481.86 1454 481.86 1454 585.662 1454 c 2,24,-1
 712.583 1454 l 2,25,26
 816.474 1454 816.474 1454 908.108 1422.36 c 0,27,28
 981.143 1393.1 981.143 1393.1 1036.06 1341.88 c 128,-1,29
 1091 1290.65 1091 1290.65 1122.36 1222.58 c 0,30,31
 1154 1153.9 1154 1153.9 1154 1076.04 c 2,0,-1
923 366.8 m 2,32,-1
 923 1067.11 l 2,33,34
 923 1101.14 923 1101.14 909.212 1130.05 c 0,35,36
 891.864 1159.69 891.864 1159.69 861.824 1181.65 c 128,-1,37
 831.797 1203.6 831.797 1203.6 791.231 1216.46 c 0,38,39
 751.678 1229 751.678 1229 705.117 1229 c 2,40,-1
 593.128 1229 l 2,41,42
 546.566 1229 546.566 1229 507.013 1216.46 c 0,43,44
 466.212 1203.52 466.212 1203.52 435.438 1181.39 c 0,45,46
 405.037 1159.52 405.037 1159.52 387.788 1130.05 c 0,47,48
 374 1101.14 374 1101.14 374 1067.11 c 2,49,-1
 374 366.8 l 2,50,51
 374 332.77 374 332.77 387.788 303.856 c 0,52,53
 405.142 274.213 405.142 274.213 435.799 251.806 c 128,-1,54
 466.453 229.399 466.453 229.399 507.013 216.541 c 0,55,56
 546.57 204 546.57 204 593.128 204 c 2,57,-1
 705.117 204 l 2,58,59
 751.674 204 751.674 204 791.231 216.541 c 0,60,61
 831.549 229.322 831.549 229.322 861.466 251.542 c 0,62,63
 891.755 274.038 891.755 274.038 909.212 303.856 c 0,64,65
 923 332.771 923 332.771 923 366.8 c 2,32,-1
1080.23 1843 m 1,66,-1
 634.659 1495 l 1,67,-1
 379.706 1495 l 1,68,-1
 666.177 1843 l 1,69,-1
 1080.23 1843 l 1,66,-1
EndSplineSet
EndChar

StartChar: Ocircumflex
Encoding: 212 212 149
Width: 1298
Flags: HW
LayerCount: 2
Fore
SplineSet
1154 1076.04 m 2,0,-1
 1154 357.96 l 2,1,2
 1154 280.099 1154 280.099 1122.36 211.421 c 0,3,4
 1090.99 143.346 1090.99 143.346 1036.06 92.1191 c 128,-1,5
 981.138 40.8965 981.138 40.8965 908.108 11.6426 c 0,6,7
 816.476 -20 816.476 -20 712.583 -20 c 2,8,-1
 585.662 -20 l 2,9,10
 481.864 -20 481.864 -20 389.678 11.5859 c 0,11,12
 315.918 40.8418 315.918 40.8418 260.938 92.1152 c 128,-1,13
 206.01 143.34 206.01 143.34 174.643 211.418 c 0,14,15
 143 280.095 143 280.095 143 357.958 c 2,16,-1
 143 1076.04 l 2,17,18
 143 1153.9 143 1153.9 174.643 1222.58 c 0,19,20
 206.004 1290.65 206.004 1290.65 260.938 1341.88 c 128,-1,21
 315.91 1393.15 315.91 1393.15 389.678 1422.41 c 0,22,23
 481.86 1454 481.86 1454 585.662 1454 c 2,24,-1
 712.583 1454 l 2,25,26
 816.474 1454 816.474 1454 908.108 1422.36 c 0,27,28
 981.143 1393.1 981.143 1393.1 1036.06 1341.88 c 128,-1,29
 1091 1290.65 1091 1290.65 1122.36 1222.58 c 0,30,31
 1154 1153.9 1154 1153.9 1154 1076.04 c 2,0,-1
923 366.8 m 2,32,-1
 923 1067.11 l 2,33,34
 923 1101.14 923 1101.14 909.212 1130.05 c 0,35,36
 891.864 1159.69 891.864 1159.69 861.824 1181.65 c 128,-1,37
 831.797 1203.6 831.797 1203.6 791.231 1216.46 c 0,38,39
 751.678 1229 751.678 1229 705.117 1229 c 2,40,-1
 593.128 1229 l 2,41,42
 546.566 1229 546.566 1229 507.013 1216.46 c 0,43,44
 466.212 1203.52 466.212 1203.52 435.438 1181.39 c 0,45,46
 405.037 1159.52 405.037 1159.52 387.788 1130.05 c 0,47,48
 374 1101.14 374 1101.14 374 1067.11 c 2,49,-1
 374 366.8 l 2,50,51
 374 332.77 374 332.77 387.788 303.856 c 0,52,53
 405.142 274.213 405.142 274.213 435.799 251.806 c 128,-1,54
 466.453 229.399 466.453 229.399 507.013 216.541 c 0,55,56
 546.57 204 546.57 204 593.128 204 c 2,57,-1
 705.117 204 l 2,58,59
 751.674 204 751.674 204 791.231 216.541 c 0,60,61
 831.549 229.322 831.549 229.322 861.466 251.542 c 0,62,63
 891.755 274.038 891.755 274.038 909.212 303.856 c 0,64,65
 923 332.771 923 332.771 923 366.8 c 2,32,-1
754.749 1843 m 1,66,-1
 1074.89 1495 l 1,67,-1
 798.198 1495 l 1,68,-1
 648.956 1632.55 l 1,69,-1
 498.67 1495 l 1,70,-1
 223.453 1495 l 1,71,-1
 542.158 1843 l 1,72,-1
 754.749 1843 l 1,66,-1
EndSplineSet
EndChar

StartChar: Otilde
Encoding: 213 213 150
Width: 1298
Flags: HW
LayerCount: 2
Fore
SplineSet
1154 1076.04 m 2,0,-1
 1154 357.96 l 2,1,2
 1154 280.099 1154 280.099 1122.36 211.421 c 0,3,4
 1090.99 143.346 1090.99 143.346 1036.06 92.1191 c 128,-1,5
 981.138 40.8965 981.138 40.8965 908.108 11.6426 c 0,6,7
 816.476 -20 816.476 -20 712.583 -20 c 2,8,-1
 585.662 -20 l 2,9,10
 481.864 -20 481.864 -20 389.678 11.5859 c 0,11,12
 315.918 40.8418 315.918 40.8418 260.938 92.1152 c 128,-1,13
 206.01 143.34 206.01 143.34 174.643 211.418 c 0,14,15
 143 280.095 143 280.095 143 357.958 c 2,16,-1
 143 1076.04 l 2,17,18
 143 1153.9 143 1153.9 174.643 1222.58 c 0,19,20
 206.004 1290.65 206.004 1290.65 260.938 1341.88 c 128,-1,21
 315.91 1393.15 315.91 1393.15 389.678 1422.41 c 0,22,23
 481.86 1454 481.86 1454 585.662 1454 c 2,24,-1
 712.583 1454 l 2,25,26
 816.474 1454 816.474 1454 908.108 1422.36 c 0,27,28
 981.143 1393.1 981.143 1393.1 1036.06 1341.88 c 128,-1,29
 1091 1290.65 1091 1290.65 1122.36 1222.58 c 0,30,31
 1154 1153.9 1154 1153.9 1154 1076.04 c 2,0,-1
923 366.8 m 2,32,-1
 923 1067.11 l 2,33,34
 923 1101.14 923 1101.14 909.212 1130.05 c 0,35,36
 891.864 1159.69 891.864 1159.69 861.824 1181.65 c 128,-1,37
 831.797 1203.6 831.797 1203.6 791.231 1216.46 c 0,38,39
 751.678 1229 751.678 1229 705.117 1229 c 2,40,-1
 593.128 1229 l 2,41,42
 546.566 1229 546.566 1229 507.013 1216.46 c 0,43,44
 466.212 1203.52 466.212 1203.52 435.438 1181.39 c 0,45,46
 405.037 1159.52 405.037 1159.52 387.788 1130.05 c 0,47,48
 374 1101.14 374 1101.14 374 1067.11 c 2,49,-1
 374 366.8 l 2,50,51
 374 332.77 374 332.77 387.788 303.856 c 0,52,53
 405.142 274.213 405.142 274.213 435.799 251.806 c 128,-1,54
 466.453 229.399 466.453 229.399 507.013 216.541 c 0,55,56
 546.57 204 546.57 204 593.128 204 c 2,57,-1
 705.117 204 l 2,58,59
 751.674 204 751.674 204 791.231 216.541 c 0,60,61
 831.549 229.322 831.549 229.322 861.466 251.542 c 0,62,63
 891.755 274.038 891.755 274.038 909.212 303.856 c 0,64,65
 923 332.771 923 332.771 923 366.8 c 2,32,-1
768.875 1739.74 m 0,66,67
 791.131 1729 791.131 1729 817.106 1729 c 0,68,69
 836.283 1729 836.283 1729 844.714 1738.7 c 0,70,71
 860.657 1757.05 860.657 1757.05 860.657 1792 c 2,72,-1
 860.657 1843 l 1,73,-1
 1066 1843 l 1,74,-1
 1066 1792 l 2,75,76
 1066 1739.64 1066 1739.64 1052.42 1693.58 c 0,77,78
 1038.2 1645.34 1038.2 1645.34 1009.79 1608.74 c 0,79,80
 980.087 1570.45 980.087 1570.45 935.042 1548.25 c 0,81,82
 885.398 1526 885.398 1526 814.617 1526 c 0,83,84
 740.268 1526 740.268 1526 681.088 1549.14 c 0,85,86
 630.868 1568.77 630.868 1568.77 587.838 1592.38 c 0,87,88
 549.502 1613.4 549.502 1613.4 515.067 1630.88 c 0,89,90
 495.126 1641 495.126 1641 476.161 1641 c 0,91,92
 457.862 1641 457.862 1641 450.571 1632.21 c 0,93,94
 435.099 1613.56 435.099 1613.56 435.099 1579 c 2,95,-1
 435.099 1528 l 1,96,-1
 229 1528 l 1,97,-1
 229 1579 l 2,98,99
 229 1631.46 229 1631.46 242.634 1677.1 c 0,100,101
 256.864 1724.74 256.864 1724.74 285.206 1761.26 c 0,102,103
 315.111 1799.81 315.111 1799.81 360.496 1821.51 c 0,104,105
 409.512 1843 409.512 1843 481.139 1843 c 0,106,107
 551.443 1843 551.443 1843 608.172 1819.22 c 0,108,109
 654.288 1799.88 654.288 1799.88 695.913 1777.22 c 0,110,111
 733.087 1756.99 733.087 1756.99 768.875 1739.74 c 0,66,67
EndSplineSet
EndChar

StartChar: Odieresis
Encoding: 214 214 151
Width: 1298
Flags: HW
LayerCount: 2
Fore
SplineSet
1154 1076.04 m 2,0,-1
 1154 357.96 l 2,1,2
 1154 280.099 1154 280.099 1122.36 211.421 c 0,3,4
 1090.99 143.346 1090.99 143.346 1036.06 92.1191 c 128,-1,5
 981.138 40.8965 981.138 40.8965 908.108 11.6426 c 0,6,7
 816.476 -20 816.476 -20 712.583 -20 c 2,8,-1
 585.662 -20 l 2,9,10
 481.864 -20 481.864 -20 389.678 11.5859 c 0,11,12
 315.918 40.8418 315.918 40.8418 260.938 92.1152 c 128,-1,13
 206.01 143.34 206.01 143.34 174.643 211.418 c 0,14,15
 143 280.095 143 280.095 143 357.958 c 2,16,-1
 143 1076.04 l 2,17,18
 143 1153.9 143 1153.9 174.643 1222.58 c 0,19,20
 206.004 1290.65 206.004 1290.65 260.938 1341.88 c 128,-1,21
 315.91 1393.15 315.91 1393.15 389.678 1422.41 c 0,22,23
 481.86 1454 481.86 1454 585.662 1454 c 2,24,-1
 712.583 1454 l 2,25,26
 816.474 1454 816.474 1454 908.108 1422.36 c 0,27,28
 981.143 1393.1 981.143 1393.1 1036.06 1341.88 c 128,-1,29
 1091 1290.65 1091 1290.65 1122.36 1222.58 c 0,30,31
 1154 1153.9 1154 1153.9 1154 1076.04 c 2,0,-1
923 366.8 m 2,32,-1
 923 1067.11 l 2,33,34
 923 1101.14 923 1101.14 909.212 1130.05 c 0,35,36
 891.864 1159.69 891.864 1159.69 861.824 1181.65 c 128,-1,37
 831.797 1203.6 831.797 1203.6 791.231 1216.46 c 0,38,39
 751.678 1229 751.678 1229 705.117 1229 c 2,40,-1
 593.128 1229 l 2,41,42
 546.566 1229 546.566 1229 507.013 1216.46 c 0,43,44
 466.212 1203.52 466.212 1203.52 435.438 1181.39 c 0,45,46
 405.037 1159.52 405.037 1159.52 387.788 1130.05 c 0,47,48
 374 1101.14 374 1101.14 374 1067.11 c 2,49,-1
 374 366.8 l 2,50,51
 374 332.77 374 332.77 387.788 303.856 c 0,52,53
 405.142 274.213 405.142 274.213 435.799 251.806 c 128,-1,54
 466.453 229.399 466.453 229.399 507.013 216.541 c 0,55,56
 546.57 204 546.57 204 593.128 204 c 2,57,-1
 705.117 204 l 2,58,59
 751.674 204 751.674 204 791.231 216.541 c 0,60,61
 831.549 229.322 831.549 229.322 861.466 251.542 c 0,62,63
 891.755 274.038 891.755 274.038 909.212 303.856 c 0,64,65
 923 332.771 923 332.771 923 366.8 c 2,32,-1
566.997 1538 m 1,66,-1
 276 1538 l 1,67,-1
 276 1794 l 1,68,-1
 566.997 1794 l 1,69,-1
 566.997 1538 l 1,66,-1
1021 1538 m 1,70,-1
 731.247 1538 l 1,71,-1
 731.247 1794 l 1,72,-1
 1021 1794 l 1,73,-1
 1021 1538 l 1,70,-1
EndSplineSet
EndChar

StartChar: multiply
Encoding: 215 215 152
Width: 1400
Flags: HW
LayerCount: 2
Fore
SplineSet
267.432 1248.26 m 1,0,-1
 721.629 881.125 l 1,1,-1
 1175.83 1248.26 l 1,2,-1
 1338.6 1083.65 l 1,3,-1
 911.628 718.866 l 1,4,-1
 1341.26 348.964 l 1,5,-1
 1175 188.066 l 1,6,-1
 721.629 554.785 l 1,7,-1
 268.26 188.066 l 1,8,-1
 102 348.964 l 1,9,-1
 531.631 718.866 l 1,10,-1
 104.656 1083.65 l 1,11,-1
 267.432 1248.26 l 1,0,-1
EndSplineSet
EndChar

StartChar: Oslash
Encoding: 216 216 153
Width: 1298
Flags: HW
LayerCount: 2
Fore
SplineSet
325.275 -61 m 1,0,-1
 102 -61 l 1,1,-1
 225.273 169.686 l 1,2,3
 204.337 204.771 204.337 204.771 191.712 243.755 c 0,4,5
 174.52 296.838 174.52 296.838 174.52 354.435 c 2,6,-1
 174.52 1074.9 l 2,7,8
 174.52 1153.01 174.52 1153.01 206.162 1221.92 c 0,9,10
 237.524 1290.22 237.524 1290.22 292.457 1341.62 c 128,-1,11
 347.43 1393.06 347.43 1393.06 434.305 1422.41 c 0,12,13
 521.825 1454 521.825 1454 620.376 1454 c 2,14,-1
 740.878 1454 l 2,15,16
 826.199 1454 826.199 1454 904.337 1429.27 c 0,17,18
 945.119 1416.36 945.119 1416.36 982.086 1398.1 c 1,19,-1
 1036.35 1495 l 1,20,-1
 1257.86 1495 l 1,21,-1
 1133.78 1261.65 l 1,22,23
 1154.65 1227.04 1154.65 1227.04 1167.55 1189.67 c 0,24,25
 1185.52 1137.61 1185.52 1137.61 1185.52 1079.57 c 2,26,-1
 1185.52 359.107 l 2,27,28
 1185.52 280.988 1185.52 280.988 1153.88 212.083 c 0,29,30
 1122.51 143.782 1122.51 143.782 1067.58 92.3857 c 128,-1,31
 1012.66 40.9941 1012.66 40.9941 926.513 11.6426 c 0,32,33
 839.516 -20 839.516 -20 740.878 -20 c 2,34,-1
 620.376 -20 l 2,35,36
 533.079 -20 533.079 -20 455.857 3.50977 c 0,37,38
 414.87 15.9873 414.87 15.9873 376.741 34.624 c 1,39,-1
 325.275 -61 l 1,0,-1
944.076 383 m 2,40,-1
 944.076 990.911 l 1,41,-1
 498.473 240.411 l 1,42,43
 517.247 228.369 517.247 228.369 539.145 219.634 c 0,44,45
 578.337 204 578.337 204 627.464 204 c 2,46,-1
 733.789 204 l 2,47,48
 777.992 204 777.992 204 815.548 217.788 c 0,49,50
 853.827 231.842 853.827 231.842 882.231 256.272 c 0,51,52
 910.988 281.008 910.988 281.008 927.787 313.794 c 0,53,54
 944.076 345.586 944.076 345.586 944.076 383 c 2,40,-1
415.996 1051 m 2,55,-1
 415.996 443.277 l 1,56,-1
 860.89 1193.35 l 1,57,58
 842.635 1205.28 842.635 1205.28 821.089 1213.57 c 0,59,60
 780.992 1229 780.992 1229 733.789 1229 c 2,61,-1
 627.464 1229 l 2,62,63
 583.258 1229 583.258 1229 545.705 1215.21 c 0,64,65
 506.968 1200.99 506.968 1200.99 477.751 1176.65 c 0,66,67
 448.887 1152.61 448.887 1152.61 432.286 1120.21 c 0,68,69
 415.996 1088.41 415.996 1088.41 415.996 1051 c 2,55,-1
EndSplineSet
EndChar

StartChar: Ugrave
Encoding: 217 217 154
Width: 1298
Flags: HW
LayerCount: 2
Fore
SplineSet
1154 1434 m 1,0,-1
 1154 358.151 l 2,1,2
 1154 280.247 1154 280.247 1122.36 211.531 c 0,3,4
 1090.99 143.419 1090.99 143.419 1036.06 92.1631 c 128,-1,5
 981.138 40.9131 981.138 40.9131 904.742 11.6426 c 0,6,7
 814.298 -20 814.298 -20 711.752 -20 c 2,8,-1
 586.477 -20 l 2,9,10
 484.025 -20 484.025 -20 393.035 11.5859 c 0,11,12
 315.918 40.8574 315.918 40.8574 260.938 92.1602 c 128,-1,13
 206.01 143.412 206.01 143.412 174.643 211.528 c 0,14,15
 143 280.242 143 280.242 143 358.148 c 2,16,-1
 143 1434 l 1,17,-1
 374 1434 l 1,18,-1
 374 369.293 l 2,19,20
 374 334.742 374 334.742 390.934 305.386 c 0,21,22
 408.298 275.288 408.298 275.288 438.557 252.537 c 128,-1,23
 468.814 229.788 468.814 229.788 508.848 216.732 c 0,24,25
 547.892 204 547.892 204 593.846 204 c 2,26,-1
 704.383 204 l 2,27,28
 750.336 204 750.336 204 789.381 216.732 c 0,29,30
 829.176 229.71 829.176 229.71 858.705 252.27 c 0,31,32
 888.601 275.11 888.601 275.11 906.066 305.386 c 0,33,34
 923 334.744 923 334.744 923 369.293 c 2,35,-1
 923 1434 l 1,36,-1
 1154 1434 l 1,0,-1
663.389 1495 m 1,37,-1
 217.77 1843 l 1,38,-1
 632.28 1843 l 1,39,-1
 917.22 1495 l 1,40,-1
 663.389 1495 l 1,37,-1
EndSplineSet
EndChar

StartChar: Uacute
Encoding: 218 218 155
Width: 1298
Flags: HW
LayerCount: 2
Fore
SplineSet
1154 1434 m 1,0,-1
 1154 358.151 l 2,1,2
 1154 280.247 1154 280.247 1122.36 211.531 c 0,3,4
 1090.99 143.419 1090.99 143.419 1036.06 92.1631 c 128,-1,5
 981.138 40.9131 981.138 40.9131 904.742 11.6426 c 0,6,7
 814.298 -20 814.298 -20 711.752 -20 c 2,8,-1
 586.477 -20 l 2,9,10
 484.025 -20 484.025 -20 393.035 11.5859 c 0,11,12
 315.918 40.8574 315.918 40.8574 260.938 92.1602 c 128,-1,13
 206.01 143.412 206.01 143.412 174.643 211.528 c 0,14,15
 143 280.242 143 280.242 143 358.148 c 2,16,-1
 143 1434 l 1,17,-1
 374 1434 l 1,18,-1
 374 369.293 l 2,19,20
 374 334.742 374 334.742 390.934 305.386 c 0,21,22
 408.298 275.288 408.298 275.288 438.557 252.537 c 128,-1,23
 468.814 229.788 468.814 229.788 508.848 216.732 c 0,24,25
 547.892 204 547.892 204 593.846 204 c 2,26,-1
 704.383 204 l 2,27,28
 750.336 204 750.336 204 789.381 216.732 c 0,29,30
 829.176 229.71 829.176 229.71 858.705 252.27 c 0,31,32
 888.601 275.11 888.601 275.11 906.066 305.386 c 0,33,34
 923 334.744 923 334.744 923 369.293 c 2,35,-1
 923 1434 l 1,36,-1
 1154 1434 l 1,0,-1
1080.23 1843 m 1,37,-1
 634.839 1495 l 1,38,-1
 381.008 1495 l 1,39,-1
 665.948 1843 l 1,40,-1
 1080.23 1843 l 1,37,-1
EndSplineSet
EndChar

StartChar: Ucircumflex
Encoding: 219 219 156
Width: 1298
Flags: HW
LayerCount: 2
Fore
SplineSet
1154 1434 m 1,0,-1
 1154 358.151 l 2,1,2
 1154 280.247 1154 280.247 1122.36 211.531 c 0,3,4
 1090.99 143.419 1090.99 143.419 1036.06 92.1631 c 128,-1,5
 981.138 40.9131 981.138 40.9131 904.742 11.6426 c 0,6,7
 814.298 -20 814.298 -20 711.752 -20 c 2,8,-1
 586.477 -20 l 2,9,10
 484.025 -20 484.025 -20 393.035 11.5859 c 0,11,12
 315.918 40.8574 315.918 40.8574 260.938 92.1602 c 128,-1,13
 206.01 143.412 206.01 143.412 174.643 211.528 c 0,14,15
 143 280.242 143 280.242 143 358.148 c 2,16,-1
 143 1434 l 1,17,-1
 374 1434 l 1,18,-1
 374 369.293 l 2,19,20
 374 334.742 374 334.742 390.934 305.386 c 0,21,22
 408.298 275.288 408.298 275.288 438.557 252.537 c 128,-1,23
 468.814 229.788 468.814 229.788 508.848 216.732 c 0,24,25
 547.892 204 547.892 204 593.846 204 c 2,26,-1
 704.383 204 l 2,27,28
 750.336 204 750.336 204 789.381 216.732 c 0,29,30
 829.176 229.71 829.176 229.71 858.705 252.27 c 0,31,32
 888.601 275.11 888.601 275.11 906.066 305.386 c 0,33,34
 923 334.744 923 334.744 923 369.293 c 2,35,-1
 923 1434 l 1,36,-1
 1154 1434 l 1,0,-1
753.371 1843 m 1,37,-1
 1074.89 1495 l 1,38,-1
 796.257 1495 l 1,39,-1
 648.95 1632.55 l 1,40,-1
 500.612 1495 l 1,41,-1
 223.453 1495 l 1,42,-1
 543.537 1843 l 1,43,-1
 753.371 1843 l 1,37,-1
EndSplineSet
EndChar

StartChar: Udieresis
Encoding: 220 220 157
Width: 1298
Flags: HW
LayerCount: 2
Fore
SplineSet
1154 1434 m 1,0,-1
 1154 358.151 l 2,1,2
 1154 280.247 1154 280.247 1122.36 211.531 c 0,3,4
 1090.99 143.419 1090.99 143.419 1036.06 92.1631 c 128,-1,5
 981.138 40.9131 981.138 40.9131 904.742 11.6426 c 0,6,7
 814.298 -20 814.298 -20 711.752 -20 c 2,8,-1
 586.477 -20 l 2,9,10
 484.025 -20 484.025 -20 393.035 11.5859 c 0,11,12
 315.918 40.8574 315.918 40.8574 260.938 92.1602 c 128,-1,13
 206.01 143.412 206.01 143.412 174.643 211.528 c 0,14,15
 143 280.242 143 280.242 143 358.148 c 2,16,-1
 143 1434 l 1,17,-1
 374 1434 l 1,18,-1
 374 369.293 l 2,19,20
 374 334.742 374 334.742 390.934 305.386 c 0,21,22
 408.298 275.288 408.298 275.288 438.557 252.537 c 128,-1,23
 468.814 229.788 468.814 229.788 508.848 216.732 c 0,24,25
 547.892 204 547.892 204 593.846 204 c 2,26,-1
 704.383 204 l 2,27,28
 750.336 204 750.336 204 789.381 216.732 c 0,29,30
 829.176 229.71 829.176 229.71 858.705 252.27 c 0,31,32
 888.601 275.11 888.601 275.11 906.066 305.386 c 0,33,34
 923 334.744 923 334.744 923 369.293 c 2,35,-1
 923 1434 l 1,36,-1
 1154 1434 l 1,0,-1
568.054 1538 m 1,37,-1
 276 1538 l 1,38,-1
 276 1794 l 1,39,-1
 568.054 1794 l 1,40,-1
 568.054 1538 l 1,37,-1
1021 1538 m 1,41,-1
 730.174 1538 l 1,42,-1
 730.174 1794 l 1,43,-1
 1021 1794 l 1,44,-1
 1021 1538 l 1,41,-1
EndSplineSet
EndChar

StartChar: Yacute
Encoding: 221 221 158
Width: 1154
Flags: HW
LayerCount: 2
Fore
SplineSet
1175.06 1434 m 1,0,-1
 747.786 676.98 l 1,1,-1
 747.786 0 l 1,2,-1
 472.049 0 l 1,3,-1
 472.049 675.059 l 1,4,-1
 41 1434 l 1,5,-1
 293.789 1434 l 1,6,-1
 608.127 901.969 l 1,7,-1
 922.465 1434 l 1,8,-1
 1175.06 1434 l 1,0,-1
1059 1843 m 1,9,-1
 619.382 1495 l 1,10,-1
 372.622 1495 l 1,11,-1
 649.553 1843 l 1,12,-1
 1059 1843 l 1,9,-1
EndSplineSet
EndChar

StartChar: Thorn
Encoding: 222 222 159
Width: 1257
Flags: HW
LayerCount: 2
Fore
SplineSet
1175 793.555 m 2,0,-1
 1175 684.324 l 2,1,2
 1175 606.377 1175 606.377 1143.36 537.625 c 0,3,4
 1111.99 469.473 1111.99 469.473 1057.06 418.191 c 128,-1,5
 1002.09 366.865 1002.09 366.865 928.328 337.574 c 0,6,7
 836.768 308.086 836.768 308.086 733.659 308.086 c 2,8,-1
 395 308.086 l 1,9,-1
 395 0 l 1,10,-1
 164 0 l 1,11,-1
 164 1434 l 1,12,-1
 395 1434 l 1,13,-1
 395 1169.79 l 1,14,-1
 733.659 1169.79 l 2,15,16
 836.768 1169.79 836.768 1169.79 928.328 1140.3 c 0,17,18
 1002.09 1111.01 1002.09 1111.01 1057.06 1059.69 c 128,-1,19
 1111.99 1008.4 1111.99 1008.4 1143.36 940.254 c 0,20,21
 1175 871.502 1175 871.502 1175 793.555 c 2,0,-1
944 682 m 2,22,-1
 944 799 l 2,23,24
 944 836.414 944 836.414 930.212 868.206 c 0,25,26
 913.072 900.607 913.072 900.607 882.875 924.65 c 0,27,28
 852.301 948.993 852.301 948.993 811.78 963.212 c 0,29,30
 772.486 977 772.486 977 726.243 977 c 2,31,-1
 395 977 l 1,32,-1
 395 504 l 1,33,-1
 726.243 504 l 2,34,35
 772.486 504 772.486 504 811.78 517.788 c 0,36,37
 852.301 532.007 852.301 532.007 882.875 556.35 c 0,38,39
 913.072 580.393 913.072 580.393 930.212 612.794 c 0,40,41
 944 644.586 944 644.586 944 682 c 2,22,-1
EndSplineSet
EndChar

StartChar: germandbls
Encoding: 223 223 160
Width: 1257
Flags: HW
LayerCount: 2
Fore
SplineSet
573 0 m 1,0,-1
 573 219 l 1,1,-1
 735 219 l 2,2,3
 772.416 219 772.416 219 804.206 231.199 c 0,4,5
 836.803 243.708 836.803 243.708 860.938 265.062 c 128,-1,6
 885.076 286.419 885.076 286.419 899.212 315.255 c 0,7,8
 913 343.383 913 343.383 913 376.484 c 2,9,-1
 913 492.387 l 2,10,11
 913 525.488 913 525.488 899.212 553.616 c 0,12,13
 884.993 582.622 884.993 582.622 860.65 604.508 c 0,14,15
 836.607 626.124 836.607 626.124 804.206 638.557 c 0,16,17
 772.414 650.756 772.414 650.756 735 650.756 c 2,18,-1
 573 650.756 l 1,19,-1
 573 843.631 l 1,20,-1
 735 843.631 l 2,21,22
 772.414 843.631 772.414 843.631 804.206 855.83 c 0,23,24
 811.568 858.654 811.568 858.654 818.479 861.941 c 0,25,26
 842.031 873.14 842.031 873.14 860.65 889.879 c 0,27,28
 884.993 911.765 884.993 911.765 899.212 940.771 c 0,29,30
 913 968.898 913 968.898 913 1002 c 2,31,-1
 913 1057 l 2,32,33
 913 1094.41 913 1094.41 899.212 1126.21 c 0,34,35
 885.079 1158.79 885.079 1158.79 860.938 1182.94 c 128,-1,36
 836.807 1207.07 836.807 1207.07 804.206 1221.21 c 0,37,38
 772.418 1235 772.418 1235 735 1235 c 2,39,-1
 675 1235 l 2,40,41
 637.581 1235 637.581 1235 605.794 1221.21 c 0,42,43
 573.193 1207.07 573.193 1207.07 516.936 1182.94 c 0,44,45
 460.398 1158.8 460.398 1158.8 427.293 1126.21 c 0,46,47
 395 1094.41 395 1094.41 395 1057 c 2,48,-1
 395 0 l 1,49,-1
 170 0 l 1,50,-1
 170 1051 l 2,51,52
 170 1134.32 170 1134.32 201.011 1207.82 c 0,53,54
 231.722 1280.62 231.722 1280.62 284.87 1335.49 c 0,55,56
 338.376 1390.72 338.376 1390.72 431.531 1422.24 c 0,57,58
 585.36 1454 585.36 1454 669 1454 c 2,59,-1
 735 1454 l 2,60,61
 818.492 1454 818.492 1454 892.134 1422.36 c 0,62,63
 965.143 1390.99 965.143 1390.99 1020.06 1336.06 c 128,-1,64
 1075 1281.12 1075 1281.12 1106.36 1208.13 c 0,65,66
 1138 1134.49 1138 1134.49 1138 1051 c 2,67,-1
 1138 1026 l 2,68,69
 1138 973.166 1138 973.166 1122.48 924.675 c 0,70,71
 1107.07 876.533 1107.07 876.533 1078.99 834.959 c 128,-1,72
 1050.93 793.404 1050.93 793.404 1011.47 759.695 c 0,73,74
 1002.18 751.753 1002.18 751.753 991.824 743.934 c 1,75,76
 1002.17 736.115 1002.17 736.115 1011.47 728.173 c 0,77,78
 1050.93 694.464 1050.93 694.464 1078.99 652.909 c 128,-1,79
 1107.07 611.335 1107.07 611.335 1122.48 563.193 c 0,80,81
 1138 514.703 1138 514.703 1138 461.868 c 2,82,-1
 1138 368.45 l 2,83,84
 1138 292.728 1138 292.728 1106.36 225.936 c 0,85,86
 1074.99 159.729 1074.99 159.729 1020.06 109.909 c 128,-1,87
 965.138 60.0928 965.138 60.0928 892.134 31.6426 c 0,88,89
 818.494 0 818.494 0 735 0 c 2,90,-1
 573 0 l 1,0,-1
EndSplineSet
EndChar

StartChar: agrave
Encoding: 224 224 161
Width: 1134
Flags: HW
LayerCount: 2
Fore
SplineSet
1011 0 m 1,0,-1
 891.706 0 l 1,1,-1
 844.33 71.0635 l 1,2,3
 810.396 40.9805 810.396 40.9805 769.944 19.4707 c 0,4,5
 671.636 -20 671.636 -20 553.536 -20 c 2,6,-1
 511.799 -20 l 2,7,8
 414.269 -20 414.269 -20 337.962 7.60156 c 0,9,10
 273.903 32.9375 273.903 32.9375 225.938 77.3398 c 128,-1,11
 177.973 121.741 177.973 121.741 150.602 181.041 c 0,12,13
 123 240.839 123 240.839 123 307.896 c 2,14,-1
 123 317.154 l 2,15,16
 123 384.211 123 384.211 150.602 444.01 c 0,17,18
 177.973 503.311 177.973 503.311 225.938 547.711 c 128,-1,19
 273.909 592.117 273.909 592.117 337.962 617.449 c 0,20,21
 414.276 643 414.276 643 511.799 643 c 2,22,-1
 786 643 l 1,23,-1
 786 726.68 l 2,24,25
 786 747.391 786 747.391 776.161 765.253 c 0,26,27
 766.026 783.65 766.026 783.65 743.291 797.016 c 0,28,29
 720.283 810.38 720.283 810.38 688.609 818.306 c 0,30,31
 657.858 826 657.858 826 622.201 826 c 2,32,-1
 525.262 826 l 2,33,34
 489.607 826 489.607 826 458.855 816.161 c 0,35,36
 427.182 806.027 427.182 806.027 404.173 788.938 c 128,-1,37
 381.165 771.849 381.165 771.849 367.839 748.323 c 0,38,39
 358 725.483 358 725.483 358 699 c 2,40,-1
 358 602.037 l 1,41,-1
 133 638.623 l 1,42,-1
 133 692 l 2,43,44
 133 764.441 133 764.441 160.602 829.038 c 0,45,46
 187.975 893.101 187.975 893.101 235.938 941.062 c 128,-1,47
 283.901 989.025 283.901 989.025 347.962 1016.4 c 0,48,49
 427.725 1044 427.725 1044 525.262 1044 c 2,50,-1
 622.201 1044 l 2,51,52
 719.741 1044 719.741 1044 796.038 1016.4 c 0,53,54
 860.102 991.52 860.102 991.52 908.062 947.934 c 128,-1,55
 956.03 904.34 956.03 904.34 983.398 846.126 c 0,56,57
 1011 787.416 1011 787.416 1011 721.586 c 2,58,-1
 1011 0 l 1,0,-1
786 303.265 m 2,59,-1
 786 445 l 1,60,-1
 511.799 445 l 2,61,62
 476.143 445 476.143 445 445.391 436.845 c 0,63,64
 414.055 428.535 414.055 428.535 391.208 414.176 c 0,65,66
 368.08 399.493 368.08 399.493 357.839 379.788 c 0,67,68
 348 360.856 348 360.856 348 338.906 c 2,69,-1
 348 303.265 l 2,70,71
 348 281.314 348 281.314 357.839 262.383 c 0,72,73
 367.973 242.885 367.973 242.885 390.709 228.72 c 0,74,75
 413.717 214.555 413.717 214.555 445.391 206.155 c 0,76,77
 476.143 198 476.143 198 511.799 198 c 2,78,-1
 622.201 198 l 2,79,80
 657.858 198 657.858 198 688.609 206.155 c 0,81,82
 720.284 214.556 720.284 214.556 743.291 228.72 c 0,83,84
 766.027 242.885 766.027 242.885 776.161 262.383 c 0,85,86
 786 281.314 786 281.314 786 303.265 c 2,59,-1
609.505 1086 m 1,87,-1
 157.132 1434 l 1,88,-1
 575.474 1434 l 1,89,-1
 856.294 1086 l 1,90,-1
 609.505 1086 l 1,87,-1
EndSplineSet
EndChar

StartChar: aacute
Encoding: 225 225 162
Width: 1134
Flags: HW
LayerCount: 2
Fore
SplineSet
1011 0 m 1,0,-1
 891.706 0 l 1,1,-1
 844.33 71.0635 l 1,2,3
 810.396 40.9805 810.396 40.9805 769.944 19.4707 c 0,4,5
 671.636 -20 671.636 -20 553.536 -20 c 2,6,-1
 511.799 -20 l 2,7,8
 414.269 -20 414.269 -20 337.962 7.60156 c 0,9,10
 273.903 32.9375 273.903 32.9375 225.938 77.3398 c 128,-1,11
 177.973 121.741 177.973 121.741 150.602 181.041 c 0,12,13
 123 240.839 123 240.839 123 307.896 c 2,14,-1
 123 317.154 l 2,15,16
 123 384.211 123 384.211 150.602 444.01 c 0,17,18
 177.973 503.311 177.973 503.311 225.938 547.711 c 128,-1,19
 273.909 592.117 273.909 592.117 337.962 617.449 c 0,20,21
 414.276 643 414.276 643 511.799 643 c 2,22,-1
 786 643 l 1,23,-1
 786 726.68 l 2,24,25
 786 747.391 786 747.391 776.161 765.253 c 0,26,27
 766.026 783.65 766.026 783.65 743.291 797.016 c 0,28,29
 720.283 810.38 720.283 810.38 688.609 818.306 c 0,30,31
 657.858 826 657.858 826 622.201 826 c 2,32,-1
 525.262 826 l 2,33,34
 489.607 826 489.607 826 458.855 816.161 c 0,35,36
 427.182 806.027 427.182 806.027 404.173 788.938 c 128,-1,37
 381.165 771.849 381.165 771.849 367.839 748.323 c 0,38,39
 358 725.483 358 725.483 358 699 c 2,40,-1
 358 602.037 l 1,41,-1
 133 638.623 l 1,42,-1
 133 692 l 2,43,44
 133 764.441 133 764.441 160.602 829.038 c 0,45,46
 187.975 893.101 187.975 893.101 235.938 941.062 c 128,-1,47
 283.901 989.025 283.901 989.025 347.962 1016.4 c 0,48,49
 427.725 1044 427.725 1044 525.262 1044 c 2,50,-1
 622.201 1044 l 2,51,52
 719.741 1044 719.741 1044 796.038 1016.4 c 0,53,54
 860.102 991.52 860.102 991.52 908.062 947.934 c 128,-1,55
 956.03 904.34 956.03 904.34 983.398 846.126 c 0,56,57
 1011 787.416 1011 787.416 1011 721.586 c 2,58,-1
 1011 0 l 1,0,-1
786 303.265 m 2,59,-1
 786 445 l 1,60,-1
 511.799 445 l 2,61,62
 476.143 445 476.143 445 445.391 436.845 c 0,63,64
 414.055 428.535 414.055 428.535 391.208 414.176 c 0,65,66
 368.08 399.493 368.08 399.493 357.839 379.788 c 0,67,68
 348 360.856 348 360.856 348 338.906 c 2,69,-1
 348 303.265 l 2,70,71
 348 281.314 348 281.314 357.839 262.383 c 0,72,73
 367.973 242.885 367.973 242.885 390.709 228.72 c 0,74,75
 413.717 214.555 413.717 214.555 445.391 206.155 c 0,76,77
 476.143 198 476.143 198 511.799 198 c 2,78,-1
 622.201 198 l 2,79,80
 657.858 198 657.858 198 688.609 206.155 c 0,81,82
 720.284 214.556 720.284 214.556 743.291 228.72 c 0,83,84
 766.027 242.885 766.027 242.885 776.161 262.383 c 0,85,86
 786 281.314 786 281.314 786 303.265 c 2,59,-1
976.868 1434 m 1,87,-1
 524.495 1086 l 1,88,-1
 278.027 1086 l 1,89,-1
 557.055 1434 l 1,90,-1
 976.868 1434 l 1,87,-1
EndSplineSet
EndChar

StartChar: acircumflex
Encoding: 226 226 163
Width: 1134
Flags: HW
LayerCount: 2
Fore
SplineSet
1011 0 m 1,0,-1
 891.706 0 l 1,1,-1
 844.33 71.0635 l 1,2,3
 810.396 40.9805 810.396 40.9805 769.944 19.4707 c 0,4,5
 670.879 -20 670.879 -20 553.075 -20 c 2,6,-1
 511.441 -20 l 2,7,8
 414.156 -20 414.156 -20 337.962 7.60156 c 0,9,10
 273.903 32.9375 273.903 32.9375 225.938 77.3398 c 128,-1,11
 177.973 121.741 177.973 121.741 150.602 181.041 c 0,12,13
 123 240.839 123 240.839 123 307.896 c 2,14,-1
 123 317.154 l 2,15,16
 123 384.211 123 384.211 150.602 444.01 c 0,17,18
 177.973 503.311 177.973 503.311 225.938 547.711 c 128,-1,19
 273.909 592.117 273.909 592.117 337.962 617.449 c 0,20,21
 414.162 643 414.162 643 511.441 643 c 2,22,-1
 786 643 l 1,23,-1
 786 726.68 l 2,24,25
 786 747.391 786 747.391 776.161 765.253 c 0,26,27
 765.306 783.65 765.306 783.65 742.355 797.016 c 128,-1,28
 719.405 810.38 719.405 810.38 687.81 818.306 c 0,29,30
 657.136 826 657.136 826 621.568 826 c 2,31,-1
 524.872 826 l 2,32,33
 489.305 826 489.305 826 458.63 816.161 c 0,34,35
 427.036 806.027 427.036 806.027 404.085 788.938 c 128,-1,36
 381.134 771.849 381.134 771.849 367.839 748.323 c 0,37,38
 358 725.483 358 725.483 358 699 c 2,39,-1
 358 602.037 l 1,40,-1
 133 638.623 l 1,41,-1
 133 692 l 2,42,43
 133 764.441 133 764.441 160.602 829.038 c 0,44,45
 187.975 893.101 187.975 893.101 235.938 941.062 c 128,-1,46
 283.901 989.025 283.901 989.025 347.962 1016.4 c 0,47,48
 427.578 1044 427.578 1044 524.872 1044 c 2,49,-1
 621.568 1044 l 2,50,51
 718.865 1044 718.865 1044 796.038 1016.4 c 0,52,53
 860.102 991.52 860.102 991.52 908.062 947.934 c 128,-1,54
 956.03 904.34 956.03 904.34 983.398 846.126 c 0,55,56
 1011 787.416 1011 787.416 1011 721.586 c 2,57,-1
 1011 0 l 1,0,-1
786 303.265 m 2,58,-1
 786 445 l 1,59,-1
 511.441 445 l 2,60,61
 475.875 445 475.875 445 445.2 436.845 c 0,62,63
 413.942 428.535 413.942 428.535 391.152 414.176 c 0,64,65
 368.08 399.493 368.08 399.493 357.839 379.788 c 0,66,67
 348 360.856 348 360.856 348 338.906 c 2,68,-1
 348 303.265 l 2,69,70
 348 281.314 348 281.314 357.839 262.383 c 0,71,72
 367.973 242.885 367.973 242.885 390.654 228.72 c 0,73,74
 413.605 214.555 413.605 214.555 445.2 206.155 c 0,75,76
 475.875 198 475.875 198 511.441 198 c 2,77,-1
 621.568 198 l 2,78,79
 657.136 198 657.136 198 687.81 206.155 c 0,80,81
 719.406 214.556 719.406 214.556 742.355 228.72 c 128,-1,82
 765.307 242.885 765.307 242.885 776.161 262.383 c 0,83,84
 786 281.314 786 281.314 786 303.265 c 2,58,-1
708.712 1434 m 1,85,-1
 1013.89 1086 l 1,86,-1
 755.75 1086 l 1,87,-1
 593.545 1223.55 l 1,88,-1
 432.466 1086 l 1,89,-1
 161.113 1086 l 1,90,-1
 479.361 1434 l 1,91,-1
 708.712 1434 l 1,85,-1
EndSplineSet
EndChar

